<svg width="517" height="375" viewBox="0 0 517 375" fill="none" xmlns="http://www.w3.org/2000/svg">
<path opacity="0.1" d="M502 277.34C502.027 291.835 498.062 306.06 490.538 318.458C490.538 333.622 483.456 347.366 471.968 357.383C469.092 359.886 465.996 362.126 462.718 364.075C462.586 364.158 462.45 364.237 462.314 364.316C462.068 364.461 461.822 364.605 461.572 364.754L461.34 364.89C460.291 365.481 459.22 366.05 458.128 366.585C448.059 371.527 436.981 374.075 425.761 374.031H95.2966C92.6637 374.031 90.0543 373.926 87.4682 373.715C78.278 372.993 69.2473 370.905 60.6744 367.522C59.0011 366.862 57.3599 366.153 55.7509 365.393C54.9845 365.034 54.2253 364.665 53.4735 364.285C53.004 364.049 52.5345 363.804 52.0693 363.558C49.247 362.06 46.5131 360.402 43.8811 358.591C41.4757 356.948 39.1612 355.176 36.9479 353.283C22.0151 340.494 12.7782 322.795 12.7782 303.265C4.4081 290.4 -0.0316879 275.383 -1.48171e-05 260.044C-1.48171e-05 216.621 34.7714 181.42 77.6696 181.42C78.986 181.42 80.3024 181.459 81.6189 181.529C81.8076 181.529 81.9919 181.529 82.1805 181.556C89.4121 169.253 99.0792 157.948 110.703 147.997C142.403 120.885 188.733 103.795 240.341 103.795C283.705 103.795 323.342 115.861 353.704 135.799C365.209 129.307 378.204 125.904 391.42 125.922C434.309 125.922 469.089 161.123 469.089 204.546C469.083 207.293 468.936 210.039 468.65 212.771C478.989 220.076 487.416 229.756 493.22 240.993C499.024 252.231 502.035 264.697 502 277.34Z" fill="#3787FF"/>
<path opacity="0.1" d="M399.621 214.996V210.297C403.304 208.804 406.352 206.08 408.244 202.591C410.136 199.102 410.755 195.065 409.993 191.172C409.231 187.278 407.137 183.77 404.069 181.247C401.001 178.725 397.15 177.346 393.175 177.346C389.2 177.346 385.349 178.725 382.281 181.247C379.213 183.77 377.119 187.278 376.357 191.172C375.595 195.065 376.213 199.102 378.105 202.591C379.997 206.08 383.046 208.804 386.729 210.297V214.996C382.435 216.187 378.556 218.542 375.521 221.798C372.307 216.985 367.467 213.484 361.883 211.935V207.231C365.566 205.738 368.614 203.014 370.507 199.525C372.399 196.036 373.017 191.999 372.255 188.106C371.493 184.212 369.399 180.704 366.331 178.181C363.263 175.659 359.412 174.28 355.437 174.28C351.462 174.28 347.611 175.659 344.543 178.181C341.475 180.704 339.381 184.212 338.619 188.106C337.857 191.999 338.475 196.036 340.368 199.525C342.26 203.014 345.308 205.738 348.991 207.231V211.93C345.173 212.988 341.676 214.968 338.806 217.694C335.604 213.404 331.064 210.298 325.901 208.864V204.165C329.583 202.672 332.632 199.948 334.524 196.459C336.416 192.971 337.034 188.934 336.273 185.04C335.511 181.146 333.417 177.638 330.348 175.115C327.28 172.593 323.429 171.214 319.455 171.214C315.48 171.214 311.629 172.593 308.561 175.115C305.493 177.638 303.398 181.146 302.637 185.04C301.875 188.934 302.493 192.971 304.385 196.459C306.277 199.948 309.326 202.672 313.008 204.165V208.864C308.616 210.086 304.66 212.525 301.599 215.899C300.235 212.407 298.074 209.28 295.289 206.767C292.503 204.254 289.17 202.422 285.552 201.419V196.719C289.235 195.226 292.283 192.503 294.175 189.014C296.067 185.525 296.686 181.488 295.924 177.594C295.162 173.7 293.068 170.192 290 167.67C286.932 165.147 283.081 163.768 279.106 163.768C275.131 163.768 271.28 165.147 268.212 167.67C265.144 170.192 263.05 173.7 262.288 177.594C261.526 181.488 262.144 185.525 264.036 189.014C265.929 192.503 268.977 195.226 272.66 196.719V201.419C267.957 202.725 263.763 205.425 260.629 209.16C257.495 212.895 255.57 217.491 255.107 222.341C252.893 220.807 250.434 219.656 247.836 218.938V214.239C251.519 212.746 254.567 210.022 256.46 206.533C258.352 203.044 258.97 199.007 258.208 195.114C257.446 191.22 255.352 187.711 252.284 185.189C249.216 182.667 245.365 181.288 241.39 181.288C237.415 181.288 233.564 182.667 230.496 185.189C227.428 187.711 225.334 191.22 224.572 195.114C223.81 199.007 224.428 203.044 226.321 206.533C228.213 210.022 231.261 212.746 234.944 214.239V218.938C231.666 219.849 228.618 221.44 225.997 223.606C223.377 225.771 221.243 228.464 219.735 231.509C217.702 230.204 215.482 229.215 213.153 228.574V223.874C216.835 222.382 219.884 219.658 221.776 216.169C223.668 212.68 224.286 208.643 223.524 204.749C222.763 200.856 220.668 197.347 217.6 194.825C214.532 192.303 210.681 190.924 206.706 190.924C202.732 190.924 198.881 192.303 195.812 194.825C192.744 197.347 190.65 200.856 189.888 204.749C189.127 208.643 189.745 212.68 191.637 216.169C193.529 219.658 196.577 222.382 200.26 223.874V228.574C198.062 229.179 195.962 230.097 194.025 231.298C192.506 228.304 190.38 225.658 187.78 223.53C185.18 221.402 182.164 219.838 178.925 218.938V214.239C182.608 212.746 185.656 210.022 187.549 206.533C189.441 203.044 190.059 199.007 189.297 195.114C188.535 191.22 186.441 187.711 183.373 185.189C180.305 182.667 176.454 181.288 172.479 181.288C168.504 181.288 164.653 182.667 161.585 185.189C158.517 187.711 156.423 191.22 155.661 195.114C154.899 199.007 155.518 203.044 157.41 206.533C159.302 210.022 162.35 212.746 166.033 214.239V218.938C162.547 219.906 159.323 221.643 156.599 224.02C153.874 226.397 151.72 229.354 150.293 232.674C147.839 230.793 145.046 229.402 142.065 228.574V223.874C145.748 222.382 148.796 219.658 150.688 216.169C152.581 212.68 153.199 208.643 152.437 204.749C151.675 200.856 149.581 197.347 146.513 194.825C143.445 192.303 139.594 190.924 135.619 190.924C131.644 190.924 127.793 192.303 124.725 194.825C121.657 197.347 119.563 200.856 118.801 204.749C118.039 208.643 118.657 212.68 120.55 216.169C122.442 219.658 125.49 222.382 129.173 223.874V228.574C124.087 229.981 119.604 233.013 116.409 237.205C113.214 241.398 111.485 246.52 111.484 251.787V360.409H159.727V350.773H182.545V360.409H230.815V350.773H265.481V333.254H295.32V340.7H331.302V343.765H369.04V346.831H417.309V238.21C417.309 232.942 415.579 227.82 412.385 223.628C409.19 219.435 404.707 216.403 399.621 214.996Z" fill="#3787FF"/>
<path d="M215.36 169.02H255.48C265.293 169.02 275.01 170.949 284.076 174.696C293.142 178.444 301.38 183.938 308.319 190.863C315.258 197.789 320.762 206.011 324.517 215.06C328.273 224.108 330.205 233.807 330.205 243.601V344.655H140.639V243.601C140.639 223.821 148.511 204.851 162.524 190.865C176.537 176.878 195.543 169.02 215.36 169.02Z" fill="#2F2E41"/>
<path opacity="0.2" d="M219.748 173.085H251.092C260.905 173.084 270.622 175.013 279.688 178.761C288.754 182.509 296.992 188.002 303.931 194.928C310.869 201.853 316.374 210.075 320.129 219.124C323.884 228.173 325.817 237.871 325.817 247.666V340.586H145.027V247.666C145.027 227.886 152.899 208.916 166.912 194.929C180.925 180.943 199.931 173.085 219.748 173.085Z" fill="black"/>
<path d="M458.119 358.929V366.576C448.05 371.518 436.972 374.066 425.752 374.022H95.2966C92.6637 374.022 90.0543 373.917 87.4682 373.707C78.278 372.984 69.2473 370.897 60.6744 367.513C59.0011 366.853 57.3599 366.144 55.7509 365.385C54.9845 365.026 54.2253 364.656 53.4735 364.277C53.004 364.04 52.5345 363.795 52.0693 363.55C49.2472 362.054 46.5133 360.399 43.8811 358.592V337.822C43.8811 334.465 45.2172 331.245 47.5955 328.871C49.9737 326.498 53.1994 325.164 56.5627 325.164H421.316C424.384 325.17 427.346 326.285 429.653 328.304L453.788 349.416C455.147 350.602 456.237 352.064 456.984 353.705C457.731 355.345 458.118 357.127 458.119 358.929Z" fill="#2F2E41"/>
<path d="M211.801 193.903C202.232 194.533 192.7 195.555 183.204 196.969C180.505 197.372 177.767 197.818 175.305 199.01C173.392 200.01 171.629 201.271 170.066 202.759C163.017 209.062 157.341 216.744 153.391 225.328C150.947 230.65 149.191 236.278 146.888 241.644C138.686 260.806 123.811 276.477 115.153 295.438C113.279 299.542 111.699 303.825 111.072 308.288C110.422 312.905 111.16 318.292 114.96 320.99C116.715 322.23 118.848 322.742 120.936 323.18C147.231 328.992 173.831 333.328 200.611 336.166C197.711 333.372 196.741 329.04 197.123 325.037C197.505 321.034 199.08 317.25 200.633 313.54C185.477 310.202 170.358 306.698 155.278 303.028C153.027 302.481 150.324 301.451 150.047 299.156C149.907 297.987 150.486 296.861 151.056 295.832C157.488 284.207 165.2 273.336 174.05 263.421C174.05 275.711 173.44 289.59 173.44 301.885H315.659C313.948 294.87 312.943 287.703 312.657 280.489C311.995 256.943 319.937 233.576 317.875 210.078C317.682 207.91 317.383 205.676 316.247 203.819C314.285 200.613 310.371 199.286 306.773 198.191C292.977 194.003 278.891 189.768 264.471 190.097C260.184 190.197 255.915 190.697 251.654 191.2C238.669 192.729 224.847 193.04 211.801 193.903Z" fill="#3787FF"/>
<path d="M145.194 335.159L155.55 368.24C155.616 368.45 155.747 368.633 155.925 368.763C156.103 368.893 156.317 368.963 156.537 368.963H200.976L190.444 330.42L146.098 333.823C145.943 333.836 145.794 333.883 145.66 333.961C145.526 334.039 145.412 334.147 145.325 334.275C145.238 334.403 145.181 334.549 145.159 334.702C145.136 334.855 145.148 335.011 145.194 335.159Z" fill="#656478"/>
<path d="M221.161 208.129C219.23 209.237 216.979 209.635 214.785 210.016L200.624 212.469C197.869 212.946 194.968 213.49 192.844 215.307C188.5 219.017 189.439 225.845 190.756 231.399L193.388 242.541C195.372 250.916 197.399 259.391 201.467 266.977C208.571 280.217 221.604 289.753 235.936 294.347C241.057 295.99 246.467 297.058 251.812 296.471C262.282 295.324 271.238 287.874 276.758 278.917C282.278 269.96 284.907 259.571 287.316 249.33C289.629 239.528 291.827 229.586 291.678 219.512C291.634 216.376 291.318 213.1 289.642 210.441C285.969 204.603 277.645 204.165 270.821 205.242C269.759 205.413 268.658 205.597 267.635 205.277C264.564 204.322 264.493 200.113 263.177 197.192C260.689 191.682 253.308 190.705 247.275 191.205C241.241 191.704 231.846 192.348 226.589 195.76C221.534 199.023 227.089 204.717 221.161 208.129Z" fill="#FBBEBE"/>
<path opacity="0.1" d="M221.161 208.129C219.23 209.237 216.979 209.635 214.785 210.016L200.624 212.469C197.869 212.946 194.968 213.49 192.844 215.307C188.5 219.017 189.439 225.845 190.756 231.399L193.388 242.541C195.372 250.916 197.399 259.391 201.467 266.977C208.571 280.217 221.604 289.753 235.936 294.347C241.057 295.99 246.467 297.058 251.812 296.471C262.282 295.324 271.238 287.874 276.758 278.917C282.278 269.96 284.907 259.571 287.316 249.33C289.629 239.528 291.827 229.586 291.678 219.512C291.634 216.376 291.318 213.1 289.642 210.441C285.969 204.603 277.645 204.165 270.821 205.242C269.759 205.413 268.658 205.597 267.635 205.277C264.564 204.322 264.493 200.113 263.177 197.192C260.689 191.682 253.308 190.705 247.275 191.205C241.241 191.704 231.846 192.348 226.589 195.76C221.534 199.023 227.089 204.717 221.161 208.129Z" fill="black"/>
<path d="M209.44 220.681C211.582 225.166 213.188 229.923 215.777 234.167C217.835 237.54 220.472 240.514 223.096 243.47C229.893 251.144 236.778 258.879 245.19 264.721C248.674 246.859 257.089 230.323 269.487 216.98C273.112 213.095 277.649 209.267 282.967 209.412C286.267 209.504 289.313 211.138 292.06 212.955C295.131 214.983 298.036 217.335 300.243 220.257C303.732 224.908 305.237 230.799 305.509 236.602C305.781 242.406 304.877 248.196 303.982 253.934L299.375 283.59C299.107 285.307 298.734 287.203 297.33 288.233C296.532 288.737 295.633 289.06 294.697 289.179C277.947 292.433 260.685 290.322 243.619 290.155C224.75 289.976 205.359 292.122 187.486 286.13C186.552 285.815 185.582 285.451 184.95 284.702C184.535 284.138 184.237 283.496 184.073 282.815C179.908 269.36 183.248 254.902 185.718 241.039C187.674 230.054 189.067 218.976 189.891 207.848C189.966 206.845 201.006 209.061 202.239 209.771C205.596 211.755 207.825 217.3 209.44 220.681Z" fill="#3787FF"/>
<g opacity="0.2">
<path opacity="0.2" d="M73.2244 330.109C73.2244 330.31 73.2025 330.508 73.1806 330.7C71.5072 330.04 69.8661 329.331 68.2571 328.572C67.3976 328.459 66.5982 328.07 65.9797 327.464C65.5101 327.227 65.0406 326.982 64.5755 326.736C64.6808 326.516 64.7995 326.303 64.9309 326.097C65.8349 324.669 67.2083 323.776 68.7222 323.824C70.2361 323.872 71.5482 324.849 72.36 326.325C72.9808 327.487 73.2793 328.793 73.2244 330.109Z" fill="#3F3D56"/>
<path opacity="0.2" d="M73.4614 322.611C73.4315 323.924 73.0513 325.206 72.36 326.325C71.456 327.748 70.0826 328.642 68.5687 328.594L68.2571 328.572C67.3976 328.459 66.5982 328.07 65.9797 327.464C65.5602 327.066 65.2063 326.605 64.9309 326.097C64.3253 324.931 64.0292 323.63 64.0707 322.317C64.1121 321.004 64.4899 319.724 65.1679 318.599C66.0718 317.171 67.4453 316.277 68.9592 316.325C70.4731 316.374 71.7851 317.35 72.597 318.826C73.2178 319.988 73.5163 321.295 73.4614 322.611Z" fill="#3F3D56"/>
<path opacity="0.2" d="M73.6982 315.124C73.8054 311.736 71.7913 308.924 69.1994 308.842C66.6076 308.761 64.4196 311.44 64.3123 314.827C64.2051 318.215 66.2192 321.027 68.8111 321.109C71.4029 321.19 73.5909 318.511 73.6982 315.124Z" fill="#3F3D56"/>
<path opacity="0.2" d="M73.9376 307.625C74.0449 304.238 72.0307 301.426 69.4389 301.344C66.847 301.262 64.659 303.942 64.5518 307.329C64.4445 310.716 66.4587 313.528 69.0505 313.61C71.6424 313.692 73.8304 311.012 73.9376 307.625Z" fill="#3F3D56"/>
<path opacity="0.2" d="M74.1726 300.126C74.2799 296.739 72.2657 293.927 69.6739 293.845C67.082 293.763 64.894 296.443 64.7868 299.83C64.6795 303.218 66.6937 306.03 69.2855 306.112C71.8774 306.193 74.0654 303.514 74.1726 300.126Z" fill="#3F3D56"/>
<path opacity="0.2" d="M53.5352 248.1C52.9172 247.264 52.36 246.386 51.8677 245.472L64.2685 243.838L50.9023 243.523C49.7111 240.702 49.1088 237.669 49.1322 234.609C49.1555 231.548 49.8042 228.524 51.0384 225.723L68.6435 235.551L52.5171 222.92C54.144 220.293 56.2958 218.03 58.8383 216.271C61.3808 214.512 64.2594 213.296 67.2942 212.697C70.329 212.098 73.4548 212.131 76.4765 212.792C79.4982 213.453 82.3508 214.73 84.8561 216.541C87.3615 218.352 89.4658 220.659 91.0376 223.319C92.6094 225.978 93.615 228.933 93.9915 231.997C94.368 235.062 94.1074 238.171 93.2259 241.131C92.3444 244.091 90.861 246.837 88.8683 249.199C89.8285 250.499 90.645 251.898 91.3037 253.373L75.0369 261.187L92.2954 256.005C93.3826 259.583 93.5588 263.376 92.8079 267.039C92.0571 270.702 90.4029 274.121 87.995 276.985C90.5015 280.379 92.0002 284.408 92.3199 288.612C92.6396 292.817 91.7672 297.026 89.8026 300.758C87.838 304.491 84.8606 307.596 81.2108 309.718C77.561 311.841 73.3864 312.895 69.1644 312.761C64.9425 312.626 60.8437 311.308 57.3369 308.958C53.8302 306.607 51.0572 303.319 49.335 299.469C47.6128 295.619 47.0111 291.363 47.5987 287.188C48.1863 283.013 49.9394 279.087 52.6576 275.859C49.664 271.804 48.1231 266.862 48.2822 261.828C48.4414 256.793 50.2915 251.958 53.5352 248.1Z" fill="#3787FF"/>
<path opacity="0.1" d="M93.2474 263.241C93.0927 268.279 91.2372 273.118 87.9817 276.972C90.4915 280.364 91.9938 284.394 92.3166 288.598C92.6394 292.803 91.7696 297.014 89.8069 300.748C87.8441 304.483 84.8677 307.59 81.2181 309.715C77.5686 311.84 73.3934 312.896 69.1705 312.763C64.9475 312.63 60.8474 311.313 57.3394 308.963C53.8313 306.613 51.057 303.324 49.334 299.474C47.611 295.623 47.009 291.366 47.5967 287.19C48.1844 283.014 49.9382 279.087 52.6574 275.859C49.748 271.944 93.3264 260.722 93.2474 263.241Z" fill="black"/>
</g>
<path opacity="0.1" d="M29.8479 166.309C35.0899 166.309 39.3394 162.068 39.3394 156.836C39.3394 151.603 35.0899 147.362 29.8479 147.362C24.6059 147.362 20.3564 151.603 20.3564 156.836C20.3564 162.068 24.6059 166.309 29.8479 166.309Z" fill="#3787FF"/>
<path opacity="0.1" d="M69.4068 113.947C74.6488 113.947 78.8983 109.706 78.8983 104.474C78.8983 99.2415 74.6488 95 69.4068 95C64.1648 95 59.9153 99.2415 59.9153 104.474C59.9153 109.706 64.1648 113.947 69.4068 113.947Z" fill="#3787FF"/>
<path opacity="0.1" d="M66.1903 156.323C74.9754 156.323 82.0972 149.215 82.0972 140.446C82.0972 131.677 74.9754 124.569 66.1903 124.569C57.4052 124.569 50.2834 131.677 50.2834 140.446C50.2834 149.215 57.4052 156.323 66.1903 156.323Z" fill="#3787FF"/>
<path d="M238.274 213.038C258.632 213.038 275.135 196.566 275.135 176.247C275.135 155.928 258.632 139.456 238.274 139.456C217.917 139.456 201.414 155.928 201.414 176.247C201.414 196.566 217.917 213.038 238.274 213.038Z" fill="#FBBEBE"/>
<path d="M223.302 104.053C213.468 105.297 202.854 106.94 195.903 113.991C192.015 117.933 189.738 123.189 187.864 128.392C184.959 136.495 182.796 145.036 183.476 153.634C184.081 161.325 186.934 169.191 184.625 176.558C183.564 179.948 181.479 182.909 179.86 186.067C176.858 191.932 175.446 198.506 174.928 205.071C174.568 209.587 174.638 214.234 176.126 218.513C177.71 223.068 180.799 226.945 182.756 231.351C185.652 237.859 185.942 245.183 186.166 252.3C186.389 259.417 186.578 266.486 186.745 273.578C186.85 278.036 186.859 282.81 184.388 286.529C193.511 282.88 202.761 279.158 210.568 273.201C218.374 267.244 224.693 258.655 225.703 248.897C226.519 240.987 223.842 233.19 221.534 225.578C215.829 206.745 212.143 186.667 216.294 167.435C217.791 160.51 221.429 152.78 228.41 151.505C232.671 150.73 236.923 152.67 240.763 154.676C249.837 159.415 259.193 165.547 262.571 175.196C265.643 183.921 263.059 193.64 259.061 201.97C255.063 210.301 249.622 217.961 246.515 226.669C241.745 240.027 243.088 255.668 251.013 267.437C258.938 279.206 273.581 286.446 287.663 284.545C286.561 279.797 283.108 275.96 281.256 271.449C277.89 263.254 280.159 253.829 283.779 245.743C287.399 237.658 292.34 230.12 294.605 221.535C296.202 215.491 296.395 209.175 296.386 202.925C296.386 193.088 295.899 183.246 294.951 173.453C294.003 163.659 292.555 153.743 289.431 144.322C286.921 136.767 283.266 129.461 277.798 123.666C271.98 117.495 264.406 113.312 256.968 109.213C252.518 106.769 247.972 104.294 242.979 103.379C239.029 102.656 234.878 101.627 230.85 101.561C228.112 101.522 225.233 102.113 223.302 104.053Z" fill="#434175"/>
<path d="M292.678 151.54L268.964 146.947C268.274 146.814 267.606 147.264 267.472 147.952L256.111 206.403C255.977 207.091 256.428 207.758 257.118 207.892L280.832 212.484C281.522 212.618 282.19 212.168 282.324 211.479L293.685 153.029C293.819 152.34 293.368 151.673 292.678 151.54Z" fill="#656478"/>
<path d="M294.471 151.887L270.757 147.295C270.067 147.161 269.399 147.611 269.265 148.3L257.903 206.75C257.769 207.439 258.22 208.105 258.91 208.239L282.624 212.831C283.314 212.965 283.982 212.515 284.116 211.826L295.478 153.376C295.612 152.687 295.161 152.021 294.471 151.887Z" fill="#3F3D56"/>
<path d="M281.807 163.131C282.271 160.745 281.847 158.655 280.859 158.464C279.872 158.273 278.696 160.052 278.232 162.439C277.768 164.825 278.192 166.915 279.18 167.106C280.167 167.297 281.343 165.518 281.807 163.131Z" fill="#3787FF"/>
<path d="M287.421 183.036C286.263 180.991 285.025 178.875 283.073 177.566C281.95 176.878 280.744 176.338 279.483 175.958C275.231 174.473 270.909 172.975 266.411 172.739C265.678 172.704 264.84 172.739 264.362 173.3C263.379 174.451 264.937 176.02 266.284 176.716L277 182.256L267.122 181.214C265.687 181.061 263.642 181.451 263.747 182.887C263.818 183.829 264.853 184.341 265.748 184.639C272.089 186.829 279.417 188.546 282.888 194.275C278.263 193.837 273.537 193.399 269.004 194.415C267.763 194.695 266.477 195.129 265.665 196.106C264.853 197.082 264.761 198.734 265.784 199.509C266.415 199.978 267.267 199.991 268.057 199.947C271.273 199.794 274.573 199.154 277.662 200.07C280.751 200.985 283.494 204.217 282.428 207.248C285.166 207.494 288.404 207.248 290.936 206.07C293.727 204.756 293.661 202.286 293.49 199.307C293.126 193.473 290.225 188.029 287.421 183.036Z" fill="#FBBEBE"/>
<path opacity="0.1" d="M284.652 278.514C282.197 261.278 278.828 244.184 274.56 227.304C272.366 218.544 269.873 209.635 270.501 200.621C279.567 201.773 287.689 202.627 296.044 198.931C296.18 203.665 299.62 207.691 300.871 212.268C301.709 215.334 301.393 218.579 301.722 221.737C302.051 224.895 303.039 227.956 303.886 231.027C308.088 246.241 309.078 262.161 306.795 277.778C299.041 278.698 292.389 279.709 284.652 278.514Z" fill="black"/>
<path d="M283.336 278.514C280.88 261.278 277.511 244.184 273.243 227.304C271.049 218.544 268.557 209.635 269.184 200.621C278.25 201.773 286.373 202.627 294.728 198.931C294.864 203.665 298.304 207.691 299.554 212.268C300.393 215.334 300.077 218.579 300.406 221.737C300.735 224.895 301.722 227.956 302.569 231.027C306.771 246.241 307.762 262.161 305.478 277.778C297.725 278.698 291.072 279.709 283.336 278.514Z" fill="#3787FF"/>
<path d="M156.493 363.825L160.789 257.451C160.858 255.76 161.583 254.162 162.812 252.996C164.041 251.83 165.676 251.188 167.371 251.205L336.981 252.826C337.879 252.835 338.767 253.029 339.586 253.397C340.406 253.765 341.141 254.298 341.745 254.962C342.348 255.627 342.808 256.409 343.094 257.259C343.381 258.11 343.488 259.01 343.409 259.903L334.449 361.811C334.308 363.413 333.578 364.907 332.399 366.004C331.22 367.1 329.675 367.722 328.064 367.75L163.124 370.597C162.236 370.612 161.354 370.446 160.533 370.109C159.711 369.772 158.967 369.271 158.347 368.637C157.726 368.003 157.241 367.249 156.923 366.422C156.604 365.595 156.458 364.711 156.493 363.825Z" fill="#3F3D56"/>
<path d="M251.219 308.301C255.339 308.301 258.679 304.38 258.679 299.542C258.679 294.704 255.339 290.782 251.219 290.782C247.1 290.782 243.76 294.704 243.76 299.542C243.76 304.38 247.1 308.301 251.219 308.301Z" fill="#3787FF"/>
<path d="M410.727 293.524L410.376 296.528L404.672 345.084C389.8 355.434 378.233 345.487 378.132 345.084L370.945 296.3L370.537 293.524H410.727Z" fill="#3F3D56"/>
<path opacity="0.1" d="M410.727 293.524L410.376 296.528C393.622 306.252 375.75 298.683 370.945 296.3L370.537 293.524H410.727Z" fill="black"/>
<path d="M369.698 290.887V295.267C369.698 295.267 391.858 308.126 411.824 295.267V290.887H369.698Z" fill="#3787FF"/>
<path d="M372.274 285.101C372.274 285.101 371.629 288.057 369.698 288.316V292.043H411.824V288.701C411.824 288.701 409.248 288.057 409.63 285.101H372.274Z" fill="#3787FF"/>
<path d="M390.634 290.887C401.128 290.887 409.635 288.44 409.635 285.421C409.635 282.402 401.128 279.955 390.634 279.955C380.14 279.955 371.634 282.402 371.634 285.421C371.634 288.44 380.14 290.887 390.634 290.887Z" fill="#3787FF"/>
<path opacity="0.1" d="M390.634 290.887C401.128 290.887 409.635 288.44 409.635 285.421C409.635 282.402 401.128 279.955 390.634 279.955C380.14 279.955 371.634 282.402 371.634 285.421C371.634 288.44 380.14 290.887 390.634 290.887Z" fill="black"/>
<path opacity="0.1" d="M407.313 285.101C407.313 287.291 400.108 289.087 391.213 289.087H390.739C384.767 289.043 379.607 288.211 376.974 286.967C375.785 286.406 375.109 285.771 375.109 285.101C375.109 283.989 376.952 282.981 379.936 282.258C383.644 281.449 387.432 281.066 391.227 281.115C400.108 281.115 407.313 282.898 407.313 285.101Z" fill="black"/>
<path opacity="0.1" d="M390.739 289.087C384.767 289.043 379.607 288.211 376.974 286.967L379.923 282.241L390.739 289.087Z" fill="black"/>
<path opacity="0.1" d="M373.911 285.408C373.683 285.359 373.38 285.438 373.336 285.666C373.33 285.782 373.361 285.897 373.424 285.995C373.927 286.789 374.658 287.413 375.521 287.786C375.669 287.869 375.832 287.921 376 287.939C376.087 287.95 376.176 287.934 376.254 287.893C376.333 287.852 376.397 287.789 376.439 287.711C376.463 287.645 376.473 287.575 376.467 287.505C376.462 287.434 376.442 287.366 376.408 287.304C376.274 287.067 376.088 286.864 375.864 286.709C375.276 286.249 374.675 285.535 373.911 285.408Z" fill="black"/>
<path d="M391.275 332.224C397.535 332.224 402.609 327.159 402.609 320.911C402.609 314.663 397.535 309.598 391.275 309.598C385.015 309.598 379.94 314.663 379.94 320.911C379.94 327.159 385.015 332.224 391.275 332.224Z" fill="#3787FF"/>
<path d="M82.6413 320.937H87.9553C90.8648 320.937 93.6551 322.091 95.7125 324.145C97.7698 326.198 98.9256 328.983 98.9256 331.887V348.159H71.671V331.887C71.671 328.983 72.8268 326.198 74.8841 324.145C76.9415 322.091 79.7318 320.937 82.6413 320.937Z" fill="#3F3D56"/>
<path opacity="0.1" d="M82.6413 320.937H87.9553C90.8648 320.937 93.6551 322.091 95.7125 324.145C97.7698 326.198 98.9256 328.983 98.9256 331.887V348.159H71.671V331.887C71.671 328.983 72.8268 326.198 74.8841 324.145C76.9415 322.091 79.7318 320.937 82.6413 320.937Z" fill="black"/>
<path d="M84.2079 326.925C85.4123 326.925 86.3888 325.95 86.3888 324.748C86.3888 323.546 85.4123 322.571 84.2079 322.571C83.0034 322.571 82.027 323.546 82.027 324.748C82.027 325.95 83.0034 326.925 84.2079 326.925Z" fill="#3F3D56"/>
<path d="M84.2079 324.205C85.4123 324.205 86.3888 323.23 86.3888 322.028C86.3888 320.826 85.4123 319.851 84.2079 319.851C83.0034 319.851 82.027 320.826 82.027 322.028C82.027 323.23 83.0034 324.205 84.2079 324.205Z" fill="#3F3D56"/>
<path d="M84.2079 321.481C85.4123 321.481 86.3888 320.506 86.3888 319.304C86.3888 318.102 85.4123 317.127 84.2079 317.127C83.0034 317.127 82.027 318.102 82.027 319.304C82.027 320.506 83.0034 321.481 84.2079 321.481Z" fill="#3F3D56"/>
<path d="M84.2079 318.761C85.4123 318.761 86.3888 317.786 86.3888 316.584C86.3888 315.382 85.4123 314.407 84.2079 314.407C83.0034 314.407 82.027 315.382 82.027 316.584C82.027 317.786 83.0034 318.761 84.2079 318.761Z" fill="#3F3D56"/>
<path d="M84.2079 316.041C85.4123 316.041 86.3888 315.066 86.3888 313.864C86.3888 312.662 85.4123 311.687 84.2079 311.687C83.0034 311.687 82.027 312.662 82.027 313.864C82.027 315.066 83.0034 316.041 84.2079 316.041Z" fill="#3F3D56"/>
<path d="M84.2079 313.321C85.4123 313.321 86.3888 312.346 86.3888 311.144C86.3888 309.942 85.4123 308.967 84.2079 308.967C83.0034 308.967 82.027 309.942 82.027 311.144C82.027 312.346 83.0034 313.321 84.2079 313.321Z" fill="#3F3D56"/>
<path d="M84.2079 310.601C85.4123 310.601 86.3888 309.626 86.3888 308.424C86.3888 307.222 85.4123 306.247 84.2079 306.247C83.0034 306.247 82.027 307.222 82.027 308.424C82.027 309.626 83.0034 310.601 84.2079 310.601Z" fill="#3F3D56"/>
<path d="M87.4814 311.687C88.6859 311.687 89.6623 310.712 89.6623 309.51C89.6623 308.308 88.6859 307.333 87.4814 307.333C86.2769 307.333 85.3005 308.308 85.3005 309.51C85.3005 310.712 86.2769 311.687 87.4814 311.687Z" fill="#3F3D56"/>
<path d="M89.6623 310.601C90.8668 310.601 91.8432 309.626 91.8432 308.424C91.8432 307.222 90.8668 306.247 89.6623 306.247C88.4578 306.247 87.4814 307.222 87.4814 308.424C87.4814 309.626 88.4578 310.601 89.6623 310.601Z" fill="#3F3D56"/>
<path d="M91.8432 309.51C93.0477 309.51 94.0241 308.536 94.0241 307.333C94.0241 306.131 93.0477 305.157 91.8432 305.157C90.6387 305.157 89.6623 306.131 89.6623 307.333C89.6623 308.536 90.6387 309.51 91.8432 309.51Z" fill="#3F3D56"/>
<path d="M84.2079 307.881C85.4123 307.881 86.3888 306.906 86.3888 305.704C86.3888 304.502 85.4123 303.527 84.2079 303.527C83.0034 303.527 82.027 304.502 82.027 305.704C82.027 306.906 83.0034 307.881 84.2079 307.881Z" fill="#3F3D56"/>
<path d="M84.2079 305.161C85.4123 305.161 86.3888 304.186 86.3888 302.984C86.3888 301.782 85.4123 300.807 84.2079 300.807C83.0034 300.807 82.027 301.782 82.027 302.984C82.027 304.186 83.0034 305.161 84.2079 305.161Z" fill="#3F3D56"/>
<path d="M84.2079 302.437C85.4123 302.437 86.3888 301.462 86.3888 300.26C86.3888 299.058 85.4123 298.083 84.2079 298.083C83.0034 298.083 82.027 299.058 82.027 300.26C82.027 301.462 83.0034 302.437 84.2079 302.437Z" fill="#3F3D56"/>
<path d="M84.2079 299.717C85.4123 299.717 86.3888 298.742 86.3888 297.54C86.3888 296.338 85.4123 295.363 84.2079 295.363C83.0034 295.363 82.027 296.338 82.027 297.54C82.027 298.742 83.0034 299.717 84.2079 299.717Z" fill="#3F3D56"/>
<path d="M93.2474 290.523C92.7077 290.602 92.1635 290.659 91.6194 290.694C92.1271 290.251 92.5982 289.768 93.028 289.249C92.7244 288.335 92.2802 287.473 91.7115 286.695C91.171 286.998 90.5733 287.186 89.9563 287.247C89.4166 287.326 88.8724 287.383 88.3283 287.422C89.0436 286.84 89.7106 285.964 90.4127 285.232C88.7901 283.764 86.6982 282.917 84.5092 282.844C82.3202 282.77 80.1758 283.473 78.4575 284.829C76.7392 286.184 75.5583 288.105 75.1248 290.247C74.6914 292.39 75.0334 294.617 76.0902 296.532C77.147 298.447 78.8499 299.926 80.8962 300.705C82.9426 301.485 85.1995 301.515 87.2659 300.79C89.3322 300.065 91.0738 298.632 92.1811 296.745C93.2884 294.859 93.6896 292.642 93.3132 290.488L93.2474 290.523Z" fill="#3787FF"/>
<path d="M100.536 301.337C99.9796 301.678 99.3519 301.887 98.7018 301.946C98.162 302.025 97.6179 302.086 97.0738 302.121C97.6521 301.604 98.1918 301.044 98.6886 300.448C97.3737 300.106 95.9782 300.266 94.775 300.896C93.5717 301.526 92.6472 302.582 92.1822 303.856C91.7172 305.13 91.7451 306.532 92.2605 307.787C92.7758 309.042 93.7416 310.06 94.969 310.642C96.1964 311.224 97.5972 311.328 98.8974 310.934C100.198 310.54 101.304 309.676 102 308.511C102.696 307.346 102.932 305.964 102.661 304.635C102.39 303.306 101.632 302.125 100.536 301.324V301.337Z" fill="#3787FF"/>
<path d="M80.9387 311.687C82.1432 311.687 83.1196 310.712 83.1196 309.51C83.1196 308.308 82.1432 307.333 80.9387 307.333C79.7342 307.333 78.7578 308.308 78.7578 309.51C78.7578 310.712 79.7342 311.687 80.9387 311.687Z" fill="#3F3D56"/>
<path d="M78.7578 310.601C79.9623 310.601 80.9387 309.626 80.9387 308.424C80.9387 307.222 79.9623 306.247 78.7578 306.247C77.5534 306.247 76.5769 307.222 76.5769 308.424C76.5769 309.626 77.5534 310.601 78.7578 310.601Z" fill="#3F3D56"/>
<path d="M76.577 309.51C77.7814 309.51 78.7579 308.536 78.7579 307.333C78.7579 306.131 77.7814 305.157 76.577 305.157C75.3725 305.157 74.3961 306.131 74.3961 307.333C74.3961 308.536 75.3725 309.51 76.577 309.51Z" fill="#3F3D56"/>
<path d="M67.8841 301.337C68.4402 301.679 69.068 301.887 69.7183 301.946C70.2581 302.025 70.8022 302.086 71.3463 302.121C70.7669 301.605 70.2271 301.045 69.7315 300.448C71.0464 300.106 72.4419 300.266 73.6451 300.896C74.8484 301.526 75.7729 302.582 76.2379 303.856C76.7029 305.13 76.675 306.532 76.1597 307.787C75.6443 309.042 74.6785 310.06 73.4511 310.642C72.2237 311.224 70.8229 311.328 69.5227 310.934C68.2225 310.54 67.1162 309.676 66.4202 308.511C65.7243 307.346 65.4886 305.964 65.7593 304.635C66.03 303.306 66.7877 302.125 67.8841 301.324V301.337Z" fill="#3787FF"/>
<path d="M82.6413 322.571H87.9553C90.8648 322.571 93.6551 323.725 95.7125 325.778C97.7698 327.832 98.9256 330.617 98.9256 333.521V347.918C98.9256 348.41 98.7296 348.883 98.3806 349.231C98.0317 349.579 97.5585 349.775 97.065 349.775H73.5316C73.0381 349.775 72.5649 349.579 72.216 349.231C71.867 348.883 71.671 348.41 71.671 347.918V333.521C71.671 330.617 72.8268 327.832 74.8841 325.778C76.9415 323.725 79.7318 322.571 82.6413 322.571Z" fill="#3F3D56"/>
<g opacity="0.1">
<path opacity="0.1" d="M93.4141 291.119C93.1933 291.354 92.9589 291.577 92.712 291.785C92.9622 291.785 93.2079 291.745 93.458 291.719C93.4668 291.518 93.4361 291.316 93.4141 291.119Z" fill="black"/>
<path opacity="0.1" d="M89.4385 288.517C89.987 288.482 90.5267 288.425 91.0709 288.347C91.559 288.285 92.0361 288.155 92.4882 287.961C92.2673 287.523 92.012 287.102 91.7247 286.704C91.4518 286.87 91.1561 286.995 90.8471 287.076C90.4168 287.593 89.9458 288.075 89.4385 288.517Z" fill="black"/>
<path opacity="0.1" d="M76.0328 293.191C76.0296 291.53 76.475 289.899 77.3223 288.47C78.1696 287.041 79.3873 285.867 80.8472 285.071C82.3071 284.274 83.9551 283.886 85.6177 283.946C87.2803 284.006 88.8958 284.512 90.2942 285.412L90.4346 285.263C89.522 284.453 88.4577 283.83 87.3031 283.432C86.1484 283.034 84.9263 282.868 83.707 282.943C82.4878 283.019 81.2956 283.334 80.199 283.872C79.1025 284.409 78.1234 285.158 77.3181 286.075C76.5127 286.992 75.8971 288.058 75.5067 289.214C75.1163 290.369 74.9587 291.59 75.0432 292.806C75.1277 294.023 75.4525 295.211 75.9989 296.301C76.5453 297.392 77.3025 298.363 78.2269 299.161C76.8077 297.494 76.0299 295.378 76.0328 293.191Z" fill="black"/>
</g>
<g opacity="0.1">
<path opacity="0.1" d="M97.0738 303.208C97.6179 303.173 98.162 303.116 98.7018 303.037C99.3522 302.976 99.9798 302.766 100.536 302.424C101.152 302.876 101.666 303.454 102.044 304.118C102.422 304.782 102.656 305.518 102.73 306.278C102.751 306.087 102.762 305.896 102.761 305.704C102.765 304.853 102.568 304.014 102.187 303.253C101.806 302.492 101.251 301.831 100.567 301.324C100.01 301.665 99.3827 301.873 98.7325 301.933L98.2937 301.99C97.9192 302.427 97.5114 302.834 97.0738 303.208Z" fill="black"/>
<path opacity="0.1" d="M97.2932 301.351C97.4752 301.353 97.6569 301.366 97.8373 301.39C98.1226 301.088 98.4034 300.764 98.6886 300.448C97.8819 300.233 97.0364 300.206 96.2176 300.37C95.3988 300.533 94.6287 300.882 93.9668 301.391C93.305 301.899 92.7692 302.552 92.4009 303.3C92.0327 304.048 91.8418 304.871 91.8432 305.704C91.8432 305.888 91.8432 306.068 91.8695 306.247C92.0044 304.905 92.6341 303.661 93.6363 302.756C94.6385 301.851 95.9418 301.35 97.2932 301.351Z" fill="black"/>
</g>
<g opacity="0.1">
<path opacity="0.1" d="M71.3463 303.208C70.8022 303.173 70.258 303.116 69.7183 303.037C69.0677 302.976 68.4399 302.767 67.8841 302.424C67.268 302.876 66.7542 303.454 66.3762 304.118C65.9982 304.782 65.7644 305.518 65.69 306.278C65.6687 306.087 65.6585 305.896 65.6593 305.704C65.6552 304.853 65.8516 304.014 66.2328 303.253C66.6139 302.492 67.1691 301.831 67.8534 301.324C68.4095 301.666 69.0373 301.874 69.6876 301.933L70.1264 301.99C70.4985 302.429 70.9065 302.836 71.3463 303.208Z" fill="black"/>
<path opacity="0.1" d="M71.1269 301.351C70.9434 301.353 70.7603 301.366 70.5784 301.39C70.2975 301.088 70.0167 300.764 69.7315 300.448C70.5382 300.233 71.3837 300.206 72.2025 300.37C73.0213 300.533 73.7914 300.882 74.4533 301.391C75.1151 301.899 75.6509 302.552 76.0192 303.3C76.3874 304.048 76.5783 304.871 76.5769 305.704C76.5769 305.888 76.5769 306.068 76.5506 306.247C76.4157 304.905 75.786 303.661 74.7838 302.756C73.7816 301.851 72.4783 301.35 71.1269 301.351Z" fill="black"/>
</g>
<path fill-rule="evenodd" clip-rule="evenodd" d="M369.826 96.0088L413.69 106.053C418.536 107.162 421.564 111.989 420.455 116.834L412.419 151.926C411.31 156.771 406.483 159.8 401.638 158.69L357.773 148.647C352.928 147.537 349.899 142.71 351.009 137.865L359.044 102.773C360.153 97.9278 364.98 94.8994 369.826 96.0088ZM369.825 111.49L377.495 123.715L365.27 131.385L367.661 135.197L383.698 125.136L373.637 109.099L369.825 111.49ZM372.576 142.803L395.239 147.992L396.244 143.606L373.58 138.417L372.576 142.803Z" fill="#3787FF" fill-opacity="0.41"/>
<path fill-rule="evenodd" clip-rule="evenodd" d="M197.104 32.5702C197.005 33.4329 196.812 34.2819 196.528 35.1019L179.686 83.6608C177.507 89.9438 170.607 93.2568 164.275 91.0605C157.942 88.8643 154.575 81.9905 156.754 75.7075C158.934 69.4244 165.834 66.1115 172.166 68.3077C174.257 69.0329 176.024 70.2682 177.376 71.8237L189.115 37.9571C189.833 35.888 188.724 33.6243 186.638 32.901C186.372 32.8088 186.098 32.7447 185.818 32.7098L150.838 28.3373C148.968 28.1036 147.195 29.1988 146.582 30.9654L129.877 79.1305C127.698 85.4135 120.798 88.7265 114.466 86.5302C108.133 84.334 104.767 77.4602 106.946 71.1772C109.125 64.8942 116.025 61.5812 122.357 63.7774C124.448 64.5026 126.216 65.7379 127.567 67.2934L142.719 23.588C144.546 18.32 149.815 15.0379 155.394 15.6927L186.548 19.349C193.122 20.1206 197.848 26.0399 197.104 32.5702Z" fill="#3787FF" fill-opacity="0.41"/>
<path fill-rule="evenodd" clip-rule="evenodd" d="M120.073 142.27C123.164 140.872 126.777 142.186 128.143 145.205L138.035 167.072C139.401 170.091 138.002 173.672 134.911 175.07L106.927 187.73C103.836 189.128 100.223 187.814 98.8571 184.795L88.9652 162.928C87.5994 159.909 88.998 156.328 92.089 154.93L120.073 142.27ZM116.423 161.118L115.905 170.643C115.859 171.493 115.216 171.802 114.509 171.36L110.161 168.639C109.249 168.332 108.221 168.896 108.005 169.822L104.987 182.711C104.701 183.93 105.965 184.872 107.16 184.332L133.604 172.369C134.746 171.852 134.928 170.374 133.928 169.729L118.931 160.05C117.986 159.441 116.644 160.013 116.423 161.118ZM98.7596 158.497C96.4413 159.546 95.3924 162.232 96.4167 164.496C97.4411 166.761 100.151 167.746 102.469 166.697C104.787 165.649 105.836 162.963 104.812 160.699C103.788 158.434 101.078 157.449 98.7596 158.497Z" fill="#3787FF" fill-opacity="0.41"/>
<path fill-rule="evenodd" clip-rule="evenodd" d="M489.668 190.557C497.205 188.575 505.351 194.848 510.709 204.638C515.981 214.272 516.504 223.651 509.771 225.422C507.103 226.124 504.468 225.822 501.066 224.72C500.46 224.523 499.831 224.303 499.06 224.022C498.656 223.874 497.273 223.361 497.075 223.288C491.669 221.298 488.555 220.77 484.846 221.746C480.304 222.94 477.805 224.999 474.825 229.131C474.721 229.275 473.443 231.079 473.059 231.599C470.551 234.992 468.319 236.749 464.803 237.38C458.079 238.583 453.987 230.135 453.898 219.298C453.807 208.262 457.872 198.92 465.41 196.938C466.698 196.599 467.993 196.612 469.506 196.888C469.957 196.971 470.421 197.075 470.981 197.214C471.293 197.292 472.364 197.57 472.396 197.578C475.122 198.275 476.73 198.414 478.633 197.914C480.466 197.432 481.75 196.543 483.806 194.576C484.262 194.137 484.521 193.888 484.729 193.69C485.094 193.345 485.402 193.064 485.706 192.801C487.028 191.662 488.243 190.932 489.668 190.557ZM473.47 222.38C478.967 220.934 482.329 215.472 480.933 210.167C479.538 204.862 473.924 201.762 468.427 203.207C462.925 204.655 459.568 210.112 460.964 215.42C462.36 220.727 467.968 223.827 473.47 222.38ZM472.516 218.753C469.023 219.671 465.51 217.73 464.648 214.451C463.785 211.172 465.888 207.753 469.381 206.835C472.869 205.917 476.388 207.861 477.25 211.136C478.111 214.412 476.004 217.835 472.516 218.753ZM471.697 216.143C473.567 215.651 474.705 213.798 474.238 212.026C473.765 210.225 471.864 209.177 469.994 209.669C468.118 210.162 466.979 212.01 467.453 213.811C467.919 215.583 469.821 216.637 471.697 216.143ZM488.701 211.698C490.571 211.206 491.707 209.348 491.238 207.562C490.761 205.749 488.858 204.693 486.988 205.184C485.112 205.678 483.975 207.534 484.452 209.347C484.922 211.132 486.825 212.191 488.701 211.698ZM496.402 215.897C498.272 215.405 499.409 213.549 498.934 211.746C498.461 209.945 496.557 208.887 494.687 209.379C492.811 209.872 491.675 211.73 492.149 213.531C492.623 215.334 494.526 216.39 496.402 215.897ZM493.329 204.229C495.205 203.735 496.339 201.877 495.864 200.072C495.39 198.271 493.488 197.209 491.613 197.702C489.732 198.197 488.604 200.056 489.078 201.857C489.553 203.662 491.448 204.723 493.329 204.229ZM500.926 208.477C502.812 207.981 503.945 206.12 503.476 204.335C502.999 202.524 501.099 201.467 499.213 201.963C497.351 202.453 496.214 204.309 496.69 206.12C497.159 207.905 499.064 208.967 500.926 208.477Z" fill="#3787FF" fill-opacity="0.41"/>
<path fill-rule="evenodd" clip-rule="evenodd" d="M63.9549 213.808C74.8236 213.32 80.7451 215.873 81.7193 221.466L78.3984 255.347C76.1285 251.71 69.7546 249.29 59.2768 248.086C58.305 247.975 57.6023 247.105 57.6977 246.131L60.5493 217.039C60.7233 215.265 62.1744 213.888 63.9549 213.808Z" fill="#3787FF" fill-opacity="0.41"/>
<path fill-rule="evenodd" clip-rule="evenodd" d="M107.765 218.103C97.1982 215.513 90.8938 216.867 88.8521 222.165L85.5311 256.046C88.464 252.919 95.1865 251.783 105.699 252.636C106.674 252.716 107.532 251.999 107.627 251.025L110.479 221.933C110.653 220.159 109.496 218.527 107.765 218.103Z" fill="#3787FF" fill-opacity="0.41"/>
<path fill-rule="evenodd" clip-rule="evenodd" d="M398.713 201.868C401.991 200.647 405.634 202.303 406.85 205.568L416.759 232.166C417.975 235.431 416.304 239.067 413.026 240.288L389.287 249.132C386.009 250.353 382.366 248.697 381.15 245.432L371.241 218.834C370.025 215.569 371.696 211.933 374.974 210.712L398.713 201.868ZM387.468 239.713L384.5 240.819C383.681 241.124 383.263 242.033 383.567 242.849L384.118 244.327C384.726 245.959 386.547 246.787 388.186 246.177L389.67 245.624C390.489 245.319 390.907 244.41 390.603 243.594L389.502 240.638C389.198 239.822 388.287 239.408 387.468 239.713ZM411.207 230.869L408.24 231.975C407.42 232.28 407.002 233.189 407.306 234.005L408.407 236.961C408.711 237.777 409.622 238.191 410.442 237.885L411.925 237.333C413.564 236.722 414.4 234.904 413.792 233.272L413.241 231.794C412.937 230.978 412.026 230.564 411.207 230.869ZM384.165 230.847L381.197 231.953C380.378 232.258 379.96 233.167 380.264 233.983L381.365 236.938C381.669 237.754 382.58 238.169 383.399 237.863L386.367 236.758C387.186 236.453 387.604 235.543 387.3 234.727L386.199 231.772C385.895 230.956 384.984 230.542 384.165 230.847ZM407.904 222.003L404.937 223.108C404.117 223.414 403.699 224.323 404.003 225.139L405.104 228.094C405.408 228.91 406.319 229.325 407.139 229.019L410.106 227.914C410.925 227.608 411.343 226.699 411.039 225.883L409.938 222.928C409.634 222.112 408.723 221.698 407.904 222.003ZM380.861 221.981L377.894 223.086C377.075 223.392 376.657 224.301 376.961 225.117L378.062 228.072C378.366 228.888 379.277 229.302 380.096 228.997L383.063 227.892C383.883 227.586 384.301 226.677 383.997 225.861L382.896 222.906C382.592 222.09 381.681 221.675 380.861 221.981ZM404.601 213.137L401.633 214.242C400.814 214.547 400.396 215.457 400.7 216.273L401.801 219.228C402.105 220.044 403.016 220.458 403.835 220.153L406.803 219.047C407.622 218.742 408.04 217.833 407.736 217.017L406.635 214.062C406.331 213.245 405.42 212.831 404.601 213.137ZM377.558 213.115L376.075 213.667C374.436 214.278 373.6 216.096 374.208 217.728L374.759 219.206C375.063 220.022 375.974 220.436 376.793 220.131L379.76 219.025C380.58 218.72 380.998 217.811 380.694 216.995L379.593 214.039C379.288 213.223 378.378 212.809 377.558 213.115ZM399.814 204.823L398.33 205.376C397.511 205.681 397.093 206.59 397.397 207.406L398.498 210.362C398.802 211.178 399.713 211.592 400.532 211.287L403.5 210.181C404.319 209.876 404.737 208.967 404.433 208.151L403.882 206.673C403.274 205.041 401.453 204.213 399.814 204.823Z" fill="#3787FF" fill-opacity="0.41"/>
<path fill-rule="evenodd" clip-rule="evenodd" d="M282.482 77.9282C267.857 68.0073 264.042 48.1082 273.963 33.4824C283.884 18.8566 303.783 15.0425 318.409 24.9634C333.035 34.8843 336.849 54.7833 326.928 69.4092C317.007 84.035 297.108 87.8491 282.482 77.9282ZM294.771 47.5965L306.121 55.2951C307.165 56.0037 308.587 55.7313 309.295 54.6866C310.004 53.6419 311.425 53.3694 312.47 54.0781L314.362 55.3612C314.777 55.6431 315.288 55.7483 315.781 55.6538C316.808 55.4569 317.481 54.4647 317.284 53.4377L313.707 34.7746C313.469 33.5348 312.272 32.7224 311.032 32.96L292.369 36.5372C291.876 36.6318 291.44 36.9184 291.158 37.334C290.571 38.1994 290.797 39.3769 291.662 39.964L293.554 41.2471C294.599 41.9557 294.871 43.3771 294.162 44.4218C293.454 45.4665 293.726 46.8878 294.771 47.5965ZM289.639 55.1629L300.988 62.8615C302.033 63.5701 303.454 63.2977 304.163 62.253C304.872 61.2083 304.599 59.7869 303.554 59.0783L292.205 51.3797C291.16 50.671 289.739 50.9435 289.03 51.9882C288.321 53.0329 288.594 54.4542 289.639 55.1629ZM284.506 62.7293L295.856 70.4279C296.9 71.1365 298.322 70.8641 299.03 69.8194C299.739 68.7747 299.467 67.3533 298.422 66.6447L287.072 58.9461C286.028 58.2374 284.606 58.5099 283.898 59.5546C283.189 60.5993 283.461 62.0206 284.506 62.7293Z" fill="#3787FF" fill-opacity="0.41"/>
</svg>
