<svg width="306" height="174" viewBox="0 0 306 174" fill="none" xmlns="http://www.w3.org/2000/svg">
<g clip-path="url(#clip0)">
<path opacity="0.1" d="M306 111.683C306.004 116.41 305.387 121.114 304.168 125.663C302.989 130.049 301.256 134.247 299.013 138.144C299.013 152.266 289.967 164.47 276.836 170.277C271.35 172.679 265.464 173.905 259.522 173.885H58.0892C47.323 173.885 37.3459 170.824 29.1636 165.609C26.8219 164.124 24.6005 162.437 22.522 160.567C13.4276 152.33 7.78909 140.949 7.78909 128.378C2.68502 120.096 -0.021388 110.427 -3.95265e-06 100.552C-3.95265e-06 79.8746 11.6061 62.0947 28.2328 54.2448C30.4406 53.2029 32.722 52.3434 35.0563 51.6742C35.8819 51.4374 36.7164 51.2251 37.5599 51.0371C39.8084 50.5326 42.089 50.2028 44.3834 50.0506C45.2126 49.9961 46.0462 49.9651 46.8843 49.9576H47.3444C48.2699 49.9576 49.1874 49.9914 50.0995 50.0478L50.3991 49.5123C50.7664 48.8659 51.1427 48.226 51.5278 47.5928C52.2233 46.439 52.9526 45.3022 53.7158 44.1822C54.5147 43.0003 55.3484 41.8371 56.2168 40.6927L56.4388 40.4109C56.931 39.7645 57.4338 39.1256 57.9474 38.4942C59.5523 36.523 61.2464 34.6111 63.0296 32.7583C82.3177 12.8362 112.535 0.0113831 146.506 0.0113831C172.938 0.0113831 197.1 7.77672 215.607 20.6072C222.618 16.4262 230.538 14.2323 238.594 14.2399C264.738 14.2399 285.939 36.8932 285.939 64.8372C285.935 66.6053 285.846 68.372 285.671 70.1306C291.973 74.8315 297.11 81.0606 300.648 88.2924C304.186 95.5243 306.022 103.547 306 111.683Z" fill="#3787FF"/>
<path opacity="0.2" d="M63.0349 32.7469V38.4828H57.9528C59.5452 36.5135 61.2392 34.6016 63.0349 32.7469Z" fill="#3787FF"/>
<path opacity="0.2" d="M72.362 31.2925H65.5386V38.4828H72.362V31.2925Z" fill="#3787FF"/>
<path opacity="0.2" d="M81.6865 31.2925H74.863V38.4828H81.6865V31.2925Z" fill="#3787FF"/>
<path opacity="0.2" d="M91.0136 31.2925H84.1901V38.4828H91.0136V31.2925Z" fill="#3787FF"/>
<path opacity="0.2" d="M100.338 31.2925H93.5146V38.4828H100.338V31.2925Z" fill="#3787FF"/>
<path opacity="0.2" d="M109.665 31.2925H102.842V38.4828H109.665V31.2925Z" fill="#3787FF"/>
<path d="M118.992 31.2925H112.169V38.4828H118.992V31.2925Z" fill="#3787FF"/>
<path opacity="0.2" d="M128.317 31.2925H121.493V38.4828H128.317V31.2925Z" fill="#3787FF"/>
<path opacity="0.2" d="M137.644 31.2925H130.82V38.4828H137.644V31.2925Z" fill="#3787FF"/>
<path opacity="0.2" d="M146.968 31.2925H140.145V38.4828H146.968V31.2925Z" fill="#3787FF"/>
<path d="M156.295 31.2925H149.472V38.4828H156.295V31.2925Z" fill="#3787FF"/>
<path opacity="0.2" d="M165.622 31.2925H158.799V38.4828H165.622V31.2925Z" fill="#3787FF"/>
<path opacity="0.2" d="M174.947 31.2925H168.123V38.4828H174.947V31.2925Z" fill="#3787FF"/>
<path opacity="0.2" d="M184.274 31.2925H177.451V38.4828H184.274V31.2925Z" fill="#3787FF"/>
<path opacity="0.2" d="M193.601 31.2925H186.778V38.4828H193.601V31.2925Z" fill="#3787FF"/>
<path opacity="0.2" d="M202.926 31.2925H196.102V38.4828H202.926V31.2925Z" fill="#3787FF"/>
<path opacity="0.2" d="M212.253 31.2925H205.429V38.4828H212.253V31.2925Z" fill="#3787FF"/>
<path d="M221.577 31.2925H214.754V38.4828H221.577V31.2925Z" fill="#3787FF"/>
<path d="M230.904 31.2925H224.081V38.4828H230.904V31.2925Z" fill="#3787FF"/>
<path opacity="0.2" d="M240.231 31.2925H233.408V38.4828H240.231V31.2925Z" fill="#3787FF"/>
<path opacity="0.2" d="M249.556 31.2925H242.732V38.4828H249.556V31.2925Z" fill="#3787FF"/>
<path d="M258.883 31.2925H252.059V38.4828H258.883V31.2925Z" fill="#3787FF"/>
<path d="M268.207 31.2925H261.384V38.4828H268.207V31.2925Z" fill="#3787FF"/>
<path d="M53.7105 44.1793V47.5898H51.5225C52.2179 46.4285 52.9473 45.2917 53.7105 44.1793Z" fill="#3787FF"/>
<path opacity="0.2" d="M63.0349 40.3995H56.2114V47.5898H63.0349V40.3995Z" fill="#3787FF"/>
<path d="M72.362 40.3995H65.5386V47.5898H72.362V40.3995Z" fill="#3787FF"/>
<path opacity="0.2" d="M81.6865 40.3995H74.863V47.5898H81.6865V40.3995Z" fill="#3787FF"/>
<path opacity="0.7" d="M91.0136 40.3995H84.1901V47.5898H91.0136V40.3995Z" fill="#3787FF"/>
<path opacity="0.2" d="M100.338 40.3995H93.5146V47.5898H100.338V40.3995Z" fill="#3787FF"/>
<path opacity="0.4" d="M109.665 40.3995H102.842V47.5898H109.665V40.3995Z" fill="#3787FF"/>
<path d="M118.992 40.3995H112.169V47.5898H118.992V40.3995Z" fill="#3787FF"/>
<path opacity="0.4" d="M128.317 40.3995H121.493V47.5898H128.317V40.3995Z" fill="#3787FF"/>
<path opacity="0.2" d="M137.644 40.3995H130.82V47.5898H137.644V40.3995Z" fill="#3787FF"/>
<path opacity="0.4" d="M146.968 40.3995H140.145V47.5898H146.968V40.3995Z" fill="#3787FF"/>
<path d="M156.295 40.3995H149.472V47.5898H156.295V40.3995Z" fill="#3787FF"/>
<path opacity="0.4" d="M165.622 40.3995H158.799V47.5898H165.622V40.3995Z" fill="#3787FF"/>
<path opacity="0.4" d="M174.947 40.3995H168.123V47.5898H174.947V40.3995Z" fill="#3787FF"/>
<path opacity="0.2" d="M184.274 40.3995H177.451V47.5898H184.274V40.3995Z" fill="#3787FF"/>
<path opacity="0.4" d="M193.601 40.3995H186.778V47.5898H193.601V40.3995Z" fill="#3787FF"/>
<path opacity="0.4" d="M202.926 40.3995H196.102V47.5898H202.926V40.3995Z" fill="#3787FF"/>
<path opacity="0.2" d="M212.253 40.3995H205.429V47.5898H212.253V40.3995Z" fill="#3787FF"/>
<path opacity="0.2" d="M221.577 40.3995H214.754V47.5898H221.577V40.3995Z" fill="#3787FF"/>
<path opacity="0.4" d="M230.904 40.3995H224.081V47.5898H230.904V40.3995Z" fill="#3787FF"/>
<path opacity="0.2" d="M240.231 40.3995H233.408V47.5898H240.231V40.3995Z" fill="#3787FF"/>
<path d="M249.556 40.3995H242.732V47.5898H249.556V40.3995Z" fill="#3787FF"/>
<path d="M258.883 40.3995H252.059V47.5898H258.883V40.3995Z" fill="#3787FF"/>
<path d="M268.207 40.3995H261.384V47.5898H268.207V40.3995Z" fill="#3787FF"/>
<path opacity="0.2" d="M35.0562 51.6741V56.6997H28.2328V54.2447C30.4406 53.2028 32.722 52.3433 35.0562 51.6741Z" fill="#3787FF"/>
<path opacity="0.2" d="M44.3834 50.0505V56.6997H37.5599V51.0371L44.3834 50.0505Z" fill="#3787FF"/>
<path d="M53.7078 49.5093H46.8843V56.6997H53.7078V49.5093Z" fill="#3787FF"/>
<path opacity="0.7" d="M63.0349 49.5093H56.2114V56.6997H63.0349V49.5093Z" fill="#3787FF"/>
<path d="M72.362 49.5093H65.5386V56.6997H72.362V49.5093Z" fill="#3787FF"/>
<path opacity="0.7" d="M81.6865 49.5093H74.863V56.6997H81.6865V49.5093Z" fill="#3787FF"/>
<path opacity="0.7" d="M91.0136 49.5093H84.1901V56.6997H91.0136V49.5093Z" fill="#3787FF"/>
<path opacity="0.2" d="M100.338 49.5093H93.5146V56.6997H100.338V49.5093Z" fill="#3787FF"/>
<path opacity="0.4" d="M109.665 49.5093H102.842V56.6997H109.665V49.5093Z" fill="#3787FF"/>
<path opacity="0.4" d="M118.992 49.5093H112.169V56.6997H118.992V49.5093Z" fill="#3787FF"/>
<path d="M128.317 49.5093H121.493V56.6997H128.317V49.5093Z" fill="#3787FF"/>
<path opacity="0.2" d="M137.644 49.5093H130.82V56.6997H137.644V49.5093Z" fill="#3787FF"/>
<path opacity="0.4" d="M146.968 49.5093H140.145V56.6997H146.968V49.5093Z" fill="#3787FF"/>
<path d="M156.295 49.5093H149.472V56.6997H156.295V49.5093Z" fill="#3787FF"/>
<path opacity="0.2" d="M165.622 49.5093H158.799V56.6997H165.622V49.5093Z" fill="#3787FF"/>
<path opacity="0.4" d="M174.947 49.5093H168.123V56.6997H174.947V49.5093Z" fill="#3787FF"/>
<path opacity="0.2" d="M184.274 49.5093H177.451V56.6997H184.274V49.5093Z" fill="#3787FF"/>
<path d="M193.601 49.5093H186.778V56.6997H193.601V49.5093Z" fill="#3787FF"/>
<path opacity="0.2" d="M202.926 49.5093H196.102V56.6997H202.926V49.5093Z" fill="#3787FF"/>
<path opacity="0.7" d="M212.253 49.5093H205.429V56.6997H212.253V49.5093Z" fill="#3787FF"/>
<path opacity="0.7" d="M221.577 49.5093H214.754V56.6997H221.577V49.5093Z" fill="#3787FF"/>
<path opacity="0.4" d="M230.904 49.5093H224.081V56.6997H230.904V49.5093Z" fill="#3787FF"/>
<path opacity="0.2" d="M240.231 49.5093H233.408V56.6997H240.231V49.5093Z" fill="#3787FF"/>
<path d="M249.556 49.5093H242.732V56.6997H249.556V49.5093Z" fill="#3787FF"/>
<path d="M258.883 49.5093H252.059V56.6997H258.883V49.5093Z" fill="#3787FF"/>
<path d="M268.207 49.5093H261.384V56.6997H268.207V49.5093Z" fill="#3787FF"/>
<path opacity="0.2" d="M35.0562 58.6163H28.2328V65.8067H35.0562V58.6163Z" fill="#3787FF"/>
<path opacity="0.2" d="M44.3834 58.6163H37.5599V65.8067H44.3834V58.6163Z" fill="#3787FF"/>
<path opacity="0.2" d="M53.7078 58.6163H46.8843V65.8067H53.7078V58.6163Z" fill="#3787FF"/>
<path opacity="0.2" d="M63.0349 58.6163H56.2114V65.8067H63.0349V58.6163Z" fill="#3787FF"/>
<path d="M72.362 58.6163H65.5386V65.8067H72.362V58.6163Z" fill="#3787FF"/>
<path opacity="0.7" d="M81.6865 58.6163H74.863V65.8067H81.6865V58.6163Z" fill="#3787FF"/>
<path opacity="0.7" d="M91.0136 58.6163H84.1901V65.8067H91.0136V58.6163Z" fill="#3787FF"/>
<path opacity="0.2" d="M100.338 58.6163H93.5146V65.8067H100.338V58.6163Z" fill="#3787FF"/>
<path opacity="0.2" d="M109.665 58.6163H102.842V65.8067H109.665V58.6163Z" fill="#3787FF"/>
<path opacity="0.4" d="M118.992 58.6163H112.169V65.8067H118.992V58.6163Z" fill="#3787FF"/>
<path opacity="0.4" d="M128.317 58.6163H121.493V65.8067H128.317V58.6163Z" fill="#3787FF"/>
<path d="M137.644 58.6163H130.82V65.8067H137.644V58.6163Z" fill="#3787FF"/>
<path opacity="0.2" d="M146.968 58.6163H140.145V65.8067H146.968V58.6163Z" fill="#3787FF"/>
<path opacity="0.4" d="M156.295 58.6163H149.472V65.8067H156.295V58.6163Z" fill="#3787FF"/>
<path opacity="0.4" d="M165.622 58.6163H158.799V65.8067H165.622V58.6163Z" fill="#3787FF"/>
<path opacity="0.4" d="M174.947 58.6163H168.123V65.8067H174.947V58.6163Z" fill="#3787FF"/>
<path opacity="0.4" d="M184.274 58.6163H177.451V65.8067H184.274V58.6163Z" fill="#3787FF"/>
<path opacity="0.2" d="M193.601 58.6163H186.778V65.8067H193.601V58.6163Z" fill="#3787FF"/>
<path opacity="0.2" d="M202.926 58.6163H196.102V65.8067H202.926V58.6163Z" fill="#3787FF"/>
<path opacity="0.2" d="M212.253 58.6163H205.429V65.8067H212.253V58.6163Z" fill="#3787FF"/>
<path opacity="0.2" d="M221.577 58.6163H214.754V65.8067H221.577V58.6163Z" fill="#3787FF"/>
<path opacity="0.7" d="M230.904 58.6163H224.081V65.8067H230.904V58.6163Z" fill="#3787FF"/>
<path opacity="0.7" d="M240.231 58.6163H233.408V65.8067H240.231V58.6163Z" fill="#3787FF"/>
<path opacity="0.4" d="M249.556 58.6163H242.732V65.8067H249.556V58.6163Z" fill="#3787FF"/>
<path opacity="0.2" d="M258.883 58.6163H252.059V65.8067H258.883V58.6163Z" fill="#3787FF"/>
<path d="M268.207 58.6163H261.384V65.8067H268.207V58.6163Z" fill="#3787FF"/>
<path opacity="0.2" d="M35.0562 67.7261H28.2328V74.9165H35.0562V67.7261Z" fill="#3787FF"/>
<path opacity="0.2" d="M44.3834 67.7261H37.5599V74.9165H44.3834V67.7261Z" fill="#3787FF"/>
<path opacity="0.4" d="M53.7078 67.7261H46.8843V74.9165H53.7078V67.7261Z" fill="#3787FF"/>
<path opacity="0.2" d="M63.0349 67.7261H56.2114V74.9165H63.0349V67.7261Z" fill="#3787FF"/>
<path opacity="0.2" d="M72.362 67.7261H65.5386V74.9165H72.362V67.7261Z" fill="#3787FF"/>
<path opacity="0.7" d="M81.6865 67.7261H74.863V74.9165H81.6865V67.7261Z" fill="#3787FF"/>
<path opacity="0.7" d="M91.0136 67.7261H84.1901V74.9165H91.0136V67.7261Z" fill="#3787FF"/>
<path opacity="0.2" d="M100.338 67.7261H93.5146V74.9165H100.338V67.7261Z" fill="#3787FF"/>
<path opacity="0.2" d="M109.665 67.7261H102.842V74.9165H109.665V67.7261Z" fill="#3787FF"/>
<path opacity="0.4" d="M118.992 67.7261H112.169V74.9165H118.992V67.7261Z" fill="#3787FF"/>
<path d="M128.317 67.7261H121.493V74.9165H128.317V67.7261Z" fill="#3787FF"/>
<path opacity="0.2" d="M137.644 67.7261H130.82V74.9165H137.644V67.7261Z" fill="#3787FF"/>
<path d="M146.968 67.7261H140.145V74.9165H146.968V67.7261Z" fill="#3787FF"/>
<path d="M156.295 67.7261H149.472V74.9165H156.295V67.7261Z" fill="#3787FF"/>
<path d="M165.622 67.7261H158.799V74.9165H165.622V67.7261Z" fill="#3787FF"/>
<path opacity="0.2" d="M174.947 67.7261H168.123V74.9165H174.947V67.7261Z" fill="#3787FF"/>
<path d="M184.274 67.7261H177.451V74.9165H184.274V67.7261Z" fill="#3787FF"/>
<path opacity="0.2" d="M193.601 67.7261H186.778V74.9165H193.601V67.7261Z" fill="#3787FF"/>
<path opacity="0.2" d="M202.926 67.7261H196.102V74.9165H202.926V67.7261Z" fill="#3787FF"/>
<path opacity="0.2" d="M212.253 67.7261H205.429V74.9165H212.253V67.7261Z" fill="#3787FF"/>
<path opacity="0.2" d="M221.577 67.7261H214.754V74.9165H221.577V67.7261Z" fill="#3787FF"/>
<path opacity="0.2" d="M230.904 67.7261H224.081V74.9165H230.904V67.7261Z" fill="#3787FF"/>
<path opacity="0.7" d="M240.231 67.7261H233.408V74.9165H240.231V67.7261Z" fill="#3787FF"/>
<path opacity="0.2" d="M249.556 67.7261H242.732V74.9165H249.556V67.7261Z" fill="#3787FF"/>
<path opacity="0.2" d="M258.883 67.7261H252.059V74.9165H258.883V67.7261Z" fill="#3787FF"/>
<path d="M268.207 67.7261H261.384V74.9165H268.207V67.7261Z" fill="#3787FF"/>
<path opacity="0.2" d="M35.0562 76.8332H28.2328V84.0235H35.0562V76.8332Z" fill="#3787FF"/>
<path opacity="0.2" d="M44.3834 76.8332H37.5599V84.0235H44.3834V76.8332Z" fill="#3787FF"/>
<path opacity="0.2" d="M53.7078 76.8332H46.8843V84.0235H53.7078V76.8332Z" fill="#3787FF"/>
<path opacity="0.4" d="M63.0349 76.8332H56.2114V84.0235H63.0349V76.8332Z" fill="#3787FF"/>
<path opacity="0.2" d="M72.362 76.8332H65.5386V84.0235H72.362V76.8332Z" fill="#3787FF"/>
<path opacity="0.2" d="M81.6865 76.8332H74.863V84.0235H81.6865V76.8332Z" fill="#3787FF"/>
<path opacity="0.7" d="M91.0136 76.8332H84.1901V84.0235H91.0136V76.8332Z" fill="#3787FF"/>
<path opacity="0.2" d="M100.338 76.8332H93.5146V84.0235H100.338V76.8332Z" fill="#3787FF"/>
<path opacity="0.2" d="M109.665 76.8332H102.842V84.0235H109.665V76.8332Z" fill="#3787FF"/>
<path opacity="0.2" d="M118.992 76.8332H112.169V84.0235H118.992V76.8332Z" fill="#3787FF"/>
<path d="M128.317 76.8332H121.493V84.0235H128.317V76.8332Z" fill="#3787FF"/>
<path opacity="0.2" d="M137.644 76.8332H130.82V84.0235H137.644V76.8332Z" fill="#3787FF"/>
<path d="M146.968 76.8332H140.145V84.0235H146.968V76.8332Z" fill="#3787FF"/>
<path d="M156.295 76.8332H149.472V84.0235H156.295V76.8332Z" fill="#3787FF"/>
<path opacity="0.2" d="M165.622 76.8332H158.799V84.0235H165.622V76.8332Z" fill="#3787FF"/>
<path opacity="0.2" d="M174.947 76.8332H168.123V84.0235H174.947V76.8332Z" fill="#3787FF"/>
<path opacity="0.2" d="M184.274 76.8332H177.451V84.0235H184.274V76.8332Z" fill="#3787FF"/>
<path opacity="0.2" d="M193.601 76.8332H186.778V84.0235H193.601V76.8332Z" fill="#3787FF"/>
<path opacity="0.2" d="M202.926 76.8332H196.102V84.0235H202.926V76.8332Z" fill="#3787FF"/>
<path opacity="0.2" d="M212.253 76.8332H205.429V84.0235H212.253V76.8332Z" fill="#3787FF"/>
<path opacity="0.2" d="M221.577 76.8332H214.754V84.0235H221.577V76.8332Z" fill="#3787FF"/>
<path opacity="0.2" d="M230.904 76.8332H224.081V84.0235H230.904V76.8332Z" fill="#3787FF"/>
<path opacity="0.2" d="M240.231 76.8332H233.408V84.0235H240.231V76.8332Z" fill="#3787FF"/>
<path opacity="0.2" d="M249.556 76.8332H242.732V84.0235H249.556V76.8332Z" fill="#3787FF"/>
<path opacity="0.4" d="M258.883 76.8332H252.059V84.0235H258.883V76.8332Z" fill="#3787FF"/>
<path d="M268.207 76.8332H261.384V84.0235H268.207V76.8332Z" fill="#3787FF"/>
<path opacity="0.7" d="M35.0562 85.943H28.2328V93.1333H35.0562V85.943Z" fill="#3787FF"/>
<path opacity="0.7" d="M44.3834 85.943H37.5599V93.1333H44.3834V85.943Z" fill="#3787FF"/>
<path opacity="0.7" d="M53.7078 85.943H46.8843V93.1333H53.7078V85.943Z" fill="#3787FF"/>
<path opacity="0.7" d="M63.0349 85.943H56.2114V93.1333H63.0349V85.943Z" fill="#3787FF"/>
<path opacity="0.7" d="M72.362 85.943H65.5386V93.1333H72.362V85.943Z" fill="#3787FF"/>
<path opacity="0.2" d="M81.6865 85.943H74.863V93.1333H81.6865V85.943Z" fill="#3787FF"/>
<path opacity="0.2" d="M91.0136 85.943H84.1901V93.1333H91.0136V85.943Z" fill="#3787FF"/>
<path opacity="0.2" d="M100.338 85.943H93.5146V93.1333H100.338V85.943Z" fill="#3787FF"/>
<path opacity="0.2" d="M109.665 85.943H102.842V93.1333H109.665V85.943Z" fill="#3787FF"/>
<path opacity="0.2" d="M118.992 85.943H112.169V93.1333H118.992V85.943Z" fill="#3787FF"/>
<path opacity="0.2" d="M128.317 85.943H121.493V93.1333H128.317V85.943Z" fill="#3787FF"/>
<path d="M137.644 85.943H130.82V93.1333H137.644V85.943Z" fill="#3787FF"/>
<path opacity="0.2" d="M146.968 85.943H140.145V93.1333H146.968V85.943Z" fill="#3787FF"/>
<path opacity="0.2" d="M156.295 85.943H149.472V93.1333H156.295V85.943Z" fill="#3787FF"/>
<path opacity="0.2" d="M165.622 85.943H158.799V93.1333H165.622V85.943Z" fill="#3787FF"/>
<path d="M174.947 85.943H168.123V93.1333H174.947V85.943Z" fill="#3787FF"/>
<path opacity="0.2" d="M184.274 85.943H177.451V93.1333H184.274V85.943Z" fill="#3787FF"/>
<path opacity="0.2" d="M193.601 85.943H186.778V93.1333H193.601V85.943Z" fill="#3787FF"/>
<path opacity="0.2" d="M202.926 85.943H196.102V93.1333H202.926V85.943Z" fill="#3787FF"/>
<path opacity="0.2" d="M212.253 85.943H205.429V93.1333H212.253V85.943Z" fill="#3787FF"/>
<path opacity="0.2" d="M221.577 85.943H214.754V93.1333H221.577V85.943Z" fill="#3787FF"/>
<path opacity="0.2" d="M230.904 85.943H224.081V93.1333H230.904V85.943Z" fill="#3787FF"/>
<path opacity="0.2" d="M240.231 85.943H233.408V93.1333H240.231V85.943Z" fill="#3787FF"/>
<path opacity="0.2" d="M249.556 85.943H242.732V93.1333H249.556V85.943Z" fill="#3787FF"/>
<path opacity="0.2" d="M258.883 85.943H252.059V93.1333H258.883V85.943Z" fill="#3787FF"/>
<path d="M268.207 85.943H261.384V93.1333H268.207V85.943Z" fill="#3787FF"/>
<path d="M196.471 112.396C201.622 112.396 205.798 107.995 205.798 102.567C205.798 97.1391 201.622 92.7387 196.471 92.7387C191.32 92.7387 187.144 97.1391 187.144 102.567C187.144 107.995 191.32 112.396 196.471 112.396Z" fill="#767D9F"/>
<path d="M195.987 90.0638C196.918 94.3444 197.708 98.6569 198.357 103.001C198.552 104.292 198.726 105.654 198.282 106.874C197.91 107.892 197.153 108.687 196.56 109.577C195.966 110.468 195.516 111.609 195.877 112.63C196.239 113.65 197.292 114.208 198.298 114.496C201.176 115.313 204.244 114.718 207.109 113.833C208.406 113.482 209.65 112.939 210.803 112.221C212.017 111.409 213.012 110.282 213.927 109.121C218.103 103.785 220.836 97.381 223.409 91.0165C221.756 91.1751 220.091 90.9168 218.551 90.263C217.011 89.6092 215.64 88.5786 214.553 87.2565C213.499 85.9515 212.726 84.1334 213.32 82.5381C211.579 83.5443 209.511 83.612 207.636 84.2997C206.473 84.7677 205.354 85.348 204.292 86.0332C203.012 86.813 201.739 87.6079 200.473 88.4178C199.026 89.3366 197.67 90.154 195.987 90.0638Z" fill="#AE6E79"/>
<path d="M215.495 97.443C213.86 100.794 211.734 104.016 208.698 106.012C205.662 108.007 201.575 108.548 198.534 106.575C197.036 105.611 195.902 104.146 194.594 102.911C193.286 101.677 191.651 100.62 189.894 100.78C187.957 100.958 186.441 102.55 185.143 104.075C183.175 106.392 181.273 108.808 179.879 111.55C177.204 116.821 176.571 122.983 176.688 128.958C176.806 134.934 177.627 140.878 177.646 146.854C177.673 154.205 176.49 161.497 175.295 168.738C186.288 167.311 197.295 170.429 208.313 171.61C215.364 172.374 222.468 172.357 229.556 172.337C230.803 172.337 232.129 172.303 233.167 171.576C233.802 171.088 234.315 170.446 234.662 169.704C235.641 167.802 236.035 165.631 236.307 163.486C237 158.069 237.022 152.584 237.04 147.116C237.088 133.868 237.134 120.573 235.537 107.429C235.144 104.196 234.641 100.947 233.464 97.9222C232.287 94.8978 230.367 92.1158 227.681 90.4951C225.956 89.4522 221.957 87.637 219.924 88.6883C217.643 89.8609 216.589 95.1994 215.495 97.443Z" fill="#767D9F"/>
<path d="M216.308 134.852C215.893 126.678 214.205 117.954 217.798 110.699C218.68 108.918 215.513 106.694 216.492 104.969C217.687 102.866 218.593 100.595 219.183 98.2238C219.387 97.4093 219.55 96.5468 219.357 95.7294C219.001 94.2383 217.602 93.3504 216.415 92.4428C215.104 91.4394 214.43 88.3812 214.007 86.7266C213.585 85.0721 217.37 87.0649 218.892 86.4758C221.005 85.6612 223.69 86.1742 225.798 87C226.975 87.4567 228.254 87.4961 229.508 87.5299C231.945 87.5976 234.39 87.6624 236.808 87.3467C237.894 87.203 238.982 86.9859 240.074 87.0508C242.858 87.2171 245.279 89.2239 246.926 91.5972C248.574 93.9705 249.623 96.7356 250.974 99.3062C252.1 101.448 253.442 103.472 254.403 105.702C255.253 107.675 255.791 109.794 256.323 111.903L257.695 117.312C257.935 118.085 258.049 118.896 258.032 119.71C257.963 120.576 257.599 121.382 257.23 122.151C255.834 125.003 254.16 127.695 252.236 130.182C249.35 133.911 245.846 137.273 244.131 141.738C243.463 143.477 243.091 145.326 242.751 147.169C241.381 154.542 240.408 161.991 239.836 169.479C236.71 167.955 233.434 166.801 230.067 166.037C228.389 165.659 226.692 165.377 224.985 165.192C223.49 165.028 221.561 165.338 220.138 164.91C217.758 164.197 217.495 159.955 217.134 157.734C216.557 154.196 216.442 150.597 216.42 147.023C216.393 142.958 216.514 138.902 216.308 134.852Z" fill="#4C4981"/>
<path d="M164.028 119.567C165.154 126.331 166.395 133.116 168.843 139.472C168.781 139.534 168.72 139.59 168.658 139.646C168.442 139.841 168.217 140.024 167.982 140.21C167.433 140.616 166.831 140.96 166.377 141.49C166.205 141.693 166.069 141.927 165.976 142.18C165.892 142.379 165.848 142.593 165.848 142.81C165.848 143.027 165.892 143.242 165.976 143.44C164.7 144.035 163.218 143.852 161.787 143.795C160.554 143.748 159.358 143.796 158.368 144.509C156.993 145.506 156.579 147.423 156.357 149.165C156.275 149.8 156.204 150.436 156.146 151.073C156.089 151.665 156.042 152.259 156.006 152.855C155.885 154.825 155.868 156.801 155.956 158.774C155.97 159.135 155.989 159.495 156.012 159.856C151.641 159.746 147.658 157.345 143.89 155.011C143.028 154.478 142.14 153.917 141.581 153.038C141.066 152.174 140.848 151.15 140.963 150.137C140.963 149.994 140.987 149.856 141.006 149.709C141.126 148.873 141.331 148.052 141.619 147.262C142.798 143.898 144.536 140.782 146.752 138.06C147.709 136.881 148.787 135.729 149.234 134.249C149.429 133.603 149.501 132.918 149.699 132.276C150.587 129.491 153.792 128.175 154.888 125.472C155.156 124.826 155.279 124.119 155.611 123.499C155.909 122.983 156.294 122.529 156.747 122.16C156.943 121.988 157.146 121.821 157.347 121.655C159.226 120.103 161.037 118.463 162.779 116.737C163.104 116.415 163.425 116.09 163.742 115.761C163.7 117.037 163.796 118.314 164.028 119.567Z" fill="#4C4981"/>
<path d="M190.983 99.5599C190.597 99.9883 190.18 100.391 189.771 100.792L189.661 100.896L189.228 101.319C188.441 102.034 187.761 102.869 187.208 103.796L187.163 103.875C185.799 106.449 186.304 109.617 186.684 112.54C187.155 116.182 187.367 119.857 187.318 123.532C187.248 128.606 186.681 133.646 186.671 138.714C186.671 139.864 186.695 141.011 186.743 142.161C186.821 144.029 186.954 145.895 187.115 147.761C187.289 149.808 187.497 151.851 187.692 153.895C187.848 155.476 187.995 157.054 188.118 158.633C188.179 159.45 188.238 160.265 188.286 161.082C188.342 162.041 188.388 163.002 188.415 163.96C188.433 164.569 188.444 165.175 188.444 165.784C188.444 166.13 188.444 166.474 188.444 166.818C188.444 167.478 188.427 168.135 188.393 168.791C188.358 169.635 188.303 170.48 188.23 171.328C188.147 172.25 188 173.256 187.385 173.904C187.347 173.944 187.307 173.98 187.267 174.017L186.401 173.904C180.426 173.15 174.395 173.037 168.399 173.566C168.53 172.613 168.65 171.663 168.768 170.708C168.822 170.257 168.875 169.803 168.926 169.349C168.985 168.831 169.041 168.312 169.094 167.793C169.156 167.23 169.212 166.666 169.266 166.102C169.405 164.65 169.527 163.196 169.632 161.742C169.787 159.62 169.905 157.495 169.985 155.366C170.024 154.349 170.055 153.332 170.076 152.313C170.106 151.051 170.121 149.787 170.119 148.522C170.119 147.293 170.109 146.063 170.089 144.83C170.089 144.424 170.073 144.018 170.041 143.615C170.018 143.252 169.971 142.891 169.9 142.536C169.701 141.715 169.432 140.915 169.097 140.145C169.038 139.999 168.982 139.864 168.926 139.708C168.894 139.632 168.864 139.553 168.835 139.477C170.376 138.031 171.472 136.095 172.526 134.19C174.235 131.12 175.985 127.915 176.271 124.369C176.557 120.824 174.885 116.841 171.67 115.759C170.796 115.477 169.87 115.398 168.969 115.231C168.118 115.074 166.345 114.716 165.36 114.073C164.825 114.652 164.29 115.22 163.755 115.778C163.788 114.927 163.985 114.091 164.336 113.323L164.716 113.343C164.685 113.253 164.67 113.157 164.673 113.061C164.673 112.76 164.871 112.418 165.294 112.041C166.553 110.913 168.535 110.662 169.33 109.138C169.661 108.503 169.718 107.748 169.985 107.083C170.753 105.186 172.957 104.487 174.284 102.97C175.61 101.454 175.942 99.3062 177.015 97.615C177.816 96.38 178.927 95.4041 180.224 94.7964C180.331 94.7428 180.441 94.6893 180.551 94.6414C182.771 93.6407 185.408 93.4124 187.709 93.4181C188.602 93.4181 190.918 93.4463 192.052 93.9226C192.236 93.9919 192.405 94.1003 192.547 94.2411C193.756 95.6279 191.876 98.5564 190.983 99.5599Z" fill="#4C4981"/>
<path d="M164.427 113.126C166.493 112.47 168.662 112.254 170.809 112.49C172.955 112.726 175.035 113.408 176.929 114.499C178.855 115.626 180.583 117.199 181.642 119.228C183.234 122.272 183.164 125.942 183.052 129.418C182.996 131.157 182.923 132.958 182.196 134.519C181.353 136.326 179.764 137.566 178.143 138.581C177.128 139.264 176.015 139.771 174.848 140.083C173.051 140.495 171.183 140.145 169.373 139.802C167.404 139.418 165.291 138.956 163.924 137.411C163.122 136.515 162.683 135.351 162.25 134.212C161.627 132.568 161.003 130.926 160.377 129.285C159.294 126.436 158.927 124.065 160.358 121.289C161.008 120.023 161.803 118.839 162.445 117.565C162.766 116.917 163.916 113.292 164.427 113.126Z" fill="#4C4981"/>
<path d="M276.844 161.852V170.279C271.358 172.681 265.472 173.908 259.53 173.887H187.393C187.355 173.927 187.315 173.963 187.275 174L186.409 173.887H58.0892C47.323 173.887 37.3459 170.826 29.1636 165.612V152.745L90.8772 145.239H90.9253L126.864 148.446L136.165 149.292L140.995 149.723L150.994 150.617L156.138 151.076L163.627 151.747L164.681 151.84L170.079 152.322L177.402 152.956L187.701 153.875L204.868 155.411L216.944 156.491L236.776 158.264L240.547 158.599L240.954 158.636L241.307 158.667L246.287 159.112L251.755 159.602L252.388 159.659L276.844 161.852Z" fill="#504F60"/>
<path d="M204.357 161.542L127.017 147.632L124.018 163.61L159.47 168.084L170.386 169.524L200.414 163.292L204.357 161.542Z" fill="#9C9CA1"/>
<path d="M164.323 168.724L203.07 161.048C203.264 161.009 203.464 161.016 203.655 161.068C203.846 161.12 204.024 161.215 204.176 161.348C204.327 161.481 204.45 161.648 204.533 161.836C204.617 162.024 204.66 162.23 204.659 162.438C204.66 162.768 204.551 163.088 204.351 163.342C204.151 163.596 203.873 163.768 203.565 163.828L165.724 171.294L164.323 168.724Z" fill="#9C9CA1"/>
<path d="M181.131 144.588C182.337 144.469 183.56 144.269 184.646 143.705C185.983 143.003 187.024 141.794 188.262 140.904C190.985 138.931 194.628 138.666 197.75 139.799C200.871 140.932 203.477 143.359 205.301 146.256C206.513 148.187 207.422 150.65 206.566 152.781C206.272 153.433 205.902 154.043 205.464 154.597L203.233 157.669C202.809 158.315 202.3 158.893 201.719 159.385C200.885 160.025 199.847 160.287 198.825 160.445C196.11 160.862 193.347 160.626 190.611 160.817C185.911 161.147 181.321 162.742 176.611 162.689C173.904 162.658 171.232 162.083 168.586 161.508L156.879 158.971C154.84 158.531 152.537 157.889 151.577 155.941C151.146 155.064 151.066 154.05 151.015 153.063C150.876 150.346 151.015 147.324 152.802 145.365C154.482 143.528 157.138 142.947 159.144 141.589C161.6 139.923 162.41 140.461 164.999 141.713C170.051 144.123 175.608 145.114 181.131 144.588Z" fill="#AE6E79"/>
<path opacity="0.05" d="M181.131 144.588C182.337 144.469 183.56 144.269 184.646 143.705C185.983 143.003 187.024 141.794 188.262 140.904C190.985 138.931 194.628 138.666 197.75 139.799C200.871 140.932 203.477 143.359 205.301 146.256C206.513 148.187 207.422 150.65 206.566 152.781C206.272 153.433 205.902 154.043 205.464 154.597L203.233 157.669C202.809 158.315 202.3 158.893 201.719 159.385C200.885 160.025 199.847 160.287 198.825 160.445C196.11 160.862 193.347 160.626 190.611 160.817C185.911 161.147 181.321 162.742 176.611 162.689C173.904 162.658 171.232 162.083 168.586 161.508L156.879 158.971C154.84 158.531 152.537 157.889 151.577 155.941C151.146 155.064 151.066 154.05 151.015 153.063C150.876 150.346 151.015 147.324 152.802 145.365C154.482 143.528 157.138 142.947 159.144 141.589C161.6 139.923 162.41 140.461 164.999 141.713C170.051 144.123 175.608 145.114 181.131 144.588Z" fill="black"/>
<path d="M228.147 140.723C224.862 142.062 221.558 143.407 218.119 144.204C212.352 145.543 206.317 145.332 200.596 146.862C197.573 147.674 194.569 148.982 191.464 148.717C190.076 148.598 188.736 148.153 187.385 147.815C179.796 145.842 171.17 146.482 165.007 151.555C162.9 153.289 161.174 155.451 159.61 157.756C159.275 158.254 159.048 158.824 158.947 159.425C158.845 160.026 158.871 160.643 159.022 161.232C159.173 161.821 159.446 162.368 159.82 162.833C160.195 163.299 160.663 163.671 161.19 163.923C163.587 165.085 166.154 165.806 168.781 166.057C172.294 166.384 175.822 165.86 179.315 165.335C184.499 164.56 189.685 163.782 194.856 162.911C196.712 162.599 198.568 162.274 200.435 162.026C213.871 160.237 227.55 162.413 241.02 160.919C242.382 160.766 243.767 160.569 245.006 159.958C248.141 158.407 249.692 154.32 249.045 150.729C248.398 147.138 245.899 144.153 242.893 142.321C240.373 140.78 237.656 140.157 234.85 139.503C232.244 138.863 230.655 139.708 228.147 140.723Z" fill="#AE6E79"/>
<path opacity="0.1" d="M256.962 119.256C258.444 121.303 258.76 124.048 258.599 126.61C258.439 129.172 257.861 131.706 257.776 134.28C257.658 137.809 258.466 141.326 258.329 144.844C258.233 147.305 257.679 149.717 257.024 152.079C256.251 154.867 255.133 157.863 252.691 159.202C249.449 160.981 242.649 159.98 239.239 161.373C239.549 159.335 242.524 156.384 242.834 154.346C243.048 152.936 243.265 151.488 243.035 150.075C242.74 148.274 241.737 146.676 240.547 145.346C238.653 143.229 236.182 141.636 233.467 141.118C230.752 140.599 224.105 141.025 221.933 142.832C221.665 140.966 226.641 139.167 228.39 138.764C229.262 138.558 230.262 138.674 230.96 138.091C232.298 136.986 231.327 134.784 231.391 133.017C231.442 131.608 232.223 130.317 232.381 128.907C232.648 126.653 231.252 124.355 231.8 122.143C232.004 121.325 232.456 120.607 232.769 119.829C233.721 117.447 233.304 114.73 232.795 112.199C232.48 110.609 232.172 108.816 233.012 107.46C233.79 106.195 236 110.702 237.415 110.493C242.088 109.803 246.317 106.153 250.091 109.14C252.014 110.662 252.265 112.241 253.033 114.414C253.779 116.483 255.713 117.543 256.962 119.256Z" fill="black"/>
<path d="M257.765 119.256C259.247 121.303 259.562 124.048 259.402 126.61C259.241 129.172 258.664 131.706 258.578 134.28C258.46 137.809 259.268 141.326 259.132 144.844C259.035 147.305 258.482 149.717 257.826 152.08C257.053 154.867 255.935 157.863 253.493 159.202C250.251 160.981 243.452 159.98 240.041 161.373C240.352 159.335 243.326 156.384 243.636 154.346C243.85 152.936 244.067 151.488 243.837 150.075C243.543 148.274 242.54 146.676 241.349 145.346C239.456 143.229 236.984 141.636 234.269 141.118C231.554 140.599 224.907 141.025 222.735 142.832C222.468 140.966 227.443 139.167 229.192 138.764C230.064 138.559 231.065 138.674 231.763 138.091C233.1 136.986 232.129 134.784 232.194 133.017C232.244 131.608 233.025 130.317 233.183 128.907C233.451 126.653 232.054 124.355 232.603 122.143C232.806 121.325 233.258 120.607 233.571 119.829C234.523 117.447 234.106 114.73 233.598 112.199C233.282 110.609 232.975 108.816 233.814 107.46C234.593 106.195 236.115 105.716 237.53 105.504C242.267 104.829 247.068 106.134 250.904 109.14C252.827 110.662 253.079 112.241 253.846 114.414C254.582 116.483 256.516 117.543 257.765 119.256Z" fill="#4C4981"/>
<path d="M80.7797 105.902L95.3227 162.539C95.5012 163.233 95.8761 163.854 96.3974 164.317C96.9188 164.781 97.5618 165.066 98.241 165.135L163.699 171.762C164.233 171.816 164.771 171.735 165.268 171.525C165.766 171.315 166.208 170.982 166.559 170.555C166.909 170.128 167.158 169.618 167.283 169.069C167.408 168.52 167.406 167.947 167.278 167.399L151.352 99.0807C151.163 98.2686 150.706 97.5537 150.064 97.0629C149.421 96.5721 148.634 96.3373 147.843 96.4001L83.7568 101.451C83.2648 101.491 82.7872 101.646 82.3582 101.903C81.9292 102.16 81.5594 102.514 81.275 102.939C80.9907 103.364 80.7989 103.85 80.7133 104.362C80.6276 104.874 80.6503 105.4 80.7797 105.902Z" fill="#9C9CA1"/>
<path d="M210.538 116.954C214.512 116.954 217.733 113.515 217.733 109.273C217.733 105.031 214.512 101.592 210.538 101.592C206.564 101.592 203.343 105.031 203.343 109.273C203.343 113.515 206.564 116.954 210.538 116.954Z" fill="white"/>
<path d="M216.447 95.2614C216.447 95.2614 217.963 100.014 213.488 102.012L212.916 103.066L215.719 105.981C215.719 105.981 219.175 99.3372 218.801 96.978C218.801 96.978 218.266 94.5821 216.447 95.2614Z" fill="white"/>
<path d="M211.365 116.954C215.197 116.954 218.303 113.68 218.303 109.642C218.303 105.604 215.197 102.331 211.365 102.331C207.533 102.331 204.426 105.604 204.426 109.642C204.426 113.68 207.533 116.954 211.365 116.954Z" fill="#3787FF"/>
<path d="M218.835 98.0575L217.733 96.1409L216.129 95.9013C216.471 89.5903 214.917 87.7103 214.917 87.7103L214.556 87.6737L212.983 87.513L210.025 84.2772V83.3583C214.181 83.8798 216.479 85.9599 217.72 88.3981C219.913 92.6768 218.835 98.0575 218.835 98.0575Z" fill="#3787FF"/>
<path opacity="0.1" d="M214.569 86.5124V87.6737L212.996 87.513L210.038 84.2772C210.038 84.2772 214.615 85.3568 214.569 86.5124Z" fill="black" stroke="#4C4981" stroke-miterlimit="10"/>
<path opacity="0.1" d="M218.835 98.0575L217.733 96.1408V88.4093C219.913 92.6767 218.835 98.0575 218.835 98.0575Z" fill="black" stroke="#4C4981" stroke-miterlimit="10"/>
<path d="M198.543 112.648C200.389 111.524 200.31 107.738 198.366 104.189C196.422 100.641 193.349 98.675 191.503 99.7981C189.657 100.921 189.736 104.708 191.681 108.257C193.625 111.805 196.697 113.771 198.543 112.648Z" fill="white"/>
<path d="M196.065 105.603C198.009 109.152 200.395 111.522 198.55 112.65C196.704 113.777 191.328 113.213 189.383 109.662C187.438 106.11 189.204 101.206 191.049 100.078C192.895 98.951 194.117 102.046 196.065 105.603Z" fill="#3787FF"/>
<path opacity="0.1" d="M213.379 80.038C213.379 91.3773 206.015 102.305 195.254 102.305C190.086 102.305 185.13 100.142 181.475 96.291C177.821 92.4402 175.768 87.2173 175.768 81.7714C175.768 76.3255 177.821 71.1027 181.475 67.2519C185.13 63.401 190.086 61.2377 195.254 61.2377C206.015 61.2489 213.379 68.6958 213.379 80.038Z" fill="black"/>
<path d="M195.254 101.753C206.016 101.753 214.74 92.5595 214.74 81.219C214.74 69.8785 206.016 60.6852 195.254 60.6852C184.492 60.6852 175.768 69.8785 175.768 81.219C175.768 92.5595 184.492 101.753 195.254 101.753Z" fill="#AE6E79"/>
<path d="M193.542 72.1204C195.861 73.0195 197.234 75.545 199.315 76.9515C202.257 78.9246 206.087 78.4144 209.447 77.4392C211.319 76.9008 213.277 76.2441 215.12 76.8416C215.391 76.9681 215.69 77.013 215.984 76.9713C216.385 76.8501 216.583 76.3822 216.714 75.965C218.993 68.8057 217.969 60.6965 214.529 54.0727C213.641 52.3646 212.576 50.7129 211.111 49.5262C209.955 48.5932 208.596 47.9816 207.227 47.4602C204.724 46.513 202.135 45.8395 199.502 45.4505C199.037 45.3614 198.562 45.3453 198.092 45.4026C197.448 45.5125 196.87 45.8789 196.295 46.2059C193.832 47.5972 191.1 48.3789 188.308 48.4918C184.563 48.6412 180.283 47.711 177.397 50.2422C173.92 53.2778 174.786 59.1998 172.532 63.3206C171.039 66.0462 168.161 68.0249 167.687 71.1282C167.564 72.0768 167.621 73.0417 167.856 73.9666C168.958 78.7414 173.345 82.4394 178.02 82.5268C178.738 82.5845 179.457 82.4293 180.096 82.0786C180.514 81.7777 180.884 81.4075 181.19 80.9822C184.253 77.1601 187.757 69.8768 193.542 72.1204Z" fill="#444053"/>
<path opacity="0.1" d="M216.714 73.8877C216.583 74.3049 216.385 74.7727 215.984 74.8939C215.69 74.9357 215.391 74.8908 215.12 74.7643C213.277 74.1667 211.308 74.8235 209.449 75.3618C206.087 76.3371 202.249 76.8585 199.317 74.8742C197.234 73.4649 195.864 70.9281 193.542 70.0431C187.757 67.7882 184.253 75.0828 181.182 78.9049C180.876 79.3302 180.506 79.7004 180.088 80.0013C179.449 80.352 178.73 80.5072 178.012 80.4495C173.353 80.3621 168.963 76.6641 167.848 71.8893C167.786 71.6074 167.733 71.3256 167.693 71.0437C167.693 71.0691 167.693 71.0916 167.679 71.117C167.556 72.0655 167.613 73.0304 167.848 73.9553C168.95 78.7301 173.339 82.4282 178.012 82.5155C178.73 82.5733 179.449 82.418 180.088 82.0674C180.506 81.7665 180.876 81.3962 181.182 80.9709C184.253 77.1489 187.757 69.8655 193.542 72.1091C195.864 73.0083 197.234 75.5338 199.317 76.9403C202.26 78.9133 206.087 78.4032 209.449 77.4279C211.322 76.8895 213.277 76.2328 215.12 76.8304C215.391 76.9568 215.69 77.0017 215.984 76.96C216.385 76.8388 216.583 76.3709 216.714 75.9538C217.634 73.0244 218.04 69.9433 217.913 66.8608C217.834 69.2514 217.43 71.6178 216.714 73.8877Z" fill="black"/>
</g>
<defs>
<clipPath id="clip0">
<rect width="306" height="174" fill="white"/>
</clipPath>
</defs>
</svg>
