<svg width="277" height="152" viewBox="0 0 277 152" fill="none" xmlns="http://www.w3.org/2000/svg">
<g opacity="0.7">
<path opacity="0.7" d="M210.553 0H66.1619C64.9244 0.00481023 63.7394 0.531232 62.8673 1.46354C61.9952 2.39584 61.5074 3.65773 61.5112 4.97179V110.5C61.5074 111.814 61.9952 113.076 62.8673 114.008C63.7394 114.94 64.9244 115.467 66.1619 115.472H115.822V133.687H113.558C113.248 133.689 112.94 133.755 112.653 133.882C112.367 134.009 112.106 134.196 111.887 134.43C111.668 134.664 111.495 134.942 111.377 135.247C111.259 135.552 111.199 135.88 111.2 136.21V139.864H115.822V142.026H160.892V139.864H165.514V136.21C165.516 135.88 165.456 135.552 165.338 135.247C165.22 134.942 165.046 134.664 164.827 134.43C164.608 134.196 164.348 134.009 164.061 133.882C163.775 133.755 163.467 133.689 163.156 133.687H161.026V133.53H160.881V115.472H210.553C211.79 115.467 212.975 114.94 213.848 114.008C214.72 113.076 215.207 111.814 215.204 110.5V4.97179C215.207 3.65773 214.72 2.39584 213.848 1.46354C212.975 0.531232 211.79 0.00481023 210.553 0Z" fill="url(#paint0_linear)"/>
</g>
<path d="M160.741 112.335H116.259V140.191H160.741V112.335Z" fill="#BDBDBD"/>
<g opacity="0.1">
<path opacity="0.1" d="M117.134 115.06H159.954C160.47 112.677 160.884 111.124 160.884 111.124H116.116C116.116 111.124 116.575 112.671 117.134 115.06Z" fill="black"/>
</g>
<path d="M67.2426 0.908356H209.757C210.975 0.908356 212.143 1.42196 213.004 2.33618C213.865 3.2504 214.348 4.49035 214.348 5.78326V99.0119H62.6518V5.78326C62.6518 4.49035 63.1354 3.2504 63.9964 2.33618C64.8573 1.42196 66.025 0.908356 67.2426 0.908356Z" fill="#535461"/>
<path d="M209.757 114.151H67.2426C66.025 114.151 64.8573 113.638 63.9964 112.724C63.1354 111.809 62.6518 110.569 62.6518 109.277V99.012H214.348V109.277C214.348 110.569 213.865 111.809 213.004 112.724C212.143 113.638 210.975 114.151 209.757 114.151Z" fill="#BDBDBD"/>
<path d="M138.5 109.307C139.917 109.307 141.066 108.087 141.066 106.582C141.066 105.077 139.917 103.857 138.5 103.857C137.083 103.857 135.934 105.077 135.934 106.582C135.934 108.087 137.083 109.307 138.5 109.307Z" fill="#535461"/>
<path d="M114.026 132.016H162.974C163.592 132.016 164.184 132.277 164.621 132.74C165.058 133.204 165.304 133.834 165.304 134.49V138.072H111.697V134.49C111.697 134.165 111.757 133.843 111.874 133.543C111.991 133.243 112.163 132.97 112.379 132.74C112.595 132.511 112.852 132.329 113.135 132.204C113.417 132.08 113.72 132.016 114.026 132.016Z" fill="#BDBDBD"/>
<g opacity="0.5">
<path opacity="0.5" d="M184.266 21.5344H92.7344C92.0258 21.5344 91.4513 22.1444 91.4513 22.8969V77.0234C91.4513 77.776 92.0258 78.386 92.7344 78.386H184.266C184.974 78.386 185.549 77.776 185.549 77.0234V22.8969C185.549 22.1444 184.974 21.5344 184.266 21.5344Z" fill="url(#paint1_linear)"/>
</g>
<path d="M183.059 21.9522H93.9406C93.2319 21.9522 92.6574 22.5622 92.6574 23.3148V76.2907C92.6574 77.0432 93.2319 77.6533 93.9406 77.6533H183.059C183.768 77.6533 184.343 77.0432 184.343 76.2907V23.3148C184.343 22.5622 183.768 21.9522 183.059 21.9522Z" fill="white"/>
<g opacity="0.5">
<path opacity="0.5" d="M127.02 29.9489H119.481C118.772 29.9489 118.198 30.5589 118.198 31.3114V38.2453C118.198 38.9978 118.772 39.6078 119.481 39.6078H127.02C127.729 39.6078 128.303 38.9978 128.303 38.2453V31.3114C128.303 30.5589 127.729 29.9489 127.02 29.9489Z" fill="#3787FF"/>
</g>
<path d="M158.115 29.9489H131.839C131.56 29.9489 131.334 30.1888 131.334 30.4848C131.334 30.7808 131.56 31.0207 131.839 31.0207H158.115C158.394 31.0207 158.62 30.7808 158.62 30.4848C158.62 30.1888 158.394 29.9489 158.115 29.9489Z" fill="#E0E0E0"/>
<path d="M153.51 33.1705H131.839C131.56 33.1705 131.334 33.4105 131.334 33.7065C131.334 34.0025 131.56 34.2424 131.839 34.2424H153.51C153.789 34.2424 154.015 34.0025 154.015 33.7065C154.015 33.4105 153.789 33.1705 153.51 33.1705Z" fill="#E0E0E0"/>
<g opacity="0.5">
<path opacity="0.5" d="M127.02 44.9732H119.481C118.772 44.9732 118.198 45.5832 118.198 46.3358V53.2696C118.198 54.0221 118.772 54.6322 119.481 54.6322H127.02C127.729 54.6322 128.303 54.0221 128.303 53.2696V46.3358C128.303 45.5832 127.729 44.9732 127.02 44.9732Z" fill="#3787FF"/>
</g>
<path d="M158.115 44.9732H131.839C131.56 44.9732 131.334 45.2132 131.334 45.5091C131.334 45.8051 131.56 46.0451 131.839 46.0451H158.115C158.394 46.0451 158.62 45.8051 158.62 45.5091C158.62 45.2132 158.394 44.9732 158.115 44.9732Z" fill="#E0E0E0"/>
<path d="M158.115 48.1919H131.839C131.56 48.1919 131.334 48.4318 131.334 48.7278C131.334 49.0238 131.56 49.2638 131.839 49.2638H158.115C158.394 49.2638 158.62 49.0238 158.62 48.7278C158.62 48.4318 158.394 48.1919 158.115 48.1919Z" fill="#E0E0E0"/>
<g opacity="0.5">
<path opacity="0.5" d="M127.02 59.9976H119.481C118.772 59.9976 118.198 60.6077 118.198 61.3602V68.294C118.198 69.0466 118.772 69.6566 119.481 69.6566H127.02C127.729 69.6566 128.303 69.0466 128.303 68.294V61.3602C128.303 60.6077 127.729 59.9976 127.02 59.9976Z" fill="#3787FF"/>
</g>
<path d="M158.115 59.9976H131.839C131.56 59.9976 131.334 60.2376 131.334 60.5336C131.334 60.8296 131.56 61.0695 131.839 61.0695H158.115C158.394 61.0695 158.62 60.8296 158.62 60.5336C158.62 60.2376 158.394 59.9976 158.115 59.9976Z" fill="#E0E0E0"/>
<path d="M158.349 63.2162H131.788C131.537 63.2162 131.334 63.4318 131.334 63.6977V63.8067C131.334 64.0726 131.537 64.2881 131.788 64.2881H158.349C158.599 64.2881 158.802 64.0726 158.802 63.8067V63.6977C158.802 63.4318 158.599 63.2162 158.349 63.2162Z" fill="#E0E0E0"/>
<path d="M138.5 12.7171V6.05579" stroke="#3787FF" stroke-width="2" stroke-miterlimit="10"/>
<path d="M138.5 23.9203V15.1788" stroke="#3787FF" stroke-width="2" stroke-miterlimit="10"/>
<path d="M138.5 25.1315C139.13 25.1315 139.641 24.5892 139.641 23.9203C139.641 23.2514 139.13 22.7092 138.5 22.7092C137.87 22.7092 137.359 23.2514 137.359 23.9203C137.359 24.5892 137.87 25.1315 138.5 25.1315Z" fill="#3787FF"/>
<path d="M138.5 15.1395C139.13 15.1395 139.641 14.5972 139.641 13.9283C139.641 13.2594 139.13 12.7172 138.5 12.7172C137.87 12.7172 137.359 13.2594 137.359 13.9283C137.359 14.5972 137.87 15.1395 138.5 15.1395Z" stroke="white" stroke-miterlimit="10"/>
<path d="M138.5 12.7171V6.05579" stroke="#3787FF" stroke-width="2" stroke-miterlimit="10"/>
<path d="M138.5 23.9203V15.1788" stroke="#3787FF" stroke-width="2" stroke-miterlimit="10"/>
<path d="M138.5 25.1315C139.13 25.1315 139.641 24.5892 139.641 23.9203C139.641 23.2514 139.13 22.7092 138.5 22.7092C137.87 22.7092 137.359 23.2514 137.359 23.9203C137.359 24.5892 137.87 25.1315 138.5 25.1315Z" fill="#3787FF"/>
<path d="M138.5 15.1395C139.13 15.1395 139.641 14.5972 139.641 13.9283C139.641 13.2594 139.13 12.7172 138.5 12.7172C137.87 12.7172 137.359 13.2594 137.359 13.9283C137.359 14.5972 137.87 15.1395 138.5 15.1395Z" stroke="white" stroke-miterlimit="10"/>
<path d="M138.5 84.4781V93.8645" stroke="#3787FF" stroke-width="2" stroke-miterlimit="10"/>
<path d="M138.5 76V84.7415" stroke="#3787FF" stroke-width="2" stroke-miterlimit="10"/>
<path d="M138.5 77.2111C139.13 77.2111 139.641 76.6689 139.641 76C139.641 75.3311 139.13 74.7888 138.5 74.7888C137.87 74.7888 137.359 75.3311 137.359 76C137.359 76.6689 137.87 77.2111 138.5 77.2111Z" fill="#3787FF"/>
<path d="M87.1741 51.0199H78.1921" stroke="#3787FF" stroke-width="2" stroke-miterlimit="10"/>
<path d="M95.0156 51.0199H86.7835" stroke="#3787FF" stroke-width="2" stroke-miterlimit="10"/>
<path d="M95.0156 52.2311C95.6455 52.2311 96.1561 51.6888 96.1561 51.0199C96.1561 50.351 95.6455 49.8088 95.0156 49.8088C94.3857 49.8088 93.875 50.351 93.875 51.0199C93.875 51.6888 94.3857 52.2311 95.0156 52.2311Z" fill="#3787FF"/>
<g opacity="0.1">
<path opacity="0.1" d="M160.884 131.865H116.401V132.773H160.884V131.865Z" fill="black"/>
</g>
<g opacity="0.7">
<path opacity="0.7" d="M51.0977 111.142H30.4533L30.7385 108.677C36.5725 103.115 40.345 88.2962 40.345 88.2962C40.2612 88.3086 40.1784 88.3268 40.0969 88.3507C36.6752 89.0835 34.24 90.5762 32.5377 92.3718L33.262 85.8134C44.0404 83.3487 48.3147 68.2092 48.3147 68.2092C41.4371 69.8291 37.1485 72.3362 34.4853 74.7162L35.546 65.0814C42.8343 67.7369 50.3735 53.6299 50.3735 53.6299L50.0883 53.5664L50.2309 53.4695L50.0142 53.5512C41.9589 51.7072 37.6532 56.5973 36.256 58.629L36.3615 57.6843C36.1486 58.2899 35.9414 58.8833 35.7399 59.4647V59.4889C35.1696 61.13 34.6478 62.751 34.1745 64.3517C33.762 65.7183 33.3761 67.0707 33.0168 68.4091V68.3909C33.0168 68.3909 32.6832 59.7735 24.126 57.5056C24.126 57.5056 25.0242 76.2997 31.8049 73.2234C31.1776 75.9485 30.6643 78.5707 30.2195 81.1171C29.9363 82.7744 29.6892 84.3893 29.4781 85.9617L29.4382 86.0102L29.4781 85.9739L29.461 86.098C29.2709 87.5251 29.1094 88.916 28.9763 90.2704C29.1075 87.6604 28.6598 80.1209 20.2937 73.0357C20.2937 73.0357 9.17307 93.7888 28.1351 97.8644C28.1779 97.9037 28.2207 97.9431 28.2606 97.9794L28.2321 97.8856L28.4032 97.9249L28.4801 96.8591C28.2516 101.308 28.2734 105.766 28.5457 110.212C28.5657 110.515 28.5856 110.818 28.6056 111.105H7.72453C-0.24238 128.603 12.15 138.193 12.15 138.193H46.3672C59.6549 120.407 51.0977 111.142 51.0977 111.142Z" fill="url(#paint2_linear)"/>
</g>
<path opacity="0.6" d="M29.29 117.785C29.29 117.785 23.8722 92.6534 35.8483 60.255" stroke="#535461" stroke-width="3" stroke-miterlimit="10"/>
<path d="M8.18932 110.215H50.1054C50.1054 110.215 58.3746 121.418 45.5431 138.072H12.4665C12.4665 138.072 0.490442 126.566 8.18932 110.215Z" fill="#3787FF"/>
<path d="M35.2466 61.9203C35.2466 61.9203 39.4126 54.0478 49.3926 56.4701C49.3926 56.4701 41.1434 71.3855 33.7097 66.5015L35.2466 61.9203Z" fill="#4DB6AC"/>
<path d="M32.6062 70.2743C32.6062 70.2743 32.284 62.2231 24.0148 60.1036C24.0148 60.1036 24.8702 77.6653 31.4285 74.7888L32.6062 70.2743Z" fill="#4DB6AC"/>
<path d="M29.903 82.1648C29.903 82.1648 31.4285 73.7291 47.3966 70.0956C47.3966 70.0956 42.3039 87.5423 29.1674 86.8429L29.903 82.1648Z" fill="#4DB6AC"/>
<path d="M28.6085 91.633C28.6085 91.633 30.288 82.8128 20.3079 74.6375C20.3079 74.6375 9.47247 94.2188 28.1437 97.9007L28.6085 91.633Z" fill="#4DB6AC"/>
<path d="M28.3091 103.757C28.3091 103.757 27.1514 91.2908 39.6977 88.8685C39.6977 88.8685 35.1155 106.276 28.292 109.379L28.3091 103.757Z" fill="#4DB6AC"/>
<path opacity="0.3" d="M33.8523 66.6135C33.8523 66.6135 44.6877 57.8327 49.25 56.3187" stroke="#535461" stroke-miterlimit="10"/>
<path opacity="0.3" d="M29.1474 86.749C29.1474 86.749 42.264 71.9124 47.3966 70.0956" stroke="#535461" stroke-miterlimit="10"/>
<path opacity="0.3" d="M24.0148 60.1036C24.0148 60.1036 31.9988 71.6095 31.4285 74.6374" stroke="#535461" stroke-miterlimit="10"/>
<path opacity="0.3" d="M20.308 74.6375C20.308 74.6375 24.5851 95.2271 28.0068 97.9522" stroke="#535461" stroke-miterlimit="10"/>
<path opacity="0.3" d="M28.292 109.458C28.292 109.458 35.1354 89.4741 39.6977 88.8685" stroke="#535461" stroke-miterlimit="10"/>
<g opacity="0.1">
<path opacity="0.1" d="M50.1054 110.215H8.18932C8.09522 110.418 8.00398 110.621 7.90417 110.821H48.6797C48.6797 110.821 56.7464 121.754 44.5737 138.072H45.5431C58.3746 121.418 50.1054 110.215 50.1054 110.215Z" fill="black"/>
</g>
<path d="M277 137.951H0V147.921H277V137.951Z" fill="#E0E0E0"/>
<path d="M265.261 147.921H11.7365V152H265.261V147.921Z" fill="#E0E0E0"/>
<path opacity="0.1" d="M265.261 147.921H11.7365V149.281H265.261V147.921Z" fill="black"/>
<path d="M196.812 51.0199H198.523" stroke="#3787FF" stroke-width="2" stroke-miterlimit="10"/>
<path d="M181.699 51.0199H194.497" stroke="#3787FF" stroke-width="2" stroke-miterlimit="10"/>
<path d="M181.699 52.2311C182.329 52.2311 182.84 51.6888 182.84 51.0199C182.84 50.351 182.329 49.8088 181.699 49.8088C181.069 49.8088 180.559 50.351 180.559 51.0199C180.559 51.6888 181.069 52.2311 181.699 52.2311Z" fill="#3787FF"/>
<path d="M195.671 52.2311C196.301 52.2311 196.812 51.6888 196.812 51.0199C196.812 50.351 196.301 49.8088 195.671 49.8088C195.041 49.8088 194.531 50.351 194.531 51.0199C194.531 51.6888 195.041 52.2311 195.671 52.2311Z" stroke="white" stroke-miterlimit="10"/>
<g opacity="0.7">
<path opacity="0.7" d="M260.256 134.705L260.285 134.659C260.344 134.562 260.402 134.461 260.459 134.356L260.49 134.299C260.545 134.2 260.598 134.099 260.647 133.996L260.673 133.945C260.73 133.827 260.784 133.709 260.832 133.584C260.935 133.337 261.025 133.083 261.1 132.824L261.129 132.724C261.155 132.631 261.18 132.537 261.203 132.443L261.232 132.31C261.251 132.225 261.268 132.139 261.283 132.052C261.283 132.004 261.3 131.955 261.309 131.907C261.317 131.858 261.334 131.737 261.346 131.65C261.357 131.562 261.346 131.55 261.363 131.501C261.38 131.453 261.38 131.316 261.386 131.223C261.386 131.18 261.386 131.135 261.386 131.092C261.386 130.956 261.386 130.817 261.386 130.681V105.673H257.436V93.4164H252.589V105.673H249.247V88.0692H244.4V105.673H242.577V85.553H237.73V105.673H233.453V130.684C233.453 134.765 236.649 138.072 240.581 138.072H254.268C255.387 138.076 256.492 137.803 257.494 137.275C258.496 136.746 259.368 135.976 260.04 135.026C260.11 134.919 260.182 134.812 260.256 134.705Z" fill="url(#paint3_linear)"/>
</g>
<path d="M242.863 97.1952H238.3V127.474H242.863V97.1952Z" fill="#535461"/>
<path d="M242.863 87.2032H238.3V97.1952H242.863V87.2032Z" fill="#3AD29F"/>
<path d="M249.136 99.6176H244.573V129.896H249.136V99.6176Z" fill="#535461"/>
<path d="M249.136 89.6255H244.573V99.6175H249.136V89.6255Z" fill="#4D8AF0"/>
<path d="M256.835 104.765H252.272V135.044H256.835V104.765Z" fill="#535461"/>
<path d="M256.835 94.7729H252.272V104.765H256.835V94.7729Z" fill="#F55F44"/>
<path d="M234.308 106.582H260.542V130.653C260.542 132.541 259.836 134.35 258.579 135.685C257.322 137.019 255.618 137.769 253.841 137.769H241.009C239.232 137.769 237.528 137.019 236.271 135.685C235.014 134.35 234.308 132.541 234.308 130.653V106.582Z" fill="#3787FF"/>
<g opacity="0.1">
<path opacity="0.1" d="M234.308 106.582V107.793H259.401V131.865C259.403 133.456 258.901 135.001 257.975 136.252C258.775 135.587 259.422 134.737 259.867 133.767C260.312 132.797 260.542 131.732 260.542 130.653V106.582H234.308Z" fill="black"/>
</g>
<defs>
<linearGradient id="paint0_linear" x1="138.357" y1="142.023" x2="138.357" y2="0" gradientUnits="userSpaceOnUse">
<stop stop-color="#808080" stop-opacity="0.25"/>
<stop offset="0.54" stop-color="#808080" stop-opacity="0.12"/>
<stop offset="1" stop-color="#808080" stop-opacity="0.1"/>
</linearGradient>
<linearGradient id="paint1_linear" x1="45796.4" y1="14739.3" x2="45796.4" y2="4064.82" gradientUnits="userSpaceOnUse">
<stop stop-color="#808080" stop-opacity="0.25"/>
<stop offset="0.54" stop-color="#808080" stop-opacity="0.12"/>
<stop offset="1" stop-color="#808080" stop-opacity="0.1"/>
</linearGradient>
<linearGradient id="paint2_linear" x1="6440.87" y1="43853.6" x2="14778.2" y2="43853.6" gradientUnits="userSpaceOnUse">
<stop stop-color="#808080" stop-opacity="0.25"/>
<stop offset="0.54" stop-color="#808080" stop-opacity="0.12"/>
<stop offset="1" stop-color="#808080" stop-opacity="0.1"/>
</linearGradient>
<linearGradient id="paint3_linear" x1="26294.6" y1="29930.9" x2="29032" y2="29930.9" gradientUnits="userSpaceOnUse">
<stop stop-color="#808080" stop-opacity="0.25"/>
<stop offset="0.54" stop-color="#808080" stop-opacity="0.12"/>
<stop offset="1" stop-color="#808080" stop-opacity="0.1"/>
</linearGradient>
</defs>
</svg>
