<svg width="238" height="176" viewBox="0 0 238 176" fill="none" xmlns="http://www.w3.org/2000/svg">
<g clip-path="url(#clip0)">
<path d="M171.267 104.409L173.139 103.256C173.317 103.144 173.493 103.024 173.673 102.911C169.658 102.222 165.998 100.185 163.301 97.1375C160.604 94.09 159.03 90.2146 158.84 86.1528C158.703 83.3594 159.232 80.5733 160.384 78.0238C161.457 75.6384 163.042 73.517 165.025 71.8091C167.009 70.1012 169.344 68.8483 171.866 68.1389L171.773 75.4925L175.821 67.4886C175.838 67.4859 175.855 67.4859 175.871 67.4886C178.217 67.3793 180.561 67.7321 182.77 68.527C184.979 69.3218 187.01 70.5431 188.746 72.1211C190.482 73.6992 191.889 75.603 192.888 77.7238C193.887 79.8447 194.457 82.1412 194.567 84.482C194.582 84.8222 194.567 85.1573 194.567 85.4825C195.975 83.8792 197.253 82.1609 198.101 80.2774C199.815 76.463 199.855 72.1434 199.712 66.8933C199.442 56.4881 198.993 46.0054 198.406 35.5527C194.18 35.0843 190.26 33.1272 187.349 30.0331C184.439 26.939 182.73 22.9107 182.528 18.6718C182.503 18.124 182.511 17.5863 182.528 17.051C182.528 16.9184 182.528 16.7834 182.548 16.6508C182.584 16.133 182.631 15.6203 182.711 15.115C182.711 15.03 182.741 14.9499 182.756 14.8649C182.83 14.4364 182.918 14.0128 183.02 13.5943C183.06 13.4392 183.097 13.2816 183.14 13.1265C183.265 12.6713 183.391 12.2236 183.564 11.7809C183.616 11.6333 183.679 11.4907 183.734 11.3457C183.862 11.0205 184 10.7003 184.145 10.3827C184.223 10.2151 184.298 10.05 184.381 9.88243C184.401 9.83991 184.418 9.79738 184.441 9.75486C186.328 6.03511 189.461 3.09288 193.297 1.4396C197.132 -0.213688 201.427 -0.473485 205.434 0.705365L205.314 10.2751L209.324 2.37119C212.614 4.25018 215.215 7.1295 216.748 10.5886C218.281 14.0477 218.666 17.9054 217.846 21.5983H217.866C217.839 21.7258 217.798 21.8484 217.768 21.9734C217.713 22.2086 217.653 22.4412 217.588 22.6738C217.503 22.9714 217.407 23.2641 217.31 23.5567C217.234 23.7743 217.162 23.9969 217.079 24.212C216.959 24.5272 216.828 24.8349 216.683 25.1425C216.603 25.3226 216.53 25.5052 216.432 25.6828C216.204 26.143 215.953 26.5932 215.681 27.0335C215.588 27.186 215.483 27.3311 215.385 27.4837C215.194 27.7788 215.001 28.0715 214.793 28.3566C214.665 28.5317 214.528 28.6993 214.392 28.8719C214.197 29.122 213.996 29.3721 213.788 29.5997C213.64 29.7673 213.49 29.9324 213.335 30.1C213.116 30.3301 212.891 30.5527 212.658 30.7728C212.505 30.9204 212.35 31.068 212.189 31.208C211.926 31.4406 211.65 31.6633 211.372 31.8809C211.232 31.9909 211.096 32.106 210.951 32.211C210.528 32.5245 210.091 32.8188 209.64 33.094C209.555 33.144 209.465 33.1865 209.389 33.2365C209.014 33.4591 208.638 33.6667 208.234 33.8618C208.066 33.9444 207.891 34.0169 207.718 34.0945C207.394 34.2395 207.069 34.3796 206.735 34.5072C206.542 34.5797 206.344 34.6472 206.146 34.7148C205.818 34.8273 205.484 34.9299 205.144 35.0224C204.943 35.0774 204.745 35.1325 204.542 35.18C204.176 35.2675 203.803 35.3401 203.427 35.4026C203.402 35.4026 203.379 35.4026 203.354 35.4176C203.601 39.8265 203.821 44.2378 204.013 48.6517C205.079 46.4677 206.581 44.5241 208.427 42.94C210.273 41.356 212.423 40.1651 214.747 39.4402C217.07 38.7153 219.518 38.4718 221.939 38.7246C224.36 38.9774 226.704 39.7212 228.827 40.9103L225.666 49.5521L232.168 43.3215C235.648 46.505 237.721 50.936 237.932 55.6427C238.015 57.2942 237.862 58.949 237.479 60.5576C236.662 64.0387 234.816 67.1945 232.18 69.6156C229.543 72.0367 226.239 73.6113 222.695 74.1352C219.151 74.6591 215.531 74.108 212.305 72.5535C209.079 70.999 206.395 68.5129 204.602 65.4175C204.602 65.8653 204.635 66.3155 204.647 66.7632C204.765 71.3955 204.913 77.1584 202.6 82.3059C201.033 85.7952 198.509 88.6291 196.015 91.1678C194.394 92.8212 192.712 94.4194 190.987 95.9677C189.292 98.2397 187.079 100.076 184.531 101.325C181.699 103.503 178.766 105.542 175.734 107.443L173.891 108.629C172.19 109.682 170.445 110.763 168.733 111.881C169.034 111.851 169.332 111.818 169.638 111.806C173.427 111.628 177.175 112.658 180.339 114.745C183.504 116.833 185.922 119.87 187.243 123.419L176.069 132.496L188.351 129.652C188.347 132.669 187.578 135.637 186.113 138.277C184.649 140.917 182.538 143.143 179.978 144.748C177.418 146.354 174.491 147.285 171.472 147.455C168.454 147.625 165.441 147.029 162.715 145.722C162.991 146.068 163.269 146.41 163.545 146.753C164.094 147.436 164.64 148.114 165.174 148.786C172.443 157.974 174.468 166.698 170.866 173.349L166.49 170.988C169.999 164.514 164.735 156.23 161.269 151.863C160.745 151.203 160.209 150.537 159.668 149.862C155.023 144.109 149.76 137.576 149.893 129.569C150.081 117.513 161.833 110.242 171.267 104.409Z" fill="#F2F2F2"/>
<path d="M114.166 176C177.219 176 228.333 173.648 228.333 170.747C228.333 167.846 177.219 165.495 114.166 165.495C51.114 165.495 0 167.846 0 170.747C0 173.648 51.114 176 114.166 176Z" fill="#3F3D56"/>
<path d="M206.399 168.789C207.151 167.411 206.299 165.722 205.327 164.492C204.354 163.261 203.169 161.991 203.194 160.417C203.229 158.166 205.622 156.838 207.537 155.645C208.955 154.759 210.263 153.708 211.435 152.516C211.926 152.057 212.333 151.515 212.635 150.915C213.029 150.035 213.019 149.034 212.994 148.069C212.91 144.857 212.751 141.649 212.517 138.444" stroke="#3F3D56" stroke-width="4" stroke-miterlimit="10"/>
<path d="M216.154 138.274C216.126 137.686 215.951 137.115 215.644 136.612C215.338 136.11 214.91 135.692 214.4 135.397L213.613 136.953L213.635 135.072C213.097 134.911 212.528 134.882 211.976 134.986C211.424 135.09 210.905 135.325 210.462 135.671C210.02 136.017 209.668 136.464 209.435 136.975C209.202 137.485 209.095 138.044 209.124 138.604C209.168 139.533 209.579 140.406 210.268 141.032C210.61 141.341 211.009 141.581 211.443 141.737C211.877 141.893 212.337 141.962 212.798 141.94C213.259 141.919 213.711 141.807 214.128 141.611C214.546 141.415 214.92 141.139 215.231 140.798C215.541 140.458 215.782 140.059 215.938 139.626C216.094 139.193 216.163 138.734 216.142 138.274H216.154Z" fill="#57B793"/>
<path d="M209.881 162.036C209.512 162.75 208.909 163.316 208.173 163.639C207.436 163.962 206.61 164.022 205.834 163.81C205.058 163.598 204.378 163.126 203.909 162.473C203.44 161.821 203.21 161.027 203.258 160.226C203.306 159.424 203.628 158.663 204.171 158.07C204.714 157.477 205.445 157.089 206.24 156.97C207.036 156.851 207.849 157.008 208.542 157.416C209.236 157.824 209.767 158.457 210.049 159.209L207.853 160.993L210.269 160.432C210.27 160.99 210.136 161.54 209.881 162.036Z" fill="#57B793"/>
<path d="M208.144 155.21C207.682 155.232 207.221 155.163 206.786 155.007C206.351 154.85 205.952 154.61 205.61 154.299C205.269 153.989 204.993 153.614 204.797 153.196C204.601 152.778 204.49 152.326 204.469 151.865C204.441 151.316 204.545 150.768 204.773 150.267C204.983 149.798 205.294 149.381 205.684 149.044C206.074 148.708 206.533 148.461 207.028 148.321L207.011 149.769L207.808 148.194C208.74 148.15 209.652 148.478 210.342 149.105C211.032 149.732 211.444 150.607 211.487 151.538C211.531 152.468 211.202 153.378 210.574 154.066C209.945 154.755 209.069 155.166 208.136 155.21H208.144Z" fill="#57B793"/>
<path d="M216.683 149.529C215.752 149.573 214.843 149.246 214.153 148.62C213.464 147.995 213.053 147.121 213.009 146.193C212.965 145.264 213.292 144.356 213.919 143.668C214.547 142.981 215.422 142.57 216.352 142.526C217.01 142.493 217.664 142.648 218.237 142.971L217.615 144.672L218.894 143.446C219.58 144.072 219.989 144.944 220.032 145.87C220.048 146.194 220.017 146.52 219.941 146.835C219.766 147.577 219.353 148.241 218.765 148.728C218.177 149.214 217.446 149.495 216.683 149.529Z" fill="#57B793"/>
<path opacity="0.1" d="M215.681 139.199C214.868 139.289 214.079 139.542 213.264 139.592C212.45 139.642 211.555 139.447 211.039 138.814C210.76 138.474 210.623 138.044 210.387 137.673C210.165 137.327 209.861 137.041 209.502 136.841C209.29 137.283 209.173 137.766 209.16 138.256C209.147 138.747 209.237 139.235 209.424 139.688C209.612 140.142 209.893 140.551 210.25 140.889C210.606 141.228 211.03 141.487 211.493 141.651C211.957 141.816 212.45 141.881 212.94 141.843C213.43 141.805 213.907 141.664 214.339 141.431C214.772 141.197 215.15 140.875 215.45 140.486C215.75 140.096 215.964 139.649 216.079 139.172C215.944 139.177 215.811 139.187 215.681 139.199Z" fill="black"/>
<path opacity="0.1" d="M216.683 149.529C216.076 149.56 215.472 149.433 214.929 149.161C214.387 148.889 213.924 148.48 213.587 147.976C213.25 147.472 213.049 146.889 213.005 146.284C212.962 145.68 213.076 145.074 213.337 144.527C213.616 144.715 213.856 144.955 214.044 145.235C214.295 145.612 214.445 146.048 214.741 146.395C215.287 147.038 216.224 147.248 217.074 147.208C217.924 147.168 218.741 146.931 219.581 146.853C219.696 146.853 219.816 146.833 219.934 146.831C219.76 147.572 219.348 148.236 218.762 148.723C218.175 149.211 217.445 149.493 216.683 149.529Z" fill="black"/>
<path opacity="0.1" d="M208.144 155.21C207.682 155.232 207.221 155.163 206.786 155.007C206.351 154.85 205.952 154.61 205.61 154.299C205.269 153.989 204.993 153.614 204.797 153.196C204.601 152.778 204.49 152.326 204.469 151.866C204.441 151.316 204.545 150.768 204.773 150.267C205.064 150.458 205.319 150.699 205.525 150.98C205.798 151.365 205.968 151.808 206.277 152.163C206.871 152.823 207.868 153.056 208.768 153.034C209.668 153.011 210.477 152.801 211.344 152.736C211.13 153.427 210.708 154.035 210.136 154.477C209.563 154.92 208.867 155.176 208.144 155.21Z" fill="black"/>
<path opacity="0.1" d="M209.881 162.036C209.691 162.456 209.421 162.835 209.085 163.151C208.749 163.467 208.354 163.714 207.922 163.877C207.491 164.041 207.031 164.118 206.57 164.104C206.108 164.091 205.654 163.987 205.233 163.798C204.812 163.609 204.432 163.339 204.115 163.004C203.798 162.668 203.551 162.274 203.387 161.843C203.223 161.413 203.146 160.954 203.16 160.493C203.173 160.033 203.278 159.579 203.467 159.159C203.756 159.351 204.016 159.582 204.239 159.847C204.572 160.255 204.793 160.715 205.181 161.098C205.901 161.8 207.061 162.098 208.094 162.118C208.69 162.126 209.287 162.098 209.881 162.036Z" fill="black"/>
<path d="M201.096 167.201C201.096 167.201 203.87 167.116 204.708 166.52C205.545 165.925 208.968 165.215 209.186 166.17C209.405 167.126 213.36 170.922 210.224 170.937C207.089 170.952 202.941 170.437 202.106 169.937C201.271 169.437 201.096 167.201 201.096 167.201Z" fill="#656380"/>
<path opacity="0.2" d="M210.279 170.605C207.146 170.63 202.996 170.105 202.161 169.604C201.527 169.219 201.271 167.831 201.189 167.191H201.096C201.096 167.191 201.271 169.424 202.098 169.942C202.926 170.46 207.081 170.962 210.217 170.942C211.121 170.942 211.435 170.612 211.417 170.137C211.299 170.42 210.954 170.6 210.279 170.605Z" fill="black"/>
<path d="M48.7269 161.073C46.9072 157.711 48.9775 153.594 51.3436 150.597C53.7096 147.601 56.607 144.484 56.5443 140.665C56.4541 135.177 50.6192 131.938 45.9573 129.029C42.498 126.87 39.3068 124.31 36.4505 121.403C35.3051 120.235 34.1948 118.989 33.5281 117.498C32.5656 115.352 32.5907 112.914 32.6533 110.562C32.8539 102.725 33.2415 94.903 33.8163 87.0958" stroke="#3F3D56" stroke-width="4" stroke-miterlimit="10"/>
<path d="M24.9512 86.6681C25.0199 85.2363 25.4478 83.8447 26.1958 82.621C26.9438 81.3973 27.9879 80.3807 29.2321 79.6646L31.152 83.454L31.0944 78.8667C32.8386 78.3538 34.701 78.4074 36.4127 79.0197C38.1244 79.6319 39.5968 80.7713 40.6173 82.2731C41.6379 83.775 42.1537 85.5616 42.0904 87.3751C42.027 89.1886 41.3878 90.9351 40.2649 92.3624C39.1421 93.7897 37.5938 94.8239 35.8435 95.3158C34.0932 95.8076 32.2316 95.7316 30.5274 95.0988C28.8233 94.466 27.3647 93.309 26.3624 91.795C25.3601 90.2809 24.8659 88.4882 24.9512 86.6756V86.6681Z" fill="#57B793"/>
<path d="M40.2452 144.587C41.1074 146.264 42.5005 147.61 44.208 148.415C45.9154 149.221 47.8417 149.441 49.6875 149.042C51.5333 148.642 53.1953 147.646 54.4153 146.207C55.6353 144.768 56.3449 142.968 56.434 141.085C56.4939 139.902 56.3035 138.719 55.8751 137.613C55.2489 135.992 54.1432 134.6 52.7048 133.621C51.2664 132.642 49.5636 132.123 47.8226 132.133C46.0816 132.143 44.3849 132.681 42.958 133.677C41.5311 134.672 40.4416 136.078 39.8342 137.706L45.1903 142.053L39.2978 140.685C39.2954 142.043 39.6203 143.381 40.2452 144.587Z" fill="#57B793"/>
<path d="M44.4785 127.974C46.5813 128.07 48.6459 127.391 50.2795 126.066C51.913 124.741 53.0013 122.863 53.3372 120.789C53.6732 118.715 53.2332 116.591 52.1011 114.82C50.969 113.049 49.2239 111.755 47.1979 111.185L47.2431 114.71L45.3131 110.875H45.2906C43.0182 110.769 40.7967 111.569 39.1149 113.097C37.4331 114.626 36.4287 116.759 36.3227 119.027C36.2167 121.294 37.0177 123.511 38.5495 125.19C40.0814 126.868 42.2186 127.87 44.491 127.976L44.4785 127.974Z" fill="#57B793"/>
<path d="M23.6604 114.149C24.9881 114.214 26.3126 113.97 27.5295 113.436C28.7463 112.902 29.8222 112.093 30.6722 111.073C31.5221 110.053 32.1229 108.85 32.4271 107.559C32.7312 106.267 32.7305 104.923 32.4249 103.632C32.1192 102.341 31.5171 101.139 30.666 100.12C29.8149 99.1009 28.7381 98.2933 27.5207 97.7608C26.3032 97.2283 24.9784 96.9855 23.6507 97.0515C22.3231 97.1175 21.0291 97.4906 19.8707 98.1413L21.3745 102.286L18.2691 99.2919C17.439 100.046 16.7659 100.956 16.2885 101.969C15.8112 102.983 15.5388 104.081 15.487 105.2C15.4472 105.992 15.5206 106.785 15.7051 107.556C16.1314 109.369 17.1389 110.994 18.5746 112.184C20.0104 113.374 21.796 114.064 23.6604 114.149Z" fill="#57B793"/>
<path opacity="0.1" d="M26.1041 88.9492C28.0842 89.1668 30.0091 89.7796 31.9942 89.9022C33.9792 90.0247 36.1623 89.552 37.418 88.0112C38.0948 87.1808 38.4331 86.1303 39.0046 85.2249C39.5461 84.3812 40.2883 83.6843 41.1651 83.1964C41.7111 84.281 42.0197 85.4691 42.0704 86.6818C42.1211 87.8945 41.9127 89.1042 41.4592 90.2304C41.0056 91.3567 40.3172 92.3737 39.4396 93.2142C38.5621 94.0546 37.5154 94.6992 36.3692 95.1051C35.2229 95.511 34.0032 95.669 32.7911 95.5685C31.579 95.4681 30.4022 95.1115 29.3387 94.5225C28.2752 93.9334 27.3494 93.1254 26.6228 92.152C25.8962 91.1786 25.3853 90.0622 25.1241 88.8767C25.4575 88.8917 25.7833 88.9142 26.1041 88.9492Z" fill="black"/>
<path opacity="0.1" d="M23.6604 114.149C25.1383 114.217 26.6087 113.903 27.9289 113.237C29.2491 112.57 30.3742 111.575 31.1952 110.346C32.0161 109.118 32.5049 107.699 32.6142 106.227C32.7234 104.754 32.4494 103.279 31.8188 101.943C31.1378 102.4 30.5522 102.985 30.0944 103.664C29.4828 104.584 29.1144 105.648 28.395 106.493C27.0591 108.059 24.7783 108.571 22.708 108.479C20.6377 108.386 18.6401 107.796 16.5799 107.608C16.2941 107.583 16.0034 107.563 15.7151 107.556C16.141 109.368 17.147 110.991 18.5807 112.181C20.0145 113.371 21.7978 114.062 23.6604 114.149Z" fill="black"/>
<path opacity="0.1" d="M44.4786 127.974C45.942 128.042 47.3987 127.735 48.7095 127.083C50.0204 126.43 51.1418 125.453 51.9668 124.244C52.7917 123.036 53.2926 121.637 53.4218 120.181C53.5509 118.724 53.304 117.259 52.7046 115.925C51.9983 116.393 51.3842 116.987 50.8924 117.676C50.2257 118.614 49.8097 119.694 49.0302 120.56C47.584 122.168 45.1528 122.736 42.9597 122.683C40.8368 122.638 38.7915 122.118 36.6812 121.956C37.2036 123.637 38.2325 125.116 39.6277 126.193C41.0229 127.27 42.7167 127.892 44.4786 127.974Z" fill="black"/>
<path opacity="0.1" d="M40.2452 144.587C41.1075 146.264 42.5005 147.61 44.208 148.415C45.9155 149.221 47.8417 149.441 49.6875 149.042C51.5333 148.642 53.1953 147.646 54.4153 146.207C55.6353 144.768 56.345 142.968 56.4341 141.085C56.4939 139.902 56.3035 138.719 55.8751 137.613C55.1695 138.076 54.5361 138.64 53.9953 139.287C53.1808 140.287 52.6419 141.403 51.6995 142.328C49.945 144.044 47.1153 144.754 44.5963 144.829C43.1425 144.835 41.6895 144.753 40.2452 144.587Z" fill="black"/>
<path d="M108.081 166.07L74.9964 172.823L74.2445 172.748L45.1703 169.822V133.054L80.7611 127.051L106.577 130.052L106.585 130.215L106.587 130.295L108.081 166.07Z" fill="#3787FF"/>
<path opacity="0.1" d="M108.081 166.07L74.9964 172.823L74.2445 172.748V135.055L106.585 130.215L108.081 166.07Z" fill="black"/>
<path opacity="0.05" d="M106.587 130.295L106.577 130.302L74.2445 135.055L45.1703 133.054L80.7611 127.051L106.577 130.052L106.585 130.215L106.587 130.295Z" fill="black"/>
<path d="M144.424 167.571L111.339 174.324L110.587 174.249L81.5131 171.323V134.554L117.104 128.551L142.92 131.553L142.927 131.715L142.93 131.795L144.424 167.571Z" fill="#3F3D56"/>
<path opacity="0.1" d="M144.424 167.571L111.339 174.324L110.587 174.249V136.555L142.927 131.715L144.424 167.571Z" fill="black"/>
<path opacity="0.05" d="M142.93 131.795L142.92 131.803L110.587 136.555L81.5131 134.554L117.104 128.551L142.92 131.553L142.927 131.715L142.93 131.795Z" fill="black"/>
<path d="M121.615 131.553L88.531 138.306L87.779 138.231L58.7048 135.305V98.5365L94.2957 92.5335L120.112 95.535L120.119 95.6976L120.122 95.7776L121.615 131.553Z" fill="#3F3D56"/>
<path opacity="0.1" d="M121.615 131.553L88.531 138.306L87.7791 138.231V100.537L120.119 95.6976L121.615 131.553Z" fill="black"/>
<path opacity="0.05" d="M120.122 95.7776L120.112 95.7851L87.7791 100.537L58.7048 98.5365L94.2957 92.5335L120.112 95.535L120.119 95.6976L120.122 95.7776Z" fill="black"/>
<path d="M140.413 133.094L123.147 136.62L122.753 136.58L107.58 135.052V115.863L126.154 112.729L139.629 114.297L139.634 114.382V114.422L140.413 133.094Z" fill="#3F3D56"/>
<path opacity="0.1" d="M140.413 133.094L123.147 136.62L122.753 136.58V116.908L139.634 114.382L140.413 133.094Z" fill="black"/>
<path opacity="0.05" d="M139.634 114.422L139.629 114.427L122.753 116.908L107.58 115.863L126.155 112.729L139.629 114.297L139.634 114.382V114.422Z" fill="black"/>
<path d="M94.045 95.8251L76.7785 99.3494L76.385 99.3119L61.2112 97.7836V78.5941L79.7861 75.46L93.2605 77.0283L93.2656 77.1133V77.1534L94.045 95.8251Z" fill="#3F3D56"/>
<path opacity="0.1" d="M94.045 95.8251L76.7784 99.3494L76.3849 99.3119V79.6396L93.2655 77.1133L94.045 95.8251Z" fill="black"/>
<path opacity="0.05" d="M93.2656 77.1534L93.2606 77.1584L76.385 79.6396L61.2112 78.5941L79.7862 75.46L93.2606 77.0283L93.2656 77.1133V77.1534Z" fill="black"/>
<path d="M124.372 95.0748L107.106 98.599L106.712 98.5615L91.5386 97.0333V77.8437L110.114 74.7097L123.588 76.2779L123.593 76.363V76.403L124.372 95.0748Z" fill="#3787FF"/>
<path opacity="0.1" d="M124.372 95.0748L107.106 98.5991L106.712 98.5615V78.8892L123.593 76.363L124.372 95.0748Z" fill="black"/>
<path opacity="0.05" d="M123.593 76.403L123.588 76.408L106.712 78.8892L91.5386 77.8437L110.114 74.7097L123.588 76.2779L123.593 76.363V76.403Z" fill="black"/>
<path d="M133.396 75.8152L116.129 79.3395L115.735 79.3019L100.562 77.7737V58.5841L119.137 55.4501L132.611 57.0184L132.616 57.1034V57.1434L133.396 75.8152Z" fill="#3F3D56"/>
<path opacity="0.1" d="M133.395 75.8152L116.129 79.3394L115.735 79.3019V59.6296L132.616 57.1034L133.395 75.8152Z" fill="black"/>
<path opacity="0.05" d="M132.616 57.1434L132.611 57.1484L115.735 59.6297L100.562 58.5841L119.137 55.4501L132.611 57.0184L132.616 57.1034V57.1434Z" fill="black"/>
<path d="M145.156 36.5857C144.973 38.2115 143.729 39.5222 143.268 41.0879C142.576 43.4516 143.77 45.9904 145.414 47.8413C146.739 49.312 148.343 50.5056 150.134 51.3532C151.924 52.2007 153.866 52.6852 155.845 52.7787C156.427 52.8287 157.013 52.765 157.57 52.5911C158.066 52.3897 158.513 52.0843 158.881 51.6957C160.114 50.4576 160.778 48.7442 161.041 47.0159C161.304 45.2875 161.204 43.5291 161.101 41.7858C161.101 41.425 161.035 41.0673 160.906 40.7302C160.738 40.4097 160.507 40.1264 160.227 39.8973C159.338 39.0821 158.358 38.3712 157.307 37.7788C156.855 37.5287 156.372 37.2785 156.083 36.8458C155.886 36.5012 155.757 36.1215 155.705 35.7278L155.382 34.0869C155.324 33.6139 155.163 33.1593 154.908 32.7563C154.339 31.9909 153.249 31.8859 152.294 31.8483L148.785 31.7108C147.695 31.6682 146.261 31.3556 145.196 31.5707C144.193 31.7683 144.531 32.6837 144.712 33.5142C144.973 34.5185 145.122 35.5486 145.156 36.5857Z" fill="#FFC0C6"/>
<path opacity="0.1" d="M145.156 36.5857C144.973 38.2115 143.729 39.5222 143.268 41.0879C142.576 43.4516 143.77 45.9904 145.414 47.8413C146.739 49.312 148.343 50.5056 150.134 51.3532C151.924 52.2007 153.866 52.6852 155.845 52.7787C156.427 52.8287 157.013 52.765 157.57 52.5911C158.066 52.3897 158.513 52.0843 158.881 51.6957C160.114 50.4576 160.778 48.7442 161.041 47.0159C161.304 45.2875 161.204 43.5291 161.101 41.7858C161.101 41.425 161.035 41.0673 160.906 40.7302C160.738 40.4097 160.507 40.1264 160.227 39.8973C159.338 39.0821 158.358 38.3712 157.307 37.7788C156.855 37.5287 156.372 37.2785 156.083 36.8458C155.886 36.5012 155.757 36.1215 155.705 35.7278L155.382 34.0869C155.324 33.6139 155.163 33.1593 154.908 32.7563C154.339 31.9909 153.249 31.8859 152.294 31.8483L148.785 31.7108C147.695 31.6682 146.261 31.3556 145.196 31.5707C144.193 31.7683 144.531 32.6837 144.712 33.5142C144.973 34.5185 145.122 35.5486 145.156 36.5857Z" fill="black"/>
<path d="M167.44 109.812L165.951 126.1C165.563 130.372 165.167 134.662 164.405 138.879C164.154 140.332 163.833 141.778 163.467 143.211C162.45 147.191 160.973 151.08 160.497 155.16C160.482 155.277 160.47 155.41 160.457 155.517C160.359 156.418 160.274 157.328 159.956 158.169C159.705 158.791 159.352 159.359 159.094 159.975C158.592 161.205 158.512 162.566 158.449 163.899C156.643 162.881 154.664 162.203 152.612 161.898C151.609 161.75 150.519 161.648 149.855 160.898C149.103 160.082 149.191 158.834 149.316 157.738C149.71 154.337 150.103 150.937 150.494 147.538C150.624 146.076 150.876 144.627 151.246 143.206C151.381 142.733 151.544 142.268 151.71 141.803C151.938 141.163 152.168 140.522 152.341 139.865C152.581 138.808 152.747 137.735 152.838 136.655C153.241 133.234 153.727 129.82 154.153 126.4L154.176 126.22C154.815 121.038 155.301 115.83 155.161 110.61C155.141 109.837 155.108 109.064 155.058 108.289C154.988 107.166 154.885 106.57 155.81 105.868C156.84 105.092 158.196 104.549 159.374 104.042C160.008 103.767 166.991 101.29 167.144 101.836C167.468 102.994 167.637 104.19 167.645 105.392C167.66 106.868 167.591 108.344 167.44 109.812Z" fill="#605D82"/>
<path opacity="0.1" d="M164.405 138.879C164.154 140.332 163.833 141.778 163.467 143.211C162.45 147.191 160.973 151.08 160.497 155.16C160.482 155.277 160.47 155.41 160.457 155.517C157.344 151.08 154.722 146.308 151.685 141.823C151.913 141.183 152.143 140.542 152.316 139.885C152.566 138.822 152.74 137.743 152.838 136.655C153.241 133.234 153.727 129.82 154.153 126.4L154.176 126.22C154.352 126.946 154.604 127.651 154.928 128.324C156.968 132.461 161.816 134.552 164.187 138.511C164.265 138.635 164.338 138.757 164.405 138.879Z" fill="black"/>
<path d="M139.145 102.506C139.248 105.823 139.779 109.112 140.311 112.388L141.406 119.142C142.005 122.844 142.632 126.618 144.386 129.932C145.699 132.413 147.589 134.529 149.301 136.753C153.507 142.221 156.667 148.416 160.655 154.044C161.815 155.68 163.472 157.451 165.45 157.108C166.748 156.885 167.69 155.805 168.708 154.975C169.911 153.994 171.36 153.276 172.307 152.046C173.255 150.815 173.44 148.774 172.157 147.899C171.718 147.601 171.184 147.488 170.688 147.298C168.701 146.548 167.412 144.607 166.595 142.646C165.778 140.685 165.279 138.581 164.189 136.758C161.818 132.799 156.968 130.707 154.928 126.568C153.785 124.252 153.675 121.565 153.589 118.997L153.366 112.416C153.341 111.696 153.324 110.948 153.617 110.29C154.397 108.539 156.753 108.374 158.662 108.151C160.828 107.899 162.927 107.239 164.846 106.205C165.946 105.613 167.019 104.857 167.603 103.757C168.139 102.756 168.212 101.578 168.274 100.442L168.936 88.514C168.994 87.4885 169.044 86.4255 168.686 85.465C167.776 83.0488 164.718 82.2584 162.134 82.3735C157.327 82.5886 152.89 84.6521 148.349 86.0478C147.223 86.393 146.093 86.7031 144.932 86.9357C143.93 87.1383 142.677 87.0558 141.714 87.3809C139.99 87.9612 140.032 91.7281 139.789 93.2889C139.288 96.3345 139.072 99.4203 139.145 102.506Z" fill="#605D82"/>
<path d="M164.798 157.613C165.222 158.041 165.36 158.666 165.47 159.257C166.083 162.533 166.401 165.857 166.422 169.189C166.395 169.5 166.457 169.812 166.6 170.09C166.72 170.254 166.882 170.383 167.069 170.465C168.295 171.048 169.716 170.235 170.738 169.342C172.631 167.688 174.232 165.467 174.34 162.959C174.368 162.313 174.295 161.66 174.408 161.023C174.573 160.077 175.127 159.254 175.613 158.429C176.445 157.022 177.118 155.527 177.618 153.972C177.804 153.386 177.929 152.651 177.468 152.243C177.306 152.115 177.122 152.019 176.924 151.961L171.385 149.91C170.904 149.732 169.711 152.791 169.523 153.126C169.059 153.944 168.598 154.407 167.668 154.597C166.738 154.787 165.59 154.512 164.703 154.985C163.199 155.782 163.948 156.76 164.798 157.613Z" fill="#535070"/>
<path d="M156.256 159.502C156.154 159.298 156.01 159.116 155.835 158.969C155.579 158.806 155.288 158.708 154.986 158.681C153.933 158.501 152.685 158.384 151.955 159.167C151.274 159.899 151.391 161.093 150.822 161.918C150.642 162.168 150.396 162.393 150.241 162.668C150.048 163.09 149.962 163.552 149.99 164.014C149.96 165.287 149.93 166.565 150.02 167.836C150.093 168.901 150.271 170.02 150.94 170.855C152.013 172.196 153.948 172.388 155.662 172.473L157.053 172.546C157.436 172.59 157.823 172.555 158.191 172.441C158.419 172.336 158.624 172.187 158.793 172.002C158.961 171.816 159.091 171.599 159.174 171.363C159.898 169.567 158.753 167.633 158.046 165.832C157.231 163.759 157.377 161.46 156.256 159.502Z" fill="#535070"/>
<path d="M144.754 27.4186C144.737 27.2366 144.763 27.0529 144.832 26.8834C145.035 26.5257 145.567 26.6332 145.968 26.7233C147.579 27.1285 149.278 26.7608 150.94 26.8559C152.602 26.9509 154.472 27.7788 154.805 29.4046C156.011 28.5532 157.05 27.4884 157.87 26.2631C158.332 25.5752 158.733 24.7873 158.67 23.9619C158.58 22.7713 157.58 21.8809 156.665 21.1255L153.908 18.8744C153.545 18.5419 153.125 18.276 152.67 18.089C152.033 17.8714 151.336 17.9764 150.665 17.9764C148.659 17.9764 146.509 17.0635 144.722 17.9764C143.97 18.3591 143.411 19.017 142.87 19.6573L140.406 22.5687C140.219 22.7543 140.083 22.9841 140.01 23.2366C139.94 23.5917 140.123 23.9419 140.188 24.2996C140.303 24.9499 140.022 25.6452 140.238 26.2706C140.596 27.3061 141.86 27.4536 142.632 28.0489C142.917 28.2691 143.368 29.0219 143.712 29.0119C144.316 28.9994 144.737 27.8989 144.754 27.4186Z" fill="#3F3D56"/>
<path d="M148.935 36.0054C153.295 36.0054 156.83 32.4779 156.83 28.1265C156.83 23.7751 153.295 20.2476 148.935 20.2476C144.575 20.2476 141.04 23.7751 141.04 28.1265C141.04 32.4779 144.575 36.0054 148.935 36.0054Z" fill="#FFC0C6"/>
<path d="M150.785 45.3676C150.517 44.6039 150.014 43.9448 149.347 43.4853C148.679 43.0259 147.883 42.7898 147.073 42.8113C146.84 42.8555 146.6 42.8249 146.386 42.7237C146.265 42.6314 146.168 42.5113 146.103 42.3736C145.624 41.5113 145.239 40.6007 144.952 39.6572C144.827 39.2395 144.654 38.7468 144.231 38.6392C143.89 38.5517 143.541 38.7718 143.313 39.0394C143.111 39.3266 142.892 39.6014 142.657 39.8623C141.654 40.7478 139.9 39.9399 138.849 40.7528C138.676 40.8853 138.534 41.0554 138.348 41.178C138.168 41.2877 137.973 41.3719 137.769 41.4281C135.731 42.0899 133.732 42.8691 131.784 43.7618C132.486 47.9739 133.202 52.266 134.847 56.2055C135.629 58.0814 136.513 59.9198 137.14 61.8533C138.529 66.1379 138.589 70.7227 138.606 75.2274C138.606 78.3089 138.606 81.4555 137.604 84.3719C137.378 85.0323 137.102 85.6876 137.04 86.3729C136.977 87.0583 137.183 87.8337 137.747 88.2439C138.073 88.4588 138.447 88.5902 138.837 88.6266C140.569 88.8767 142.313 88.4215 144.018 88.0263C148.587 86.9707 153.249 86.3654 157.898 85.7751L165.693 84.7746C166.252 84.7356 166.799 84.594 167.307 84.3569C168.733 83.5791 168.869 81.438 167.981 80.0773C167.558 79.4245 166.959 78.8892 166.6 78.1989C166.242 77.5085 166.214 76.5381 166.828 76.0603C168.082 75.0848 167.706 73.2764 167.766 71.6956C167.933 67.2734 167.91 62.8546 167.698 58.4391C167.634 57.5234 167.619 56.605 167.653 55.6877C167.741 54.1319 168.127 52.6087 168.513 51.0954L170.881 41.7908C170.262 40.8153 169.077 40.195 167.956 39.9149C166.836 39.6347 165.665 39.5522 164.56 39.2095C162.304 38.5092 160.279 36.7333 157.916 36.8983C157.736 36.9015 157.56 36.9442 157.399 37.0234C156.868 37.3261 156.951 38.0914 156.918 38.7017C156.843 40.0549 155.845 41.183 154.747 41.9759C153.65 42.7688 152.391 43.344 151.381 44.247C151.206 44.379 151.062 44.5477 150.959 44.7413C150.856 44.9349 150.796 45.1486 150.785 45.3676Z" fill="#3F3D56"/>
<path d="M119.503 54.1944C118.98 54.5337 118.424 54.8195 117.843 55.0474C117.292 55.265 116.703 55.4376 116.252 55.8177C116.028 56.0111 115.841 56.2423 115.698 56.5006C115.431 56.9735 115.296 57.5094 115.307 58.0522C115.318 58.595 115.475 59.1248 115.761 59.5865C116.047 60.0482 116.452 60.4248 116.934 60.677C117.416 60.9292 117.957 61.0477 118.5 61.0203C119.224 60.9828 119.909 60.6902 120.573 60.4025L126.142 57.9838C127.084 57.5761 128.102 57.1009 128.548 56.1754C128.599 56.0888 128.619 55.9871 128.603 55.8878C128.56 55.7788 128.478 55.6896 128.373 55.6377C127.118 54.8228 126.02 53.7892 125.132 52.5861C124.904 52.276 124.631 51.5456 124.3 51.358C123.122 50.7052 120.447 53.5841 119.503 54.1944Z" fill="#FFC0C6"/>
<path d="M179.035 52.231L181.087 54.5721C181.528 55.0724 181.969 55.5726 182.371 56.1129C183.357 57.4692 184.149 58.9569 184.722 60.5326C185.168 61.7007 185.539 62.9463 185.383 64.1869C185.279 64.8229 185.107 65.446 184.869 66.0453C184.493 67.1975 184.027 68.3183 183.473 69.397C183.011 70.2155 182.489 70.9989 181.912 71.7407C180.322 73.8431 178.582 75.8284 176.706 77.6811C176.004 78.3739 175.703 79.497 175.405 80.4325C174.841 82.1608 173.5 83.509 172.205 84.7846C171.788 85.2243 171.327 85.6199 170.829 85.9652C170.083 86.4456 169.21 86.6929 168.322 86.6756C167.935 86.6778 167.551 86.5985 167.197 86.443C166.31 86.0228 165.858 84.9997 165.766 84.0243C165.684 83.1379 165.832 82.2454 166.197 81.433C167.375 78.8292 170.4 77.7011 172.538 75.8002C173.791 74.6871 174.751 73.2864 175.698 71.9032C176.34 71.0387 176.876 70.1007 177.295 69.1093C177.771 67.8362 177.586 66.3305 178.004 65.0398C178.18 64.492 178.506 63.9993 178.684 63.4565C178.862 62.9138 178.922 62.2709 178.588 61.8032C178.339 61.5042 178.019 61.2707 177.658 61.1229C176.293 60.4325 174.764 59.5421 174.503 58.0338C174.399 57.1986 174.617 56.3551 175.114 55.6752C175.609 55.004 176.188 54.3987 176.836 53.8743C177.43 53.339 178.435 52.7462 179.035 52.231Z" fill="#FFC0C6"/>
<path d="M118.184 57.461C117.823 56.7307 117.37 55.9853 116.638 55.6226C116.282 55.4693 115.898 55.3902 115.51 55.3902C115.122 55.3902 114.738 55.4693 114.382 55.6226C113.673 55.9286 113.008 56.3291 112.407 56.8132L110.637 58.1164C110.236 58.3791 109.881 58.7061 109.587 59.0844C109.307 59.5432 109.121 60.0535 109.041 60.5851C108.79 61.8032 108.587 63.0563 108.763 64.2894C109.043 66.2904 110.246 68.0213 111.57 69.542C112.397 70.4875 113.42 71.443 114.678 71.4855C115.222 71.503 115.826 71.2879 116.051 70.7952C116.13 70.5994 116.172 70.3908 116.174 70.1799C116.309 67.9588 115.512 65.7902 114.585 63.7667C114.334 63.2164 114.064 62.6461 114.084 62.0433C114.076 61.941 114.102 61.839 114.159 61.7532C114.238 61.67 114.345 61.6177 114.46 61.6056C115.73 61.3555 117.921 62.341 118.811 60.9328C119.387 60.0023 118.595 58.289 118.184 57.461Z" fill="#FFC0C6"/>
<path d="M144.338 24.9399C144.323 24.7577 144.35 24.5743 144.419 24.4046C144.622 24.0445 145.153 24.1545 145.554 24.2446C147.166 24.6498 148.865 24.2821 150.527 24.3771C152.188 24.4722 154.056 25.3001 154.392 26.9259C155.596 26.0731 156.635 25.0085 157.457 23.7843C157.918 23.094 158.319 22.3061 158.256 21.4807C158.166 20.2901 157.164 19.3996 156.251 18.6468L153.494 16.3957C153.132 16.0632 152.714 15.7973 152.259 15.6103C151.62 15.3927 150.925 15.4977 150.254 15.4977C148.248 15.4977 146.098 14.5848 144.311 15.4977C143.559 15.8804 143 16.5382 142.459 17.1785L139.992 20.09C139.807 20.276 139.672 20.5057 139.599 20.7578C139.529 21.113 139.712 21.4632 139.777 21.8208C139.892 22.4712 139.611 23.1665 139.827 23.7893C140.185 24.8273 141.449 24.9749 142.221 25.5702C142.506 25.7903 142.957 26.5432 143.301 26.5332C143.895 26.5207 144.316 25.4201 144.338 24.9399Z" fill="#3F3D56"/>
<path d="M127.571 46.5306C127.252 46.7368 126.973 46.9966 126.744 47.2985C126.455 47.7362 126.395 48.299 126.147 48.7492C125.616 49.7347 124.37 50.0874 123.596 50.8953C123.47 51.0057 123.382 51.1527 123.345 51.3155C123.34 51.5355 123.414 51.75 123.553 51.9208L127.297 57.7937C128.551 57.9038 129.739 57.1234 130.987 57.2284C131.451 57.266 131.929 57.426 132.375 57.2885C132.694 57.1467 132.993 56.9643 133.265 56.7457C134.017 56.2755 135 56.2204 135.624 55.6026C136.248 54.9848 136.3 54.0769 136.293 53.234C136.304 52.5024 136.229 51.772 136.07 51.0579C135.518 48.8068 133.792 47.0709 132.709 45.0749C132.18 44.1019 131.894 43.5341 130.779 44.202C129.663 44.8698 128.626 45.7602 127.571 46.5306Z" fill="#3F3D56"/>
<path d="M173.039 43.5617C173.743 44.0177 174.378 44.5719 174.924 45.2075C175.493 45.9404 175.816 46.8408 176.365 47.5912C176.914 48.3416 177.618 48.8818 178.22 49.5522C179.135 50.5677 179.754 51.8033 180.36 53.0314C178.876 54.9593 177.257 56.7813 175.518 58.4841C175.324 58.7118 175.068 58.8786 174.781 58.9643C174.587 58.9852 174.39 58.9575 174.209 58.8837C174.028 58.8099 173.868 58.6924 173.743 58.5416C173.473 58.2615 173.282 57.9113 173.024 57.6187C172.416 56.9927 171.605 56.6019 170.736 56.5156C169.874 56.4318 169.006 56.4193 168.142 56.4781C167.952 56.5005 167.76 56.4684 167.588 56.3855C167.46 56.2978 167.356 56.179 167.287 56.0404C166.284 54.3195 166.598 52.1584 166.956 50.1925L167.776 45.6902C167.895 44.8306 168.125 43.99 168.46 43.189C168.771 42.5262 169.463 41.4006 170.32 41.6007C171.177 41.8008 172.315 43.0414 173.039 43.5617Z" fill="#3F3D56"/>
<path d="M101.564 76.5656L84.2976 80.0898L83.9041 80.0523L68.7304 78.524V59.3345L87.3053 56.2004L100.78 57.7687L100.785 57.8538V57.8938L101.564 76.5656Z" fill="#3787FF"/>
<path opacity="0.1" d="M101.564 76.5655L84.2977 80.0898L83.9042 80.0523V60.38L100.785 57.8538L101.564 76.5655Z" fill="black"/>
<path opacity="0.05" d="M100.785 57.8938L100.78 57.8988L83.9041 60.38L68.7304 59.3345L87.3053 56.2004L100.78 57.7687L100.785 57.8538V57.8938Z" fill="black"/>
<path d="M110.587 57.5561L93.3207 61.0829L92.9272 61.0428L77.7535 59.5146V40.325L96.3284 37.191L109.803 38.7593L109.808 38.8443V38.8843L110.587 57.5561Z" fill="#3F3D56"/>
<path opacity="0.1" d="M110.587 57.5561L93.3207 61.0829L92.9272 61.0428V41.3706L109.808 38.8443L110.587 57.5561Z" fill="black"/>
<path opacity="0.05" d="M109.808 38.8843L109.803 38.8893L92.9272 41.3706L77.7535 40.325L96.3284 37.191L109.803 38.7593L109.808 38.8443V38.8843Z" fill="black"/>
</g>
<defs>
<clipPath id="clip0">
<rect width="238" height="176" fill="white"/>
</clipPath>
</defs>
</svg>
