<svg width="521" height="465" viewBox="0 0 521 465" fill="none" xmlns="http://www.w3.org/2000/svg">
<g clip-path="url(#clip0)">
<path d="M112.628 143.18C111.23 143.18 109.89 143.735 108.901 144.724C107.913 145.713 107.358 147.053 107.358 148.452C107.358 149.85 107.913 151.191 108.901 152.179C109.89 153.168 111.23 153.723 112.628 153.723H178.875V151.424C178.875 149.789 179.28 148.18 180.055 146.741C180.83 145.303 181.95 144.079 183.315 143.18H112.628Z" fill="#E6E6E6"/>
<path d="M172.909 131.318H150.511C149.113 131.318 147.773 130.763 146.784 129.774C145.796 128.785 145.241 127.445 145.241 126.046C145.241 124.648 145.796 123.307 146.784 122.319C147.773 121.33 149.113 120.775 150.511 120.775H172.909C174.307 120.775 175.648 121.33 176.636 122.319C177.624 123.307 178.18 124.648 178.18 126.046C178.18 127.445 177.624 128.785 176.636 129.774C175.648 130.763 174.307 131.318 172.909 131.318Z" fill="#E6E6E6"/>
<path d="M122.674 93.7564H35.7148C34.3171 93.7564 32.9766 93.201 31.9882 92.2123C30.9998 91.2237 30.4446 89.8828 30.4446 88.4846C30.4446 87.0864 30.9998 85.7455 31.9882 84.7568C32.9766 83.7682 34.3171 83.2128 35.7148 83.2128H122.674C124.072 83.2128 125.412 83.7682 126.4 84.7568C127.389 85.7455 127.944 87.0864 127.944 88.4846C127.944 89.8828 127.389 91.2237 126.4 92.2123C125.412 93.201 124.072 93.7564 122.674 93.7564Z" fill="#E6E6E6"/>
<path d="M84.794 71.3512H73.5947C72.1969 71.3512 70.8564 70.7957 69.8681 69.8071C68.8797 68.8184 68.3245 67.4775 68.3245 66.0793C68.3245 64.6811 68.8797 63.3402 69.8681 62.3516C70.8564 61.3629 72.1969 60.8075 73.5947 60.8075H84.794C86.1917 60.8075 87.5322 61.3629 88.5206 62.3516C89.509 63.3402 90.0642 64.6811 90.0642 66.0793C90.0642 67.4775 89.509 68.8184 88.5206 69.8071C87.5322 70.7957 86.1917 71.3512 84.794 71.3512Z" fill="#E6E6E6"/>
<path d="M178.213 249.206H96.2361C93.2669 249.202 90.4202 248.021 88.3207 245.921C86.2211 243.821 85.0401 240.973 85.0368 238.003V108.29C85.0401 105.32 86.2211 102.472 88.3207 100.372C90.4202 98.272 93.2669 97.0907 96.2361 97.0873H227.184C230.153 97.0907 233 98.272 235.1 100.372C237.199 102.472 238.38 105.32 238.384 108.29V140.44H237.066V108.29C237.063 105.669 236.021 103.157 234.168 101.304C232.316 99.4506 229.804 98.4083 227.184 98.4053H96.2361C93.6162 98.4083 91.1045 99.4506 89.2519 101.304C87.3994 103.157 86.3573 105.669 86.3544 108.29V238.003C86.3573 240.624 87.3994 243.136 89.2519 244.989C91.1045 246.843 93.6162 247.885 96.2361 247.888H178.213V249.206Z" fill="#CCCCCC"/>
<path d="M85.6956 171.554H25.938C22.9688 171.551 20.1222 170.37 18.0227 168.27C15.9231 166.169 14.7421 163.322 14.7388 160.352V54.8767C14.7421 51.9066 15.9231 49.0591 18.0227 46.9589C20.1222 44.8588 22.9688 43.6774 25.938 43.6741H132.451C135.42 43.6774 138.266 44.8588 140.366 46.9589C142.465 49.0591 143.646 51.9066 143.65 54.8767V97.7463H142.332V54.8767C142.329 52.256 141.287 49.7435 139.435 47.8905C137.582 46.0374 135.07 44.995 132.451 44.992H25.938C23.3182 44.995 20.8064 46.0374 18.9539 47.8905C17.1014 49.7435 16.0593 52.256 16.0563 54.8767V160.352C16.0593 162.973 17.1014 165.485 18.9539 167.338C20.8064 169.191 23.3182 170.234 25.938 170.237H85.6956V171.554Z" fill="#CCCCCC"/>
<path d="M352.424 143.18C353.789 144.079 354.909 145.303 355.684 146.741C356.459 148.18 356.864 149.789 356.864 151.424V153.723H423.111C424.509 153.723 425.849 153.168 426.837 152.179C427.826 151.191 428.381 149.85 428.381 148.452C428.381 147.053 427.826 145.713 426.837 144.724C425.849 143.735 424.509 143.18 423.111 143.18H352.424Z" fill="#E6E6E6"/>
<path d="M357.559 126.046C357.561 124.649 358.116 123.309 359.104 122.32C360.092 121.332 361.432 120.776 362.829 120.775H385.228C386.626 120.775 387.966 121.33 388.954 122.319C389.943 123.307 390.498 124.648 390.498 126.046C390.498 127.445 389.943 128.785 388.954 129.774C387.966 130.763 386.626 131.318 385.228 131.318H362.829C361.432 131.317 360.092 130.761 359.104 129.772C358.116 128.784 357.561 127.444 357.559 126.046Z" fill="#E6E6E6"/>
<path d="M407.795 88.4846C407.796 87.0869 408.352 85.7469 409.34 84.7586C410.328 83.7703 411.668 83.2144 413.065 83.2128H500.024C501.422 83.2128 502.762 83.7682 503.751 84.7568C504.739 85.7455 505.294 87.0864 505.294 88.4846C505.294 89.8828 504.739 91.2237 503.751 92.2123C502.762 93.201 501.422 93.7564 500.024 93.7564H413.065C411.668 93.7548 410.328 93.1989 409.34 92.2106C408.352 91.2223 407.796 89.8823 407.795 88.4846Z" fill="#E6E6E6"/>
<path d="M445.675 66.0793C445.676 64.6816 446.232 63.3417 447.22 62.3533C448.208 61.365 449.548 60.8091 450.945 60.8075H462.144C463.542 60.8075 464.882 61.3629 465.871 62.3516C466.859 63.3402 467.414 64.6811 467.414 66.0793C467.414 67.4775 466.859 68.8184 465.871 69.8071C464.882 70.7957 463.542 71.3512 462.144 71.3512H450.945C449.548 71.3496 448.208 70.7936 447.22 69.8053C446.232 68.817 445.676 67.477 445.675 66.0793Z" fill="#E6E6E6"/>
<path d="M357.525 249.206H439.503C442.472 249.202 445.319 248.021 447.418 245.921C449.518 243.821 450.699 240.973 450.702 238.003V108.29C450.699 105.32 449.518 102.472 447.418 100.372C445.319 98.272 442.472 97.0907 439.503 97.0873H308.555C305.585 97.0907 302.739 98.272 300.639 100.372C298.54 102.472 297.359 105.32 297.355 108.29V140.44H298.673V108.29C298.676 105.669 299.718 103.157 301.57 101.304C303.423 99.4506 305.935 98.4083 308.555 98.4053H439.503C442.123 98.4083 444.634 99.4506 446.487 101.304C448.339 103.157 449.381 105.669 449.384 108.29V238.003C449.381 240.624 448.339 243.136 446.487 244.989C444.634 246.843 442.123 247.885 439.503 247.888H357.525V249.206Z" fill="#CCCCCC"/>
<path d="M450.043 171.554H509.801C512.77 171.551 515.617 170.37 517.716 168.27C519.816 166.169 520.997 163.322 521 160.352V54.8767C520.997 51.9066 519.816 49.0591 517.716 46.9589C515.617 44.8588 512.77 43.6774 509.801 43.6741H403.288C400.319 43.6774 397.472 44.8588 395.373 46.9589C393.273 49.0591 392.092 51.9066 392.089 54.8767V97.7463H393.406V54.8767C393.409 52.256 394.452 49.7435 396.304 47.8905C398.157 46.0374 400.668 44.995 403.288 44.992H509.801C512.421 44.995 514.932 46.0374 516.785 47.8905C518.637 49.7435 519.679 52.256 519.682 54.8767V160.352C519.679 162.973 518.637 165.485 516.785 167.338C514.932 169.191 512.421 170.234 509.801 170.237H450.043V171.554Z" fill="#CCCCCC"/>
<path d="M346.706 140.221H188.757C185.788 140.227 182.943 141.409 180.844 143.509C178.745 145.608 177.563 148.454 177.557 151.424V307.924C177.56 310.895 178.741 313.742 180.841 315.842C182.941 317.943 185.787 319.124 188.757 319.127H346.706C349.675 319.124 352.522 317.943 354.621 315.842C356.721 313.742 357.902 310.895 357.905 307.924V151.424C357.902 148.453 356.721 145.606 354.621 143.506C352.522 141.405 349.675 140.224 346.706 140.221ZM356.587 307.924C356.584 310.545 355.542 313.057 353.689 314.91C351.837 316.763 349.325 317.806 346.706 317.809H188.757C186.137 317.806 183.625 316.763 181.773 314.91C179.92 313.057 178.878 310.545 178.875 307.924V151.424C178.879 148.803 179.921 146.291 181.774 144.439C183.626 142.586 186.137 141.543 188.757 141.539H346.706C349.325 141.542 351.837 142.585 353.689 144.438C355.542 146.291 356.584 148.803 356.587 151.424V307.924Z" fill="#3F3D56"/>
<path d="M334.267 201.17H201.194C199.796 201.17 198.455 200.614 197.467 199.626C196.479 198.637 195.923 197.296 195.923 195.898C195.923 194.5 196.479 193.159 197.467 192.17C198.455 191.182 199.796 190.626 201.194 190.626H334.267C335.665 190.626 337.006 191.182 337.994 192.17C338.982 193.159 339.538 194.5 339.538 195.898C339.538 197.296 338.982 198.637 337.994 199.626C337.006 200.614 335.665 201.17 334.267 201.17Z" fill="#CCCCCC"/>
<path d="M296.387 178.765H239.074C237.676 178.765 236.335 178.209 235.347 177.221C234.359 176.232 233.803 174.891 233.803 173.493C233.803 172.095 234.359 170.754 235.347 169.765C236.335 168.776 237.676 168.221 239.074 168.221H296.387C297.785 168.221 299.126 168.776 300.114 169.765C301.102 170.754 301.658 172.095 301.658 173.493C301.658 174.891 301.102 176.232 300.114 177.221C299.126 178.209 297.785 178.765 296.387 178.765Z" fill="#3787FF"/>
<path d="M258.178 232.801H200.864C199.467 232.801 198.126 232.245 197.138 231.257C196.149 230.268 195.594 228.927 195.594 227.529C195.594 226.131 196.149 224.79 197.138 223.801C198.126 222.813 199.467 222.257 200.864 222.257H258.178C259.576 222.257 260.916 222.813 261.905 223.801C262.893 224.79 263.448 226.131 263.448 227.529C263.448 228.927 262.893 230.268 261.905 231.257C260.916 232.245 259.576 232.801 258.178 232.801Z" fill="#CCCCCC"/>
<path d="M258.178 255.865H200.864C199.467 255.865 198.126 255.31 197.138 254.321C196.149 253.332 195.594 251.991 195.594 250.593C195.594 249.195 196.149 247.854 197.138 246.865C198.126 245.877 199.467 245.321 200.864 245.321H258.178C259.576 245.321 260.916 245.877 261.905 246.865C262.893 247.854 263.448 249.195 263.448 250.593C263.448 251.991 262.893 253.332 261.905 254.321C260.916 255.31 259.576 255.865 258.178 255.865Z" fill="#CCCCCC"/>
<path d="M258.178 278.929H200.864C199.467 278.929 198.126 278.374 197.138 277.385C196.149 276.397 195.594 275.056 195.594 273.658C195.594 272.259 196.149 270.918 197.138 269.93C198.126 268.941 199.467 268.386 200.864 268.386H258.178C259.576 268.386 260.916 268.941 261.905 269.93C262.893 270.918 263.448 272.259 263.448 273.658C263.448 275.056 262.893 276.397 261.905 277.385C260.916 278.374 259.576 278.929 258.178 278.929Z" fill="#CCCCCC"/>
<path d="M329.66 237.32C335.092 237.32 339.495 232.916 339.495 227.482C339.495 222.049 335.092 217.644 329.66 217.644C324.228 217.644 319.825 222.049 319.825 227.482C319.825 232.916 324.228 237.32 329.66 237.32Z" fill="#3787FF"/>
<path d="M328.685 231.235C328.464 231.236 328.249 231.164 328.072 231.031L328.061 231.023L325.749 229.254C325.533 229.089 325.392 228.844 325.356 228.573C325.32 228.303 325.393 228.03 325.559 227.814C325.725 227.598 325.97 227.456 326.24 227.42C326.51 227.385 326.783 227.458 326.999 227.624L328.496 228.772L332.034 224.155C332.116 224.048 332.218 223.958 332.335 223.891C332.452 223.823 332.581 223.779 332.714 223.762C332.848 223.744 332.984 223.753 333.114 223.788C333.244 223.823 333.367 223.883 333.474 223.965L333.474 223.965L333.452 223.996L333.474 223.965C333.69 224.131 333.832 224.376 333.867 224.646C333.903 224.916 333.83 225.189 333.664 225.405L329.503 230.833C329.407 230.958 329.283 231.06 329.141 231.129C329 231.198 328.844 231.234 328.686 231.234L328.685 231.235Z" fill="white"/>
<path d="M79.1943 30.5827C76.1709 30.5826 73.2154 29.6858 70.7015 28.0056C68.1876 26.3253 66.2283 23.9371 65.0713 21.143C63.9143 18.3489 63.6115 15.2743 64.2014 12.3081C64.7912 9.34187 66.2472 6.61723 68.3851 4.4787C70.523 2.34018 73.2468 0.883833 76.2121 0.293821C79.1775 -0.296192 82.2511 0.00662741 85.0444 1.16399C87.8377 2.32136 90.2251 4.28129 91.9048 6.79593C93.5846 9.31058 94.4811 12.267 94.4811 15.2913C94.4765 19.3454 92.8645 23.2322 89.9986 26.0989C87.1328 28.9655 83.2472 30.5781 79.1943 30.5827ZM79.1943 1.31796C76.4315 1.31798 73.7307 2.13752 71.4335 3.67294C69.1363 5.20836 67.3458 7.39071 66.2886 9.94401C65.2313 12.4973 64.9546 15.3069 65.4936 18.0174C66.0327 20.728 67.3631 23.2178 69.3167 25.172C71.2704 27.1262 73.7594 28.457 76.4692 28.9962C79.1789 29.5354 81.9876 29.2586 84.5402 28.201C87.0927 27.1434 89.2744 25.3524 90.8093 23.0545C92.3443 20.7566 93.1636 18.055 93.1636 15.2913C93.1594 11.5866 91.6863 8.03488 89.0674 5.41527C86.4486 2.79566 82.8979 1.32213 79.1943 1.31796Z" fill="#CCCCCC"/>
<path d="M77.7447 20.8731C77.4156 20.8737 77.0953 20.7672 76.832 20.5697L76.8157 20.5575L73.3779 17.9269C73.2187 17.8048 73.0851 17.6525 72.9847 17.4787C72.8843 17.305 72.8191 17.1132 72.7928 16.9142C72.7665 16.7152 72.7797 16.5131 72.8316 16.3192C72.8834 16.1253 72.9729 15.9436 73.095 15.7843C73.217 15.625 73.3692 15.4914 73.543 15.391C73.7167 15.2905 73.9084 15.2253 74.1073 15.1991C74.3062 15.1728 74.5083 15.1859 74.7021 15.2378C74.896 15.2897 75.0777 15.3792 75.2369 15.5013L77.4636 17.2094L82.7255 10.3426C82.8475 10.1834 82.9996 10.0498 83.1733 9.94943C83.3469 9.84905 83.5386 9.78387 83.7374 9.7576C83.9362 9.73133 84.1383 9.74449 84.332 9.79633C84.5257 9.84817 84.7074 9.93767 84.8665 10.0597L84.8669 10.0601L84.8343 10.1054L84.8678 10.0601C85.1889 10.3069 85.399 10.6711 85.4519 11.0727C85.5049 11.4743 85.3964 11.8805 85.1503 12.2022L78.9612 20.2754C78.818 20.4614 78.6339 20.6119 78.4232 20.7152C78.2125 20.8186 77.9808 20.872 77.7461 20.8713L77.7447 20.8731Z" fill="#CCCCCC"/>
<path d="M176.164 83.9599C173.141 83.9599 170.185 83.063 167.671 81.3828C165.157 79.7025 163.198 77.3143 162.041 74.5202C160.884 71.7261 160.581 68.6515 161.171 65.6853C161.761 62.7191 163.217 59.9945 165.355 57.8559C167.493 55.7174 170.217 54.2611 173.182 53.6711C176.147 53.0811 179.221 53.3839 182.014 54.5413C184.807 55.6986 187.195 57.6586 188.875 60.1732C190.554 62.6878 191.451 65.6443 191.451 68.6686C191.446 72.7227 189.834 76.6095 186.968 79.4762C184.103 82.3429 180.217 83.9554 176.164 83.9599ZM176.164 54.6952C173.401 54.6953 170.7 55.5148 168.403 57.0502C166.106 58.5857 164.316 60.768 163.258 63.3213C162.201 65.8746 161.924 68.6842 162.463 71.3948C163.002 74.1053 164.333 76.5951 166.287 78.5493C168.24 80.5035 170.729 81.8343 173.439 82.3735C176.149 82.9126 178.957 82.6359 181.51 81.5783C184.062 80.5207 186.244 78.7297 187.779 76.4318C189.314 74.1339 190.133 71.4323 190.133 68.6686C190.129 64.9639 188.656 61.4121 186.037 58.7925C183.418 56.1729 179.868 54.6994 176.164 54.6952Z" fill="#CCCCCC"/>
<path d="M174.715 74.2504C174.385 74.2509 174.065 74.1445 173.802 73.947L173.785 73.9347L170.348 71.3041C170.026 71.0575 169.816 70.6933 169.763 70.2915C169.71 69.8896 169.818 69.4832 170.065 69.1616C170.311 68.8399 170.675 68.6294 171.077 68.5763C171.479 68.5232 171.885 68.632 172.207 68.8785L174.433 70.5866L179.695 63.7199C179.817 63.5607 179.969 63.4271 180.143 63.3267C180.317 63.2263 180.508 63.1611 180.707 63.1349C180.906 63.1086 181.108 63.1218 181.302 63.1736C181.496 63.2254 181.677 63.3149 181.836 63.437L181.837 63.4373L181.804 63.4827L181.838 63.4373C182.159 63.6842 182.369 64.0483 182.422 64.4499C182.475 64.8515 182.366 65.2577 182.12 65.5794L175.931 73.6526C175.788 73.8386 175.604 73.9892 175.393 74.0925C175.182 74.1959 174.951 74.2493 174.716 74.2486L174.715 74.2504Z" fill="#CCCCCC"/>
<path d="M329.66 260.385C335.092 260.385 339.495 255.98 339.495 250.547C339.495 245.113 335.092 240.709 329.66 240.709C324.228 240.709 319.825 245.113 319.825 250.547C319.825 255.98 324.228 260.385 329.66 260.385Z" fill="#3787FF"/>
<path d="M328.685 254.299C328.464 254.3 328.249 254.228 328.072 254.095L328.061 254.087L325.749 252.319C325.642 252.236 325.552 252.134 325.485 252.017C325.417 251.9 325.374 251.771 325.356 251.638C325.338 251.504 325.347 251.368 325.382 251.238C325.417 251.107 325.477 250.985 325.559 250.878C325.641 250.771 325.743 250.681 325.86 250.614C325.977 250.546 326.106 250.502 326.24 250.484C326.373 250.467 326.509 250.476 326.64 250.511C326.77 250.545 326.892 250.606 326.999 250.688L328.496 251.836L332.034 247.219C332.116 247.112 332.218 247.022 332.335 246.955C332.452 246.887 332.581 246.844 332.714 246.826C332.848 246.808 332.984 246.817 333.114 246.852C333.244 246.887 333.367 246.947 333.474 247.029L333.474 247.029L333.452 247.06L333.474 247.029C333.69 247.195 333.832 247.44 333.867 247.71C333.903 247.98 333.83 248.253 333.664 248.47L329.503 253.897C329.407 254.023 329.283 254.124 329.141 254.193C329 254.263 328.844 254.299 328.686 254.298L328.685 254.299Z" fill="white"/>
<path d="M329.66 283.496C335.092 283.496 339.495 279.091 339.495 273.658C339.495 268.224 335.092 263.82 329.66 263.82C324.228 263.82 319.825 268.224 319.825 273.658C319.825 279.091 324.228 283.496 329.66 283.496Z" fill="#3787FF"/>
<path d="M328.685 277.41C328.464 277.411 328.249 277.339 328.072 277.206L328.061 277.198L325.749 275.429C325.533 275.264 325.392 275.019 325.357 274.749C325.321 274.479 325.394 274.206 325.56 273.99C325.726 273.774 325.97 273.632 326.24 273.596C326.51 273.56 326.783 273.633 326.999 273.799L328.496 274.947L332.034 270.33C332.116 270.223 332.218 270.133 332.335 270.066C332.452 269.998 332.581 269.955 332.714 269.937C332.848 269.919 332.984 269.928 333.114 269.963C333.244 269.998 333.367 270.058 333.474 270.14L333.474 270.14L333.452 270.171L333.474 270.14C333.69 270.306 333.832 270.551 333.867 270.821C333.903 271.091 333.83 271.364 333.664 271.581L329.503 277.008C329.407 277.134 329.283 277.235 329.141 277.304C329 277.374 328.844 277.41 328.686 277.409L328.685 277.41Z" fill="white"/>
<path d="M267.745 126.793C257.37 126.616 252.655 118.742 252.655 111.501C252.656 104.259 257.371 96.3862 267.723 96.2108H267.746C278.099 96.3875 282.814 104.262 282.814 111.503C282.813 118.744 278.097 126.618 267.745 126.793ZM267.735 97.5288C258.28 97.6942 253.973 104.886 253.973 111.501C253.972 118.118 258.282 125.314 267.745 125.476C277.185 125.315 281.496 118.12 281.496 111.503C281.496 104.889 277.19 97.6964 267.735 97.5288Z" fill="#3787FF"/>
<path d="M271.165 112.333C273.81 116.928 266.551 118.723 263.774 115.954L264.47 114.468C268.985 118.369 272.963 111.611 266.066 112.253V110.624C272.382 111.134 268.835 104.775 264.628 108.537L263.948 107.05C267.376 103.491 275.074 107.795 269.64 111.352C270.246 111.494 270.785 111.84 271.165 112.333Z" fill="#3787FF"/>
<path d="M360.622 83.9599C357.599 83.9599 354.643 83.063 352.13 81.3828C349.616 79.7025 347.656 77.3143 346.499 74.5202C345.342 71.7261 345.04 68.6515 345.63 65.6853C346.219 62.7191 347.675 59.9945 349.813 57.8559C351.951 55.7174 354.675 54.2611 357.64 53.6711C360.606 53.0811 363.679 53.3839 366.473 54.5413C369.266 55.6986 371.653 57.6586 373.333 60.1732C375.013 62.6878 375.909 65.6443 375.909 68.6686C375.905 72.7227 374.293 76.6095 371.427 79.4762C368.561 82.3429 364.675 83.9554 360.622 83.9599ZM360.622 54.6952C357.86 54.6953 355.159 55.5148 352.862 57.0502C350.564 58.5857 348.774 60.768 347.717 63.3213C346.659 65.8746 346.383 68.6842 346.922 71.3948C347.461 74.1053 348.791 76.5951 350.745 78.5493C352.699 80.5035 355.188 81.8343 357.897 82.3735C360.607 82.9126 363.416 82.6359 365.968 81.5783C368.521 80.5207 370.703 78.7297 372.237 76.4318C373.772 74.1339 374.592 71.4323 374.592 68.6686C374.588 64.9639 373.114 61.4121 370.496 58.7925C367.877 56.1729 364.326 54.6994 360.622 54.6952Z" fill="#CCCCCC"/>
<path d="M364.868 72.1005H363.271V74.2988H361.279V72.1005H356.377V70.5821L361.642 63.0383H363.271V70.5033H364.868V72.1005ZM361.279 70.5033V66.217L358.306 70.5033H361.279Z" fill="#CCCCCC"/>
<path d="M456.544 30.5827C453.521 30.5826 450.565 29.6858 448.052 28.0055C445.538 26.3253 443.578 23.9371 442.421 21.143C441.264 18.3488 440.962 15.2743 441.552 12.308C442.141 9.34183 443.597 6.61719 445.735 4.47868C447.873 2.34016 450.597 0.883819 453.562 0.293813C456.528 -0.296193 459.601 0.00663723 462.395 1.16401C465.188 2.32137 467.575 4.2813 469.255 6.79595C470.935 9.31059 471.831 12.267 471.831 15.2913C471.827 19.3455 470.215 23.2322 467.349 26.0989C464.483 28.9656 460.597 30.5781 456.544 30.5827ZM456.544 1.31797C453.782 1.318 451.081 2.13755 448.784 3.67298C446.486 5.20842 444.696 7.39077 443.639 9.94407C442.581 12.4974 442.305 15.3069 442.844 18.0175C443.383 20.7281 444.713 23.2179 446.667 25.172C448.621 27.1262 451.11 28.4571 453.819 28.9962C456.529 29.5354 459.338 29.2586 461.89 28.201C464.443 27.1434 466.625 25.3524 468.16 23.0545C469.694 20.7566 470.514 18.055 470.514 15.2913C470.51 11.5866 469.036 8.03485 466.418 5.41524C463.799 2.79563 460.248 1.32212 456.544 1.31797Z" fill="#CCCCCC"/>
<path d="M458.821 14.1131C459.351 14.4057 459.784 14.845 460.07 15.3783C460.374 15.9556 460.526 16.6003 460.513 17.2523C460.527 17.9376 460.352 18.6134 460.007 19.2057C459.662 19.777 459.156 20.2336 458.552 20.5182C457.866 20.8412 457.113 21.0009 456.355 20.9848C455.644 20.9841 454.938 20.8639 454.268 20.6289C453.645 20.4276 453.07 20.1021 452.576 19.6723L453.256 18.1854C454.139 18.915 455.241 19.3272 456.386 19.356C456.975 19.3963 457.556 19.2063 458.007 18.8261C458.372 18.4096 458.571 17.8741 458.568 17.3206C458.565 16.767 458.36 16.2337 457.991 15.8211C457.785 15.6296 457.542 15.4814 457.277 15.3849C457.012 15.2885 456.731 15.2459 456.45 15.2596C456.021 15.2568 455.596 15.3402 455.201 15.5048C454.81 15.6683 454.46 15.9136 454.173 16.2243H452.94V9.59778H459.991V11.1793H454.932V14.2473C455.53 13.8488 456.237 13.6445 456.956 13.6623C457.606 13.6487 458.249 13.804 458.821 14.1131Z" fill="#CCCCCC"/>
<path d="M97.6275 343.229C97.2276 342.347 97.026 341.387 97.0369 340.419C97.0478 339.45 97.2708 338.495 97.6904 337.622C98.11 336.749 98.7158 335.979 99.4653 335.365C100.215 334.752 101.09 334.31 102.028 334.071L104.025 310.607L113.63 318.187L110.261 339.306C110.557 340.91 110.255 342.567 109.412 343.963C108.569 345.359 107.243 346.397 105.686 346.881C104.129 347.364 102.448 347.26 100.963 346.587C99.4779 345.914 98.291 344.719 97.6274 343.229H97.6275Z" fill="#FFB8B8"/>
<path d="M103.804 331.608C103.113 331.517 102.477 331.185 102.006 330.67C101.536 330.155 101.262 329.491 101.233 328.794L100.121 302.167C99.7213 292.596 101.669 283.073 105.793 274.428L115.653 253.76C116.314 252.517 117.261 251.449 118.417 250.646C119.573 249.843 120.904 249.327 122.299 249.141C123.653 248.95 125.033 249.09 126.322 249.547C127.61 250.005 128.769 250.767 129.7 251.77C130.172 252.274 130.596 252.822 130.967 253.405C131.711 254.612 132.141 255.986 132.22 257.402C132.298 258.818 132.022 260.231 131.416 261.513L116.296 302.831L115.133 329.749C115.115 330.157 115.014 330.556 114.834 330.923C114.655 331.29 114.402 331.616 114.091 331.88C113.78 332.144 113.418 332.342 113.027 332.46C112.636 332.578 112.226 332.614 111.82 332.565L103.844 331.614L103.804 331.608Z" fill="#3787FF"/>
<path d="M75.516 447.948L82.9115 451.196L98.9514 424.207L88.0368 419.415L75.516 447.948Z" fill="#FFB8B8"/>
<path d="M74.6894 444.705L89.2536 451.1L89.2542 451.1C90.473 451.635 91.5746 452.405 92.4959 453.366C93.4172 454.327 94.1403 455.461 94.6238 456.701C95.1073 457.942 95.3418 459.265 95.3139 460.597C95.286 461.928 94.9963 463.24 94.4612 464.46L94.3288 464.761L70.4829 454.291L74.6894 444.705Z" fill="#2F2E41"/>
<path d="M174.802 456.93H182.879L186.721 425.768L174.801 425.769L174.802 456.93Z" fill="#FFB8B8"/>
<path d="M172.742 454.292L188.647 454.292H188.648C189.979 454.292 191.297 454.554 192.527 455.063C193.757 455.573 194.874 456.32 195.816 457.261C196.757 458.203 197.503 459.321 198.013 460.551C198.522 461.781 198.784 463.099 198.784 464.431V464.76L172.743 464.761L172.742 454.292Z" fill="#2F2E41"/>
<path d="M93.4546 448.07C93.1439 448.07 92.8353 448.021 92.5397 447.926L78.8453 443.522C78.1057 443.281 77.4898 442.76 77.1295 442.071C76.7692 441.381 76.693 440.578 76.9173 439.832L122.331 295.176L156.347 288.504L156.466 288.699C178.955 325.304 186.462 381.221 191.224 440.467C191.282 441.241 191.037 442.007 190.54 442.602C190.043 443.198 189.333 443.577 188.562 443.658L173.591 445.155C172.892 445.229 172.19 445.05 171.612 444.651C171.033 444.253 170.616 443.661 170.435 442.982L143.022 345.976C142.968 345.778 142.854 345.602 142.696 345.472C142.537 345.341 142.342 345.264 142.138 345.249C141.934 345.235 141.73 345.284 141.555 345.391C141.379 345.497 141.242 345.656 141.161 345.844L96.1691 446.277C95.9419 446.809 95.5635 447.262 95.081 447.581C94.5984 447.9 94.0329 448.07 93.4546 448.07Z" fill="#2F2E41"/>
<path d="M139.905 237.252C148.842 237.252 156.086 230.006 156.086 221.067C156.086 212.128 148.842 204.882 139.905 204.882C130.969 204.882 123.725 212.128 123.725 221.067C123.725 230.006 130.969 237.252 139.905 237.252Z" fill="#FFB8B8"/>
<path d="M119.437 299.46L119.326 299.228C119.251 299.071 111.796 283.251 112.49 265.004C112.719 259.015 115.228 253.34 119.503 249.141C123.778 244.941 129.496 242.534 135.487 242.413C141.008 242.305 146.39 244.149 150.685 247.62C154.98 251.092 157.913 255.968 158.966 261.39C161.044 271.999 160.992 282.047 158.812 291.254L158.763 291.459L158.557 291.501L119.437 299.46Z" fill="#3787FF"/>
<path d="M201.932 322.293C200.974 322.151 200.059 321.801 199.25 321.267C198.442 320.733 197.761 320.029 197.254 319.203C196.748 318.378 196.428 317.451 196.319 316.488C196.209 315.526 196.312 314.551 196.619 313.632L177.983 299.245L189.554 295.274L205.477 309.545C206.986 310.164 208.215 311.315 208.931 312.781C209.648 314.246 209.802 315.923 209.365 317.494C208.928 319.065 207.93 320.422 206.56 321.306C205.19 322.191 203.543 322.542 201.932 322.293H201.932Z" fill="#FFB8B8"/>
<path d="M156.197 290.575L156.154 290.505L136.507 258.678C135.82 257.449 135.436 256.074 135.387 254.668C135.338 253.261 135.625 251.862 136.225 250.589C136.797 249.347 137.662 248.261 138.745 247.426C139.827 246.59 141.096 246.028 142.443 245.789C143.122 245.665 143.812 245.605 144.502 245.609C145.92 245.637 147.308 246.019 148.54 246.72C149.773 247.421 150.811 248.418 151.56 249.622L178.094 284.715L200.084 300.272C200.418 300.507 200.699 300.809 200.91 301.159C201.121 301.508 201.258 301.897 201.312 302.302C201.365 302.707 201.335 303.118 201.222 303.511C201.11 303.903 200.917 304.268 200.657 304.583L195.538 310.775C195.09 311.319 194.463 311.686 193.769 311.808C193.074 311.931 192.359 311.801 191.753 311.442L156.197 290.575Z" fill="#3787FF"/>
<path d="M137.012 220.063C138.204 218.101 140.836 217.546 143.121 217.77C145.406 217.994 147.628 218.797 149.923 218.779C156.298 218.73 161.218 210.958 158.538 205.173C156.34 200.428 150.851 198.345 145.885 196.709C135.474 193.281 123.514 189.986 114.066 195.546C111.056 197.37 108.586 199.965 106.913 203.062C105.24 206.16 104.425 209.649 104.55 213.167C104.763 217.542 106.438 222.036 105.021 226.181C103.387 230.963 98.2051 233.528 93.308 234.769C84.7237 236.944 75.6728 236.594 67.0347 238.545C58.3967 240.496 49.5451 245.677 47.2167 254.224C45.6873 259.837 47.2831 265.881 49.926 271.064C52.6225 276.352 56.3697 281.034 60.9382 284.822C65.5068 288.611 70.8004 291.427 76.495 293.098C82.1896 294.769 88.1652 295.259 94.0559 294.539C99.9466 293.819 105.628 291.904 110.753 288.911C121.196 282.811 128.735 272.502 133.23 261.273C135.778 254.722 137.573 247.902 138.578 240.945C139.584 234.433 138.73 227.852 136.907 221.52C136.821 221.283 136.785 221.031 136.803 220.78C136.822 220.529 136.893 220.285 137.012 220.063Z" fill="#2F2E41"/>
<path d="M251.654 465H0.65878C0.484061 465 0.316497 464.931 0.192952 464.807C0.0694065 464.683 0 464.516 0 464.341C0 464.166 0.0694065 463.999 0.192952 463.875C0.316497 463.751 0.484061 463.682 0.65878 463.682H251.654C251.829 463.682 251.996 463.751 252.12 463.875C252.243 463.999 252.313 464.166 252.313 464.341C252.313 464.516 252.243 464.683 252.12 464.807C251.996 464.931 251.829 465 251.654 465Z" fill="#3F3D56"/>
</g>
<defs>
<clipPath id="clip0">
<rect width="521" height="465" fill="white"/>
</clipPath>
</defs>
</svg>
